G04 (created by PCBNEW (2013-07-07 BZR 4022)-stable) date 08/02/2014 11:33:34 PM*
%MOIN*%
G04 Gerber Fmt 3.4, Leading zero omitted, Abs format*
%FSLAX34Y34*%
G01*
G70*
G90*
G04 APERTURE LIST*
%ADD10C,0.00590551*%
%ADD11R,0.06X0.06*%
%ADD12C,0.06*%
%ADD13C,0.0590551*%
%ADD14C,0.0905512*%
%ADD15C,0.0893701*%
%ADD16C,0.035*%
%ADD17C,0.01*%
%ADD18C,0.03*%
%ADD19C,0.02*%
G04 APERTURE END LIST*
G54D10*
G54D11*
X53960Y-23137D03*
G54D12*
X53960Y-22137D03*
X54960Y-23137D03*
X54960Y-22137D03*
X55960Y-23137D03*
X55960Y-22137D03*
G54D13*
X57322Y-24842D03*
X57322Y-27401D03*
G54D14*
X37893Y-22283D03*
X35334Y-22283D03*
X37893Y-25984D03*
X35334Y-25984D03*
X37893Y-28740D03*
X35334Y-28740D03*
G54D15*
X57893Y-28602D03*
X57893Y-23602D03*
G54D16*
X40078Y-29744D03*
X30452Y-23622D03*
X41181Y-23976D03*
X49685Y-26889D03*
X49715Y-25272D03*
X41120Y-28435D03*
X44636Y-23425D03*
X38897Y-28161D03*
X49566Y-27716D03*
X43818Y-26692D03*
X52874Y-22637D03*
X53897Y-27421D03*
X45708Y-21594D03*
X44133Y-24724D03*
X44074Y-29980D03*
X40545Y-28414D03*
X38655Y-25249D03*
X41842Y-29680D03*
G54D17*
X47442Y-27716D02*
X44842Y-27716D01*
X47442Y-27716D02*
X49566Y-27716D01*
X44842Y-27716D02*
X43818Y-26692D01*
X55960Y-23137D02*
X55952Y-23137D01*
X55452Y-22637D02*
X52874Y-22637D01*
X55952Y-23137D02*
X55452Y-22637D01*
X53960Y-23137D02*
X53960Y-27358D01*
X53960Y-27358D02*
X53897Y-27421D01*
G54D18*
X57893Y-24271D02*
X57322Y-24842D01*
X57893Y-23602D02*
X57893Y-24271D01*
G54D19*
X44133Y-23169D02*
X44133Y-24724D01*
X45708Y-21594D02*
X44133Y-23169D01*
X43345Y-29680D02*
X43774Y-29680D01*
X41842Y-29680D02*
X43345Y-29680D01*
X43774Y-29680D02*
X44074Y-29980D01*
X38655Y-26524D02*
X38655Y-25249D01*
X40545Y-28414D02*
X38655Y-26524D01*
X41811Y-29680D02*
X40545Y-28414D01*
X41842Y-29680D02*
X41811Y-29680D01*
G54D10*
G36*
X58359Y-30304D02*
X58351Y-30386D01*
X58330Y-30454D01*
X58297Y-30517D01*
X58252Y-30573D01*
X58250Y-30574D01*
X58250Y-29057D01*
X57893Y-28700D01*
X57795Y-28799D01*
X57795Y-28602D01*
X57438Y-28245D01*
X57353Y-28295D01*
X57304Y-28406D01*
X57277Y-28524D01*
X57274Y-28646D01*
X57294Y-28765D01*
X57337Y-28878D01*
X57353Y-28908D01*
X57438Y-28959D01*
X57795Y-28602D01*
X57795Y-28799D01*
X57537Y-29057D01*
X57587Y-29142D01*
X57698Y-29191D01*
X57816Y-29218D01*
X57937Y-29221D01*
X58056Y-29201D01*
X58170Y-29158D01*
X58200Y-29142D01*
X58250Y-29057D01*
X58250Y-30574D01*
X58196Y-30618D01*
X58134Y-30652D01*
X58065Y-30673D01*
X57984Y-30682D01*
X56464Y-30682D01*
X56464Y-23088D01*
X56445Y-22991D01*
X56434Y-22965D01*
X56434Y-22146D01*
X56426Y-22054D01*
X56401Y-21965D01*
X56360Y-21883D01*
X56349Y-21868D01*
X56272Y-21840D01*
X56257Y-21855D01*
X56257Y-21825D01*
X56230Y-21748D01*
X56149Y-21703D01*
X56061Y-21675D01*
X55969Y-21664D01*
X55877Y-21671D01*
X55788Y-21696D01*
X55706Y-21738D01*
X55690Y-21748D01*
X55663Y-21825D01*
X55960Y-22122D01*
X56257Y-21825D01*
X56257Y-21855D01*
X55975Y-22137D01*
X56272Y-22434D01*
X56349Y-22407D01*
X56394Y-22326D01*
X56423Y-22238D01*
X56434Y-22146D01*
X56434Y-22965D01*
X56407Y-22900D01*
X56352Y-22818D01*
X56283Y-22747D01*
X56201Y-22692D01*
X56110Y-22654D01*
X56013Y-22634D01*
X55975Y-22634D01*
X55975Y-22609D01*
X56043Y-22604D01*
X56132Y-22579D01*
X56214Y-22537D01*
X56230Y-22527D01*
X56257Y-22449D01*
X55960Y-22152D01*
X55955Y-22158D01*
X55940Y-22143D01*
X55945Y-22137D01*
X55648Y-21840D01*
X55571Y-21868D01*
X55526Y-21948D01*
X55497Y-22036D01*
X55488Y-22115D01*
X55463Y-22115D01*
X55464Y-22088D01*
X55445Y-21991D01*
X55407Y-21900D01*
X55352Y-21818D01*
X55283Y-21747D01*
X55201Y-21692D01*
X55110Y-21654D01*
X55013Y-21634D01*
X54914Y-21633D01*
X54817Y-21652D01*
X54726Y-21689D01*
X54643Y-21743D01*
X54573Y-21812D01*
X54517Y-21894D01*
X54478Y-21984D01*
X54460Y-22069D01*
X54445Y-21991D01*
X54407Y-21900D01*
X54352Y-21818D01*
X54283Y-21747D01*
X54201Y-21692D01*
X54110Y-21654D01*
X54013Y-21634D01*
X53914Y-21633D01*
X53817Y-21652D01*
X53726Y-21689D01*
X53643Y-21743D01*
X53573Y-21812D01*
X53517Y-21894D01*
X53478Y-21984D01*
X53457Y-22081D01*
X53456Y-22180D01*
X53474Y-22277D01*
X53510Y-22369D01*
X53520Y-22384D01*
X53155Y-22384D01*
X53116Y-22344D01*
X53054Y-22303D01*
X52986Y-22274D01*
X52913Y-22259D01*
X52839Y-22258D01*
X52766Y-22272D01*
X52697Y-22300D01*
X52635Y-22341D01*
X52582Y-22393D01*
X52540Y-22454D01*
X52511Y-22522D01*
X52496Y-22595D01*
X52494Y-22669D01*
X52508Y-22742D01*
X52535Y-22811D01*
X52575Y-22874D01*
X52627Y-22927D01*
X52688Y-22969D01*
X52756Y-22999D01*
X52828Y-23015D01*
X52903Y-23017D01*
X52976Y-23004D01*
X53045Y-22977D01*
X53108Y-22937D01*
X53156Y-22891D01*
X53456Y-22891D01*
X53457Y-23457D01*
X53464Y-23496D01*
X53480Y-23533D01*
X53502Y-23567D01*
X53530Y-23595D01*
X53563Y-23617D01*
X53600Y-23633D01*
X53639Y-23641D01*
X53679Y-23641D01*
X53707Y-23641D01*
X53707Y-27093D01*
X53659Y-27124D01*
X53606Y-27176D01*
X53564Y-27238D01*
X53535Y-27306D01*
X53519Y-27378D01*
X53518Y-27453D01*
X53531Y-27526D01*
X53559Y-27595D01*
X53599Y-27657D01*
X53651Y-27710D01*
X53712Y-27753D01*
X53780Y-27783D01*
X53852Y-27798D01*
X53926Y-27800D01*
X53999Y-27787D01*
X54069Y-27760D01*
X54131Y-27720D01*
X54185Y-27669D01*
X54228Y-27609D01*
X54258Y-27541D01*
X54275Y-27468D01*
X54276Y-27384D01*
X54261Y-27311D01*
X54233Y-27242D01*
X54214Y-27213D01*
X54214Y-23641D01*
X54280Y-23641D01*
X54319Y-23633D01*
X54356Y-23618D01*
X54389Y-23596D01*
X54418Y-23568D01*
X54440Y-23535D01*
X54456Y-23498D01*
X54464Y-23459D01*
X54464Y-23419D01*
X54464Y-23222D01*
X54474Y-23277D01*
X54510Y-23369D01*
X54564Y-23452D01*
X54632Y-23523D01*
X54713Y-23579D01*
X54804Y-23619D01*
X54900Y-23640D01*
X54999Y-23642D01*
X55096Y-23625D01*
X55188Y-23589D01*
X55272Y-23536D01*
X55343Y-23468D01*
X55400Y-23387D01*
X55440Y-23297D01*
X55461Y-23206D01*
X55474Y-23277D01*
X55510Y-23369D01*
X55564Y-23452D01*
X55632Y-23523D01*
X55713Y-23579D01*
X55804Y-23619D01*
X55900Y-23640D01*
X55975Y-23641D01*
X55999Y-23642D01*
X56096Y-23625D01*
X56188Y-23589D01*
X56272Y-23536D01*
X56343Y-23468D01*
X56400Y-23387D01*
X56440Y-23297D01*
X56462Y-23201D01*
X56464Y-23088D01*
X56464Y-30682D01*
X55975Y-30682D01*
X49945Y-30682D01*
X49945Y-27679D01*
X49931Y-27606D01*
X49902Y-27537D01*
X49861Y-27476D01*
X49809Y-27423D01*
X49747Y-27381D01*
X49679Y-27353D01*
X49606Y-27338D01*
X49532Y-27337D01*
X49459Y-27351D01*
X49390Y-27379D01*
X49328Y-27420D01*
X49284Y-27462D01*
X49174Y-27462D01*
X49174Y-22585D01*
X49148Y-22456D01*
X49098Y-22335D01*
X49025Y-22226D01*
X48933Y-22132D01*
X48824Y-22059D01*
X48703Y-22008D01*
X48574Y-21981D01*
X48442Y-21981D01*
X48313Y-22005D01*
X48191Y-22054D01*
X48082Y-22126D01*
X47988Y-22218D01*
X47913Y-22327D01*
X47862Y-22447D01*
X47834Y-22576D01*
X47832Y-22707D01*
X47856Y-22837D01*
X47905Y-22959D01*
X47976Y-23069D01*
X48067Y-23164D01*
X48175Y-23239D01*
X48295Y-23291D01*
X48424Y-23320D01*
X48555Y-23322D01*
X48685Y-23300D01*
X48807Y-23252D01*
X48918Y-23182D01*
X49013Y-23091D01*
X49089Y-22984D01*
X49142Y-22864D01*
X49171Y-22735D01*
X49174Y-22585D01*
X49174Y-27462D01*
X47442Y-27462D01*
X44947Y-27462D01*
X44196Y-26712D01*
X44197Y-26655D01*
X44183Y-26582D01*
X44154Y-26514D01*
X44113Y-26452D01*
X44061Y-26399D01*
X43999Y-26358D01*
X43931Y-26329D01*
X43858Y-26314D01*
X43784Y-26314D01*
X43711Y-26328D01*
X43642Y-26355D01*
X43580Y-26396D01*
X43527Y-26448D01*
X43485Y-26509D01*
X43456Y-26577D01*
X43440Y-26650D01*
X43439Y-26724D01*
X43453Y-26797D01*
X43480Y-26866D01*
X43520Y-26929D01*
X43572Y-26982D01*
X43633Y-27024D01*
X43701Y-27054D01*
X43773Y-27070D01*
X43839Y-27071D01*
X44663Y-27895D01*
X44681Y-27910D01*
X44699Y-27925D01*
X44700Y-27926D01*
X44701Y-27927D01*
X44722Y-27938D01*
X44742Y-27949D01*
X44743Y-27949D01*
X44745Y-27950D01*
X44767Y-27957D01*
X44789Y-27964D01*
X44791Y-27964D01*
X44792Y-27965D01*
X44815Y-27967D01*
X44838Y-27970D01*
X44841Y-27970D01*
X44841Y-27970D01*
X44841Y-27970D01*
X44842Y-27970D01*
X47442Y-27970D01*
X49285Y-27970D01*
X49320Y-28006D01*
X49381Y-28048D01*
X49449Y-28078D01*
X49521Y-28094D01*
X49596Y-28095D01*
X49669Y-28082D01*
X49738Y-28056D01*
X49801Y-28016D01*
X49854Y-27965D01*
X49897Y-27904D01*
X49927Y-27836D01*
X49944Y-27764D01*
X49945Y-27679D01*
X49945Y-30682D01*
X49174Y-30682D01*
X49174Y-29487D01*
X49148Y-29358D01*
X49098Y-29237D01*
X49025Y-29127D01*
X48933Y-29034D01*
X48824Y-28960D01*
X48703Y-28909D01*
X48574Y-28883D01*
X48442Y-28882D01*
X48313Y-28907D01*
X48191Y-28956D01*
X48082Y-29028D01*
X47988Y-29120D01*
X47913Y-29228D01*
X47862Y-29349D01*
X47834Y-29478D01*
X47832Y-29609D01*
X47856Y-29738D01*
X47905Y-29860D01*
X47976Y-29971D01*
X48067Y-30065D01*
X48175Y-30140D01*
X48295Y-30193D01*
X48424Y-30221D01*
X48555Y-30224D01*
X48685Y-30201D01*
X48807Y-30154D01*
X48918Y-30083D01*
X49013Y-29993D01*
X49089Y-29885D01*
X49142Y-29765D01*
X49171Y-29637D01*
X49174Y-29487D01*
X49174Y-30682D01*
X44453Y-30682D01*
X44453Y-29943D01*
X44438Y-29870D01*
X44410Y-29801D01*
X44369Y-29739D01*
X44317Y-29687D01*
X44255Y-29645D01*
X44187Y-29616D01*
X44128Y-29604D01*
X43989Y-29465D01*
X43967Y-29447D01*
X43946Y-29429D01*
X43944Y-29429D01*
X43943Y-29428D01*
X43919Y-29414D01*
X43894Y-29401D01*
X43892Y-29400D01*
X43891Y-29400D01*
X43864Y-29391D01*
X43837Y-29383D01*
X43836Y-29383D01*
X43834Y-29382D01*
X43806Y-29380D01*
X43779Y-29376D01*
X43775Y-29376D01*
X43775Y-29376D01*
X43775Y-29376D01*
X43774Y-29376D01*
X43345Y-29376D01*
X42069Y-29376D01*
X42023Y-29345D01*
X41955Y-29317D01*
X41882Y-29302D01*
X41862Y-29301D01*
X40920Y-28360D01*
X40909Y-28304D01*
X40881Y-28235D01*
X40840Y-28173D01*
X40788Y-28121D01*
X40726Y-28079D01*
X40658Y-28050D01*
X40599Y-28038D01*
X38959Y-26398D01*
X38959Y-25475D01*
X38986Y-25437D01*
X39016Y-25369D01*
X39032Y-25297D01*
X39034Y-25212D01*
X39019Y-25139D01*
X38991Y-25070D01*
X38950Y-25009D01*
X38898Y-24956D01*
X38836Y-24914D01*
X38768Y-24886D01*
X38695Y-24871D01*
X38621Y-24870D01*
X38550Y-24884D01*
X38550Y-22219D01*
X38525Y-22092D01*
X38475Y-21973D01*
X38404Y-21866D01*
X38314Y-21775D01*
X38207Y-21703D01*
X38088Y-21653D01*
X37962Y-21627D01*
X37833Y-21626D01*
X37707Y-21650D01*
X37588Y-21699D01*
X37480Y-21769D01*
X37388Y-21859D01*
X37315Y-21965D01*
X37265Y-22084D01*
X37238Y-22209D01*
X37236Y-22338D01*
X37259Y-22465D01*
X37307Y-22584D01*
X37376Y-22693D01*
X37466Y-22785D01*
X37571Y-22859D01*
X37689Y-22910D01*
X37815Y-22938D01*
X37944Y-22940D01*
X38071Y-22918D01*
X38191Y-22872D01*
X38299Y-22803D01*
X38392Y-22714D01*
X38467Y-22609D01*
X38519Y-22491D01*
X38547Y-22366D01*
X38550Y-22219D01*
X38550Y-24884D01*
X38548Y-24884D01*
X38479Y-24912D01*
X38417Y-24953D01*
X38364Y-25004D01*
X38322Y-25066D01*
X38293Y-25134D01*
X38277Y-25207D01*
X38276Y-25281D01*
X38289Y-25354D01*
X38317Y-25423D01*
X38352Y-25477D01*
X38352Y-25514D01*
X38314Y-25476D01*
X38207Y-25404D01*
X38088Y-25354D01*
X37962Y-25328D01*
X37833Y-25327D01*
X37707Y-25351D01*
X37588Y-25399D01*
X37480Y-25470D01*
X37388Y-25560D01*
X37315Y-25666D01*
X37265Y-25784D01*
X37238Y-25910D01*
X37236Y-26039D01*
X37259Y-26166D01*
X37307Y-26285D01*
X37376Y-26393D01*
X37466Y-26486D01*
X37571Y-26559D01*
X37689Y-26611D01*
X37815Y-26639D01*
X37944Y-26641D01*
X38071Y-26619D01*
X38191Y-26572D01*
X38299Y-26503D01*
X38352Y-26454D01*
X38352Y-26524D01*
X38354Y-26551D01*
X38357Y-26579D01*
X38357Y-26581D01*
X38357Y-26583D01*
X38365Y-26609D01*
X38373Y-26636D01*
X38374Y-26638D01*
X38374Y-26639D01*
X38388Y-26664D01*
X38401Y-26689D01*
X38402Y-26690D01*
X38402Y-26692D01*
X38420Y-26713D01*
X38437Y-26735D01*
X38440Y-26737D01*
X38440Y-26737D01*
X38440Y-26738D01*
X38440Y-26738D01*
X40170Y-28468D01*
X40179Y-28518D01*
X40207Y-28588D01*
X40247Y-28650D01*
X40299Y-28703D01*
X40360Y-28746D01*
X40428Y-28775D01*
X40492Y-28789D01*
X41475Y-29772D01*
X41477Y-29785D01*
X41504Y-29854D01*
X41544Y-29916D01*
X41596Y-29970D01*
X41657Y-30012D01*
X41725Y-30042D01*
X41797Y-30058D01*
X41872Y-30059D01*
X41945Y-30046D01*
X42014Y-30019D01*
X42071Y-29983D01*
X43345Y-29983D01*
X43649Y-29983D01*
X43699Y-30034D01*
X43709Y-30085D01*
X43736Y-30154D01*
X43776Y-30216D01*
X43828Y-30269D01*
X43889Y-30312D01*
X43957Y-30342D01*
X44029Y-30358D01*
X44103Y-30359D01*
X44177Y-30346D01*
X44246Y-30319D01*
X44308Y-30280D01*
X44362Y-30228D01*
X44405Y-30168D01*
X44435Y-30100D01*
X44452Y-30027D01*
X44453Y-29943D01*
X44453Y-30682D01*
X38550Y-30682D01*
X38550Y-28675D01*
X38525Y-28549D01*
X38475Y-28430D01*
X38404Y-28323D01*
X38314Y-28232D01*
X38207Y-28160D01*
X38088Y-28110D01*
X37962Y-28084D01*
X37833Y-28083D01*
X37707Y-28107D01*
X37588Y-28155D01*
X37480Y-28226D01*
X37388Y-28316D01*
X37315Y-28422D01*
X37265Y-28540D01*
X37238Y-28666D01*
X37236Y-28795D01*
X37259Y-28921D01*
X37307Y-29041D01*
X37376Y-29149D01*
X37466Y-29242D01*
X37571Y-29315D01*
X37689Y-29367D01*
X37815Y-29394D01*
X37944Y-29397D01*
X38071Y-29375D01*
X38191Y-29328D01*
X38299Y-29259D01*
X38392Y-29171D01*
X38467Y-29065D01*
X38519Y-28948D01*
X38547Y-28822D01*
X38550Y-28675D01*
X38550Y-30682D01*
X35961Y-30682D01*
X35961Y-28755D01*
X35961Y-25999D01*
X35961Y-22299D01*
X35952Y-22177D01*
X35920Y-22059D01*
X35865Y-21949D01*
X35848Y-21923D01*
X35755Y-21877D01*
X35740Y-21892D01*
X35740Y-21862D01*
X35694Y-21770D01*
X35587Y-21709D01*
X35471Y-21671D01*
X35350Y-21656D01*
X35228Y-21665D01*
X35110Y-21697D01*
X35000Y-21752D01*
X34974Y-21770D01*
X34929Y-21862D01*
X35334Y-22268D01*
X35740Y-21862D01*
X35740Y-21892D01*
X35349Y-22283D01*
X35755Y-22688D01*
X35848Y-22643D01*
X35908Y-22536D01*
X35946Y-22420D01*
X35961Y-22299D01*
X35961Y-25999D01*
X35952Y-25877D01*
X35920Y-25759D01*
X35865Y-25650D01*
X35848Y-25624D01*
X35755Y-25578D01*
X35740Y-25593D01*
X35740Y-25563D01*
X35740Y-22704D01*
X35334Y-22298D01*
X35319Y-22313D01*
X35319Y-22283D01*
X34914Y-21877D01*
X34821Y-21923D01*
X34761Y-22030D01*
X34722Y-22146D01*
X34707Y-22267D01*
X34716Y-22389D01*
X34749Y-22507D01*
X34803Y-22617D01*
X34821Y-22643D01*
X34914Y-22688D01*
X35319Y-22283D01*
X35319Y-22313D01*
X34929Y-22704D01*
X34974Y-22796D01*
X35081Y-22857D01*
X35197Y-22895D01*
X35319Y-22910D01*
X35441Y-22901D01*
X35559Y-22868D01*
X35668Y-22814D01*
X35694Y-22796D01*
X35740Y-22704D01*
X35740Y-25563D01*
X35694Y-25470D01*
X35587Y-25410D01*
X35471Y-25372D01*
X35350Y-25357D01*
X35228Y-25366D01*
X35110Y-25398D01*
X35000Y-25453D01*
X34974Y-25470D01*
X34929Y-25563D01*
X35334Y-25969D01*
X35740Y-25563D01*
X35740Y-25593D01*
X35349Y-25984D01*
X35755Y-26389D01*
X35848Y-26344D01*
X35908Y-26237D01*
X35946Y-26121D01*
X35961Y-25999D01*
X35961Y-28755D01*
X35952Y-28633D01*
X35920Y-28515D01*
X35865Y-28406D01*
X35848Y-28380D01*
X35755Y-28334D01*
X35740Y-28349D01*
X35740Y-28319D01*
X35740Y-26404D01*
X35334Y-25999D01*
X35319Y-26014D01*
X35319Y-25984D01*
X34914Y-25578D01*
X34821Y-25624D01*
X34761Y-25730D01*
X34722Y-25847D01*
X34707Y-25968D01*
X34716Y-26090D01*
X34749Y-26208D01*
X34803Y-26318D01*
X34821Y-26344D01*
X34914Y-26389D01*
X35319Y-25984D01*
X35319Y-26014D01*
X34929Y-26404D01*
X34974Y-26497D01*
X35081Y-26557D01*
X35197Y-26596D01*
X35319Y-26611D01*
X35441Y-26602D01*
X35559Y-26569D01*
X35668Y-26515D01*
X35694Y-26497D01*
X35740Y-26404D01*
X35740Y-28319D01*
X35694Y-28226D01*
X35587Y-28166D01*
X35471Y-28128D01*
X35350Y-28113D01*
X35228Y-28122D01*
X35110Y-28154D01*
X35000Y-28209D01*
X34974Y-28226D01*
X34929Y-28319D01*
X35334Y-28725D01*
X35740Y-28319D01*
X35740Y-28349D01*
X35349Y-28740D01*
X35755Y-29145D01*
X35848Y-29100D01*
X35908Y-28993D01*
X35946Y-28877D01*
X35961Y-28755D01*
X35961Y-30682D01*
X35740Y-30682D01*
X35740Y-29160D01*
X35334Y-28755D01*
X35319Y-28770D01*
X35319Y-28740D01*
X34914Y-28334D01*
X34821Y-28380D01*
X34761Y-28486D01*
X34722Y-28603D01*
X34707Y-28724D01*
X34716Y-28846D01*
X34749Y-28964D01*
X34803Y-29074D01*
X34821Y-29100D01*
X34914Y-29145D01*
X35319Y-28740D01*
X35319Y-28770D01*
X34929Y-29160D01*
X34974Y-29253D01*
X35081Y-29313D01*
X35197Y-29352D01*
X35319Y-29366D01*
X35441Y-29358D01*
X35559Y-29325D01*
X35668Y-29270D01*
X35694Y-29253D01*
X35740Y-29160D01*
X35740Y-30682D01*
X34459Y-30682D01*
X34262Y-30662D01*
X34084Y-30609D01*
X33919Y-30521D01*
X33774Y-30403D01*
X33655Y-30259D01*
X33566Y-30095D01*
X33511Y-29916D01*
X33490Y-29720D01*
X33490Y-27165D01*
X33490Y-27165D01*
X33490Y-27164D01*
X33490Y-27156D01*
X33489Y-27146D01*
X33489Y-27136D01*
X33489Y-27133D01*
X33465Y-26904D01*
X33461Y-26884D01*
X33457Y-26864D01*
X33456Y-26861D01*
X33456Y-26861D01*
X33456Y-26861D01*
X33388Y-26641D01*
X33380Y-26623D01*
X33373Y-26604D01*
X33371Y-26601D01*
X33262Y-26398D01*
X33250Y-26381D01*
X33239Y-26365D01*
X33237Y-26362D01*
X33237Y-26362D01*
X33237Y-26362D01*
X33090Y-26184D01*
X33076Y-26170D01*
X33062Y-26156D01*
X33059Y-26154D01*
X33059Y-26154D01*
X33059Y-26154D01*
X32881Y-26008D01*
X32864Y-25997D01*
X32847Y-25985D01*
X32845Y-25984D01*
X32845Y-25984D01*
X32845Y-25984D01*
X32641Y-25876D01*
X32622Y-25868D01*
X32604Y-25860D01*
X32601Y-25859D01*
X32601Y-25859D01*
X32601Y-25859D01*
X32380Y-25793D01*
X32360Y-25789D01*
X32340Y-25784D01*
X32337Y-25784D01*
X32337Y-25784D01*
X32337Y-25784D01*
X32108Y-25762D01*
X32099Y-25762D01*
X32089Y-25761D01*
X32086Y-25761D01*
X31506Y-25761D01*
X31080Y-25719D01*
X30681Y-25598D01*
X30312Y-25402D01*
X29989Y-25139D01*
X29723Y-24817D01*
X29525Y-24450D01*
X29401Y-24051D01*
X29357Y-23629D01*
X29398Y-23206D01*
X29519Y-22807D01*
X29715Y-22438D01*
X29979Y-22115D01*
X30300Y-21849D01*
X30667Y-21651D01*
X31066Y-21527D01*
X31491Y-21483D01*
X31496Y-21483D01*
X45345Y-21483D01*
X45333Y-21540D01*
X43919Y-22954D01*
X43901Y-22976D01*
X43883Y-22997D01*
X43882Y-22999D01*
X43881Y-23000D01*
X43868Y-23025D01*
X43854Y-23049D01*
X43854Y-23051D01*
X43853Y-23052D01*
X43845Y-23079D01*
X43836Y-23106D01*
X43836Y-23107D01*
X43836Y-23109D01*
X43833Y-23137D01*
X43830Y-23165D01*
X43830Y-23168D01*
X43830Y-23168D01*
X43830Y-23168D01*
X43830Y-23169D01*
X43830Y-24497D01*
X43800Y-24541D01*
X43771Y-24609D01*
X43755Y-24682D01*
X43754Y-24756D01*
X43768Y-24829D01*
X43795Y-24898D01*
X43835Y-24960D01*
X43887Y-25014D01*
X43948Y-25056D01*
X44016Y-25086D01*
X44088Y-25102D01*
X44163Y-25103D01*
X44236Y-25090D01*
X44305Y-25063D01*
X44368Y-25024D01*
X44421Y-24972D01*
X44464Y-24912D01*
X44494Y-24844D01*
X44511Y-24772D01*
X44512Y-24687D01*
X44497Y-24614D01*
X44469Y-24545D01*
X44437Y-24497D01*
X44437Y-23295D01*
X45763Y-21969D01*
X45810Y-21960D01*
X45880Y-21934D01*
X45942Y-21894D01*
X45996Y-21843D01*
X46039Y-21782D01*
X46069Y-21714D01*
X46086Y-21642D01*
X46087Y-21557D01*
X46072Y-21484D01*
X46072Y-21483D01*
X57981Y-21483D01*
X58063Y-21491D01*
X58131Y-21511D01*
X58194Y-21545D01*
X58250Y-21590D01*
X58295Y-21645D01*
X58329Y-21708D01*
X58350Y-21776D01*
X58359Y-21858D01*
X58359Y-23148D01*
X58310Y-23098D01*
X58204Y-23027D01*
X58086Y-22978D01*
X57962Y-22952D01*
X57834Y-22951D01*
X57709Y-22975D01*
X57590Y-23023D01*
X57484Y-23093D01*
X57393Y-23182D01*
X57320Y-23287D01*
X57270Y-23404D01*
X57244Y-23529D01*
X57242Y-23657D01*
X57265Y-23782D01*
X57312Y-23901D01*
X57381Y-24008D01*
X57470Y-24100D01*
X57526Y-24139D01*
X57321Y-24343D01*
X57277Y-24343D01*
X57181Y-24361D01*
X57090Y-24398D01*
X57008Y-24451D01*
X56938Y-24520D01*
X56883Y-24601D01*
X56845Y-24690D01*
X56824Y-24786D01*
X56823Y-24884D01*
X56841Y-24980D01*
X56877Y-25071D01*
X56930Y-25153D01*
X56997Y-25224D01*
X57078Y-25280D01*
X57167Y-25319D01*
X57263Y-25340D01*
X57361Y-25342D01*
X57457Y-25325D01*
X57548Y-25289D01*
X57631Y-25237D01*
X57702Y-25170D01*
X57758Y-25090D01*
X57798Y-25000D01*
X57820Y-24905D01*
X57820Y-24844D01*
X58143Y-24521D01*
X58164Y-24496D01*
X58185Y-24471D01*
X58186Y-24469D01*
X58187Y-24468D01*
X58202Y-24439D01*
X58218Y-24410D01*
X58219Y-24409D01*
X58220Y-24407D01*
X58229Y-24376D01*
X58239Y-24345D01*
X58239Y-24343D01*
X58240Y-24341D01*
X58243Y-24309D01*
X58247Y-24276D01*
X58247Y-24272D01*
X58247Y-24272D01*
X58247Y-24272D01*
X58247Y-24271D01*
X58247Y-24148D01*
X58296Y-24117D01*
X58359Y-24056D01*
X58359Y-28251D01*
X58348Y-28245D01*
X58250Y-28344D01*
X58250Y-28147D01*
X58200Y-28062D01*
X58089Y-28012D01*
X57971Y-27986D01*
X57849Y-27982D01*
X57821Y-27987D01*
X57821Y-27352D01*
X57802Y-27256D01*
X57765Y-27166D01*
X57711Y-27084D01*
X57642Y-27015D01*
X57561Y-26960D01*
X57471Y-26922D01*
X57375Y-26903D01*
X57277Y-26902D01*
X57181Y-26920D01*
X57090Y-26957D01*
X57008Y-27010D01*
X56938Y-27079D01*
X56883Y-27160D01*
X56845Y-27250D01*
X56824Y-27345D01*
X56823Y-27443D01*
X56841Y-27539D01*
X56877Y-27630D01*
X56930Y-27712D01*
X56997Y-27783D01*
X57078Y-27839D01*
X57167Y-27878D01*
X57263Y-27899D01*
X57361Y-27901D01*
X57457Y-27884D01*
X57548Y-27848D01*
X57631Y-27796D01*
X57702Y-27729D01*
X57758Y-27649D01*
X57798Y-27559D01*
X57820Y-27464D01*
X57821Y-27352D01*
X57821Y-27987D01*
X57730Y-28003D01*
X57617Y-28046D01*
X57587Y-28062D01*
X57537Y-28147D01*
X57893Y-28503D01*
X58250Y-28147D01*
X58250Y-28344D01*
X57992Y-28602D01*
X58348Y-28959D01*
X58359Y-28952D01*
X58359Y-30304D01*
X58359Y-30304D01*
G37*
G54D17*
X58359Y-30304D02*
X58351Y-30386D01*
X58330Y-30454D01*
X58297Y-30517D01*
X58252Y-30573D01*
X58250Y-30574D01*
X58250Y-29057D01*
X57893Y-28700D01*
X57795Y-28799D01*
X57795Y-28602D01*
X57438Y-28245D01*
X57353Y-28295D01*
X57304Y-28406D01*
X57277Y-28524D01*
X57274Y-28646D01*
X57294Y-28765D01*
X57337Y-28878D01*
X57353Y-28908D01*
X57438Y-28959D01*
X57795Y-28602D01*
X57795Y-28799D01*
X57537Y-29057D01*
X57587Y-29142D01*
X57698Y-29191D01*
X57816Y-29218D01*
X57937Y-29221D01*
X58056Y-29201D01*
X58170Y-29158D01*
X58200Y-29142D01*
X58250Y-29057D01*
X58250Y-30574D01*
X58196Y-30618D01*
X58134Y-30652D01*
X58065Y-30673D01*
X57984Y-30682D01*
X56464Y-30682D01*
X56464Y-23088D01*
X56445Y-22991D01*
X56434Y-22965D01*
X56434Y-22146D01*
X56426Y-22054D01*
X56401Y-21965D01*
X56360Y-21883D01*
X56349Y-21868D01*
X56272Y-21840D01*
X56257Y-21855D01*
X56257Y-21825D01*
X56230Y-21748D01*
X56149Y-21703D01*
X56061Y-21675D01*
X55969Y-21664D01*
X55877Y-21671D01*
X55788Y-21696D01*
X55706Y-21738D01*
X55690Y-21748D01*
X55663Y-21825D01*
X55960Y-22122D01*
X56257Y-21825D01*
X56257Y-21855D01*
X55975Y-22137D01*
X56272Y-22434D01*
X56349Y-22407D01*
X56394Y-22326D01*
X56423Y-22238D01*
X56434Y-22146D01*
X56434Y-22965D01*
X56407Y-22900D01*
X56352Y-22818D01*
X56283Y-22747D01*
X56201Y-22692D01*
X56110Y-22654D01*
X56013Y-22634D01*
X55975Y-22634D01*
X55975Y-22609D01*
X56043Y-22604D01*
X56132Y-22579D01*
X56214Y-22537D01*
X56230Y-22527D01*
X56257Y-22449D01*
X55960Y-22152D01*
X55955Y-22158D01*
X55940Y-22143D01*
X55945Y-22137D01*
X55648Y-21840D01*
X55571Y-21868D01*
X55526Y-21948D01*
X55497Y-22036D01*
X55488Y-22115D01*
X55463Y-22115D01*
X55464Y-22088D01*
X55445Y-21991D01*
X55407Y-21900D01*
X55352Y-21818D01*
X55283Y-21747D01*
X55201Y-21692D01*
X55110Y-21654D01*
X55013Y-21634D01*
X54914Y-21633D01*
X54817Y-21652D01*
X54726Y-21689D01*
X54643Y-21743D01*
X54573Y-21812D01*
X54517Y-21894D01*
X54478Y-21984D01*
X54460Y-22069D01*
X54445Y-21991D01*
X54407Y-21900D01*
X54352Y-21818D01*
X54283Y-21747D01*
X54201Y-21692D01*
X54110Y-21654D01*
X54013Y-21634D01*
X53914Y-21633D01*
X53817Y-21652D01*
X53726Y-21689D01*
X53643Y-21743D01*
X53573Y-21812D01*
X53517Y-21894D01*
X53478Y-21984D01*
X53457Y-22081D01*
X53456Y-22180D01*
X53474Y-22277D01*
X53510Y-22369D01*
X53520Y-22384D01*
X53155Y-22384D01*
X53116Y-22344D01*
X53054Y-22303D01*
X52986Y-22274D01*
X52913Y-22259D01*
X52839Y-22258D01*
X52766Y-22272D01*
X52697Y-22300D01*
X52635Y-22341D01*
X52582Y-22393D01*
X52540Y-22454D01*
X52511Y-22522D01*
X52496Y-22595D01*
X52494Y-22669D01*
X52508Y-22742D01*
X52535Y-22811D01*
X52575Y-22874D01*
X52627Y-22927D01*
X52688Y-22969D01*
X52756Y-22999D01*
X52828Y-23015D01*
X52903Y-23017D01*
X52976Y-23004D01*
X53045Y-22977D01*
X53108Y-22937D01*
X53156Y-22891D01*
X53456Y-22891D01*
X53457Y-23457D01*
X53464Y-23496D01*
X53480Y-23533D01*
X53502Y-23567D01*
X53530Y-23595D01*
X53563Y-23617D01*
X53600Y-23633D01*
X53639Y-23641D01*
X53679Y-23641D01*
X53707Y-23641D01*
X53707Y-27093D01*
X53659Y-27124D01*
X53606Y-27176D01*
X53564Y-27238D01*
X53535Y-27306D01*
X53519Y-27378D01*
X53518Y-27453D01*
X53531Y-27526D01*
X53559Y-27595D01*
X53599Y-27657D01*
X53651Y-27710D01*
X53712Y-27753D01*
X53780Y-27783D01*
X53852Y-27798D01*
X53926Y-27800D01*
X53999Y-27787D01*
X54069Y-27760D01*
X54131Y-27720D01*
X54185Y-27669D01*
X54228Y-27609D01*
X54258Y-27541D01*
X54275Y-27468D01*
X54276Y-27384D01*
X54261Y-27311D01*
X54233Y-27242D01*
X54214Y-27213D01*
X54214Y-23641D01*
X54280Y-23641D01*
X54319Y-23633D01*
X54356Y-23618D01*
X54389Y-23596D01*
X54418Y-23568D01*
X54440Y-23535D01*
X54456Y-23498D01*
X54464Y-23459D01*
X54464Y-23419D01*
X54464Y-23222D01*
X54474Y-23277D01*
X54510Y-23369D01*
X54564Y-23452D01*
X54632Y-23523D01*
X54713Y-23579D01*
X54804Y-23619D01*
X54900Y-23640D01*
X54999Y-23642D01*
X55096Y-23625D01*
X55188Y-23589D01*
X55272Y-23536D01*
X55343Y-23468D01*
X55400Y-23387D01*
X55440Y-23297D01*
X55461Y-23206D01*
X55474Y-23277D01*
X55510Y-23369D01*
X55564Y-23452D01*
X55632Y-23523D01*
X55713Y-23579D01*
X55804Y-23619D01*
X55900Y-23640D01*
X55975Y-23641D01*
X55999Y-23642D01*
X56096Y-23625D01*
X56188Y-23589D01*
X56272Y-23536D01*
X56343Y-23468D01*
X56400Y-23387D01*
X56440Y-23297D01*
X56462Y-23201D01*
X56464Y-23088D01*
X56464Y-30682D01*
X55975Y-30682D01*
X49945Y-30682D01*
X49945Y-27679D01*
X49931Y-27606D01*
X49902Y-27537D01*
X49861Y-27476D01*
X49809Y-27423D01*
X49747Y-27381D01*
X49679Y-27353D01*
X49606Y-27338D01*
X49532Y-27337D01*
X49459Y-27351D01*
X49390Y-27379D01*
X49328Y-27420D01*
X49284Y-27462D01*
X49174Y-27462D01*
X49174Y-22585D01*
X49148Y-22456D01*
X49098Y-22335D01*
X49025Y-22226D01*
X48933Y-22132D01*
X48824Y-22059D01*
X48703Y-22008D01*
X48574Y-21981D01*
X48442Y-21981D01*
X48313Y-22005D01*
X48191Y-22054D01*
X48082Y-22126D01*
X47988Y-22218D01*
X47913Y-22327D01*
X47862Y-22447D01*
X47834Y-22576D01*
X47832Y-22707D01*
X47856Y-22837D01*
X47905Y-22959D01*
X47976Y-23069D01*
X48067Y-23164D01*
X48175Y-23239D01*
X48295Y-23291D01*
X48424Y-23320D01*
X48555Y-23322D01*
X48685Y-23300D01*
X48807Y-23252D01*
X48918Y-23182D01*
X49013Y-23091D01*
X49089Y-22984D01*
X49142Y-22864D01*
X49171Y-22735D01*
X49174Y-22585D01*
X49174Y-27462D01*
X47442Y-27462D01*
X44947Y-27462D01*
X44196Y-26712D01*
X44197Y-26655D01*
X44183Y-26582D01*
X44154Y-26514D01*
X44113Y-26452D01*
X44061Y-26399D01*
X43999Y-26358D01*
X43931Y-26329D01*
X43858Y-26314D01*
X43784Y-26314D01*
X43711Y-26328D01*
X43642Y-26355D01*
X43580Y-26396D01*
X43527Y-26448D01*
X43485Y-26509D01*
X43456Y-26577D01*
X43440Y-26650D01*
X43439Y-26724D01*
X43453Y-26797D01*
X43480Y-26866D01*
X43520Y-26929D01*
X43572Y-26982D01*
X43633Y-27024D01*
X43701Y-27054D01*
X43773Y-27070D01*
X43839Y-27071D01*
X44663Y-27895D01*
X44681Y-27910D01*
X44699Y-27925D01*
X44700Y-27926D01*
X44701Y-27927D01*
X44722Y-27938D01*
X44742Y-27949D01*
X44743Y-27949D01*
X44745Y-27950D01*
X44767Y-27957D01*
X44789Y-27964D01*
X44791Y-27964D01*
X44792Y-27965D01*
X44815Y-27967D01*
X44838Y-27970D01*
X44841Y-27970D01*
X44841Y-27970D01*
X44841Y-27970D01*
X44842Y-27970D01*
X47442Y-27970D01*
X49285Y-27970D01*
X49320Y-28006D01*
X49381Y-28048D01*
X49449Y-28078D01*
X49521Y-28094D01*
X49596Y-28095D01*
X49669Y-28082D01*
X49738Y-28056D01*
X49801Y-28016D01*
X49854Y-27965D01*
X49897Y-27904D01*
X49927Y-27836D01*
X49944Y-27764D01*
X49945Y-27679D01*
X49945Y-30682D01*
X49174Y-30682D01*
X49174Y-29487D01*
X49148Y-29358D01*
X49098Y-29237D01*
X49025Y-29127D01*
X48933Y-29034D01*
X48824Y-28960D01*
X48703Y-28909D01*
X48574Y-28883D01*
X48442Y-28882D01*
X48313Y-28907D01*
X48191Y-28956D01*
X48082Y-29028D01*
X47988Y-29120D01*
X47913Y-29228D01*
X47862Y-29349D01*
X47834Y-29478D01*
X47832Y-29609D01*
X47856Y-29738D01*
X47905Y-29860D01*
X47976Y-29971D01*
X48067Y-30065D01*
X48175Y-30140D01*
X48295Y-30193D01*
X48424Y-30221D01*
X48555Y-30224D01*
X48685Y-30201D01*
X48807Y-30154D01*
X48918Y-30083D01*
X49013Y-29993D01*
X49089Y-29885D01*
X49142Y-29765D01*
X49171Y-29637D01*
X49174Y-29487D01*
X49174Y-30682D01*
X44453Y-30682D01*
X44453Y-29943D01*
X44438Y-29870D01*
X44410Y-29801D01*
X44369Y-29739D01*
X44317Y-29687D01*
X44255Y-29645D01*
X44187Y-29616D01*
X44128Y-29604D01*
X43989Y-29465D01*
X43967Y-29447D01*
X43946Y-29429D01*
X43944Y-29429D01*
X43943Y-29428D01*
X43919Y-29414D01*
X43894Y-29401D01*
X43892Y-29400D01*
X43891Y-29400D01*
X43864Y-29391D01*
X43837Y-29383D01*
X43836Y-29383D01*
X43834Y-29382D01*
X43806Y-29380D01*
X43779Y-29376D01*
X43775Y-29376D01*
X43775Y-29376D01*
X43775Y-29376D01*
X43774Y-29376D01*
X43345Y-29376D01*
X42069Y-29376D01*
X42023Y-29345D01*
X41955Y-29317D01*
X41882Y-29302D01*
X41862Y-29301D01*
X40920Y-28360D01*
X40909Y-28304D01*
X40881Y-28235D01*
X40840Y-28173D01*
X40788Y-28121D01*
X40726Y-28079D01*
X40658Y-28050D01*
X40599Y-28038D01*
X38959Y-26398D01*
X38959Y-25475D01*
X38986Y-25437D01*
X39016Y-25369D01*
X39032Y-25297D01*
X39034Y-25212D01*
X39019Y-25139D01*
X38991Y-25070D01*
X38950Y-25009D01*
X38898Y-24956D01*
X38836Y-24914D01*
X38768Y-24886D01*
X38695Y-24871D01*
X38621Y-24870D01*
X38550Y-24884D01*
X38550Y-22219D01*
X38525Y-22092D01*
X38475Y-21973D01*
X38404Y-21866D01*
X38314Y-21775D01*
X38207Y-21703D01*
X38088Y-21653D01*
X37962Y-21627D01*
X37833Y-21626D01*
X37707Y-21650D01*
X37588Y-21699D01*
X37480Y-21769D01*
X37388Y-21859D01*
X37315Y-21965D01*
X37265Y-22084D01*
X37238Y-22209D01*
X37236Y-22338D01*
X37259Y-22465D01*
X37307Y-22584D01*
X37376Y-22693D01*
X37466Y-22785D01*
X37571Y-22859D01*
X37689Y-22910D01*
X37815Y-22938D01*
X37944Y-22940D01*
X38071Y-22918D01*
X38191Y-22872D01*
X38299Y-22803D01*
X38392Y-22714D01*
X38467Y-22609D01*
X38519Y-22491D01*
X38547Y-22366D01*
X38550Y-22219D01*
X38550Y-24884D01*
X38548Y-24884D01*
X38479Y-24912D01*
X38417Y-24953D01*
X38364Y-25004D01*
X38322Y-25066D01*
X38293Y-25134D01*
X38277Y-25207D01*
X38276Y-25281D01*
X38289Y-25354D01*
X38317Y-25423D01*
X38352Y-25477D01*
X38352Y-25514D01*
X38314Y-25476D01*
X38207Y-25404D01*
X38088Y-25354D01*
X37962Y-25328D01*
X37833Y-25327D01*
X37707Y-25351D01*
X37588Y-25399D01*
X37480Y-25470D01*
X37388Y-25560D01*
X37315Y-25666D01*
X37265Y-25784D01*
X37238Y-25910D01*
X37236Y-26039D01*
X37259Y-26166D01*
X37307Y-26285D01*
X37376Y-26393D01*
X37466Y-26486D01*
X37571Y-26559D01*
X37689Y-26611D01*
X37815Y-26639D01*
X37944Y-26641D01*
X38071Y-26619D01*
X38191Y-26572D01*
X38299Y-26503D01*
X38352Y-26454D01*
X38352Y-26524D01*
X38354Y-26551D01*
X38357Y-26579D01*
X38357Y-26581D01*
X38357Y-26583D01*
X38365Y-26609D01*
X38373Y-26636D01*
X38374Y-26638D01*
X38374Y-26639D01*
X38388Y-26664D01*
X38401Y-26689D01*
X38402Y-26690D01*
X38402Y-26692D01*
X38420Y-26713D01*
X38437Y-26735D01*
X38440Y-26737D01*
X38440Y-26737D01*
X38440Y-26738D01*
X38440Y-26738D01*
X40170Y-28468D01*
X40179Y-28518D01*
X40207Y-28588D01*
X40247Y-28650D01*
X40299Y-28703D01*
X40360Y-28746D01*
X40428Y-28775D01*
X40492Y-28789D01*
X41475Y-29772D01*
X41477Y-29785D01*
X41504Y-29854D01*
X41544Y-29916D01*
X41596Y-29970D01*
X41657Y-30012D01*
X41725Y-30042D01*
X41797Y-30058D01*
X41872Y-30059D01*
X41945Y-30046D01*
X42014Y-30019D01*
X42071Y-29983D01*
X43345Y-29983D01*
X43649Y-29983D01*
X43699Y-30034D01*
X43709Y-30085D01*
X43736Y-30154D01*
X43776Y-30216D01*
X43828Y-30269D01*
X43889Y-30312D01*
X43957Y-30342D01*
X44029Y-30358D01*
X44103Y-30359D01*
X44177Y-30346D01*
X44246Y-30319D01*
X44308Y-30280D01*
X44362Y-30228D01*
X44405Y-30168D01*
X44435Y-30100D01*
X44452Y-30027D01*
X44453Y-29943D01*
X44453Y-30682D01*
X38550Y-30682D01*
X38550Y-28675D01*
X38525Y-28549D01*
X38475Y-28430D01*
X38404Y-28323D01*
X38314Y-28232D01*
X38207Y-28160D01*
X38088Y-28110D01*
X37962Y-28084D01*
X37833Y-28083D01*
X37707Y-28107D01*
X37588Y-28155D01*
X37480Y-28226D01*
X37388Y-28316D01*
X37315Y-28422D01*
X37265Y-28540D01*
X37238Y-28666D01*
X37236Y-28795D01*
X37259Y-28921D01*
X37307Y-29041D01*
X37376Y-29149D01*
X37466Y-29242D01*
X37571Y-29315D01*
X37689Y-29367D01*
X37815Y-29394D01*
X37944Y-29397D01*
X38071Y-29375D01*
X38191Y-29328D01*
X38299Y-29259D01*
X38392Y-29171D01*
X38467Y-29065D01*
X38519Y-28948D01*
X38547Y-28822D01*
X38550Y-28675D01*
X38550Y-30682D01*
X35961Y-30682D01*
X35961Y-28755D01*
X35961Y-25999D01*
X35961Y-22299D01*
X35952Y-22177D01*
X35920Y-22059D01*
X35865Y-21949D01*
X35848Y-21923D01*
X35755Y-21877D01*
X35740Y-21892D01*
X35740Y-21862D01*
X35694Y-21770D01*
X35587Y-21709D01*
X35471Y-21671D01*
X35350Y-21656D01*
X35228Y-21665D01*
X35110Y-21697D01*
X35000Y-21752D01*
X34974Y-21770D01*
X34929Y-21862D01*
X35334Y-22268D01*
X35740Y-21862D01*
X35740Y-21892D01*
X35349Y-22283D01*
X35755Y-22688D01*
X35848Y-22643D01*
X35908Y-22536D01*
X35946Y-22420D01*
X35961Y-22299D01*
X35961Y-25999D01*
X35952Y-25877D01*
X35920Y-25759D01*
X35865Y-25650D01*
X35848Y-25624D01*
X35755Y-25578D01*
X35740Y-25593D01*
X35740Y-25563D01*
X35740Y-22704D01*
X35334Y-22298D01*
X35319Y-22313D01*
X35319Y-22283D01*
X34914Y-21877D01*
X34821Y-21923D01*
X34761Y-22030D01*
X34722Y-22146D01*
X34707Y-22267D01*
X34716Y-22389D01*
X34749Y-22507D01*
X34803Y-22617D01*
X34821Y-22643D01*
X34914Y-22688D01*
X35319Y-22283D01*
X35319Y-22313D01*
X34929Y-22704D01*
X34974Y-22796D01*
X35081Y-22857D01*
X35197Y-22895D01*
X35319Y-22910D01*
X35441Y-22901D01*
X35559Y-22868D01*
X35668Y-22814D01*
X35694Y-22796D01*
X35740Y-22704D01*
X35740Y-25563D01*
X35694Y-25470D01*
X35587Y-25410D01*
X35471Y-25372D01*
X35350Y-25357D01*
X35228Y-25366D01*
X35110Y-25398D01*
X35000Y-25453D01*
X34974Y-25470D01*
X34929Y-25563D01*
X35334Y-25969D01*
X35740Y-25563D01*
X35740Y-25593D01*
X35349Y-25984D01*
X35755Y-26389D01*
X35848Y-26344D01*
X35908Y-26237D01*
X35946Y-26121D01*
X35961Y-25999D01*
X35961Y-28755D01*
X35952Y-28633D01*
X35920Y-28515D01*
X35865Y-28406D01*
X35848Y-28380D01*
X35755Y-28334D01*
X35740Y-28349D01*
X35740Y-28319D01*
X35740Y-26404D01*
X35334Y-25999D01*
X35319Y-26014D01*
X35319Y-25984D01*
X34914Y-25578D01*
X34821Y-25624D01*
X34761Y-25730D01*
X34722Y-25847D01*
X34707Y-25968D01*
X34716Y-26090D01*
X34749Y-26208D01*
X34803Y-26318D01*
X34821Y-26344D01*
X34914Y-26389D01*
X35319Y-25984D01*
X35319Y-26014D01*
X34929Y-26404D01*
X34974Y-26497D01*
X35081Y-26557D01*
X35197Y-26596D01*
X35319Y-26611D01*
X35441Y-26602D01*
X35559Y-26569D01*
X35668Y-26515D01*
X35694Y-26497D01*
X35740Y-26404D01*
X35740Y-28319D01*
X35694Y-28226D01*
X35587Y-28166D01*
X35471Y-28128D01*
X35350Y-28113D01*
X35228Y-28122D01*
X35110Y-28154D01*
X35000Y-28209D01*
X34974Y-28226D01*
X34929Y-28319D01*
X35334Y-28725D01*
X35740Y-28319D01*
X35740Y-28349D01*
X35349Y-28740D01*
X35755Y-29145D01*
X35848Y-29100D01*
X35908Y-28993D01*
X35946Y-28877D01*
X35961Y-28755D01*
X35961Y-30682D01*
X35740Y-30682D01*
X35740Y-29160D01*
X35334Y-28755D01*
X35319Y-28770D01*
X35319Y-28740D01*
X34914Y-28334D01*
X34821Y-28380D01*
X34761Y-28486D01*
X34722Y-28603D01*
X34707Y-28724D01*
X34716Y-28846D01*
X34749Y-28964D01*
X34803Y-29074D01*
X34821Y-29100D01*
X34914Y-29145D01*
X35319Y-28740D01*
X35319Y-28770D01*
X34929Y-29160D01*
X34974Y-29253D01*
X35081Y-29313D01*
X35197Y-29352D01*
X35319Y-29366D01*
X35441Y-29358D01*
X35559Y-29325D01*
X35668Y-29270D01*
X35694Y-29253D01*
X35740Y-29160D01*
X35740Y-30682D01*
X34459Y-30682D01*
X34262Y-30662D01*
X34084Y-30609D01*
X33919Y-30521D01*
X33774Y-30403D01*
X33655Y-30259D01*
X33566Y-30095D01*
X33511Y-29916D01*
X33490Y-29720D01*
X33490Y-27165D01*
X33490Y-27165D01*
X33490Y-27164D01*
X33490Y-27156D01*
X33489Y-27146D01*
X33489Y-27136D01*
X33489Y-27133D01*
X33465Y-26904D01*
X33461Y-26884D01*
X33457Y-26864D01*
X33456Y-26861D01*
X33456Y-26861D01*
X33456Y-26861D01*
X33388Y-26641D01*
X33380Y-26623D01*
X33373Y-26604D01*
X33371Y-26601D01*
X33262Y-26398D01*
X33250Y-26381D01*
X33239Y-26365D01*
X33237Y-26362D01*
X33237Y-26362D01*
X33237Y-26362D01*
X33090Y-26184D01*
X33076Y-26170D01*
X33062Y-26156D01*
X33059Y-26154D01*
X33059Y-26154D01*
X33059Y-26154D01*
X32881Y-26008D01*
X32864Y-25997D01*
X32847Y-25985D01*
X32845Y-25984D01*
X32845Y-25984D01*
X32845Y-25984D01*
X32641Y-25876D01*
X32622Y-25868D01*
X32604Y-25860D01*
X32601Y-25859D01*
X32601Y-25859D01*
X32601Y-25859D01*
X32380Y-25793D01*
X32360Y-25789D01*
X32340Y-25784D01*
X32337Y-25784D01*
X32337Y-25784D01*
X32337Y-25784D01*
X32108Y-25762D01*
X32099Y-25762D01*
X32089Y-25761D01*
X32086Y-25761D01*
X31506Y-25761D01*
X31080Y-25719D01*
X30681Y-25598D01*
X30312Y-25402D01*
X29989Y-25139D01*
X29723Y-24817D01*
X29525Y-24450D01*
X29401Y-24051D01*
X29357Y-23629D01*
X29398Y-23206D01*
X29519Y-22807D01*
X29715Y-22438D01*
X29979Y-22115D01*
X30300Y-21849D01*
X30667Y-21651D01*
X31066Y-21527D01*
X31491Y-21483D01*
X31496Y-21483D01*
X45345Y-21483D01*
X45333Y-21540D01*
X43919Y-22954D01*
X43901Y-22976D01*
X43883Y-22997D01*
X43882Y-22999D01*
X43881Y-23000D01*
X43868Y-23025D01*
X43854Y-23049D01*
X43854Y-23051D01*
X43853Y-23052D01*
X43845Y-23079D01*
X43836Y-23106D01*
X43836Y-23107D01*
X43836Y-23109D01*
X43833Y-23137D01*
X43830Y-23165D01*
X43830Y-23168D01*
X43830Y-23168D01*
X43830Y-23168D01*
X43830Y-23169D01*
X43830Y-24497D01*
X43800Y-24541D01*
X43771Y-24609D01*
X43755Y-24682D01*
X43754Y-24756D01*
X43768Y-24829D01*
X43795Y-24898D01*
X43835Y-24960D01*
X43887Y-25014D01*
X43948Y-25056D01*
X44016Y-25086D01*
X44088Y-25102D01*
X44163Y-25103D01*
X44236Y-25090D01*
X44305Y-25063D01*
X44368Y-25024D01*
X44421Y-24972D01*
X44464Y-24912D01*
X44494Y-24844D01*
X44511Y-24772D01*
X44512Y-24687D01*
X44497Y-24614D01*
X44469Y-24545D01*
X44437Y-24497D01*
X44437Y-23295D01*
X45763Y-21969D01*
X45810Y-21960D01*
X45880Y-21934D01*
X45942Y-21894D01*
X45996Y-21843D01*
X46039Y-21782D01*
X46069Y-21714D01*
X46086Y-21642D01*
X46087Y-21557D01*
X46072Y-21484D01*
X46072Y-21483D01*
X57981Y-21483D01*
X58063Y-21491D01*
X58131Y-21511D01*
X58194Y-21545D01*
X58250Y-21590D01*
X58295Y-21645D01*
X58329Y-21708D01*
X58350Y-21776D01*
X58359Y-21858D01*
X58359Y-23148D01*
X58310Y-23098D01*
X58204Y-23027D01*
X58086Y-22978D01*
X57962Y-22952D01*
X57834Y-22951D01*
X57709Y-22975D01*
X57590Y-23023D01*
X57484Y-23093D01*
X57393Y-23182D01*
X57320Y-23287D01*
X57270Y-23404D01*
X57244Y-23529D01*
X57242Y-23657D01*
X57265Y-23782D01*
X57312Y-23901D01*
X57381Y-24008D01*
X57470Y-24100D01*
X57526Y-24139D01*
X57321Y-24343D01*
X57277Y-24343D01*
X57181Y-24361D01*
X57090Y-24398D01*
X57008Y-24451D01*
X56938Y-24520D01*
X56883Y-24601D01*
X56845Y-24690D01*
X56824Y-24786D01*
X56823Y-24884D01*
X56841Y-24980D01*
X56877Y-25071D01*
X56930Y-25153D01*
X56997Y-25224D01*
X57078Y-25280D01*
X57167Y-25319D01*
X57263Y-25340D01*
X57361Y-25342D01*
X57457Y-25325D01*
X57548Y-25289D01*
X57631Y-25237D01*
X57702Y-25170D01*
X57758Y-25090D01*
X57798Y-25000D01*
X57820Y-24905D01*
X57820Y-24844D01*
X58143Y-24521D01*
X58164Y-24496D01*
X58185Y-24471D01*
X58186Y-24469D01*
X58187Y-24468D01*
X58202Y-24439D01*
X58218Y-24410D01*
X58219Y-24409D01*
X58220Y-24407D01*
X58229Y-24376D01*
X58239Y-24345D01*
X58239Y-24343D01*
X58240Y-24341D01*
X58243Y-24309D01*
X58247Y-24276D01*
X58247Y-24272D01*
X58247Y-24272D01*
X58247Y-24272D01*
X58247Y-24271D01*
X58247Y-24148D01*
X58296Y-24117D01*
X58359Y-24056D01*
X58359Y-28251D01*
X58348Y-28245D01*
X58250Y-28344D01*
X58250Y-28147D01*
X58200Y-28062D01*
X58089Y-28012D01*
X57971Y-27986D01*
X57849Y-27982D01*
X57821Y-27987D01*
X57821Y-27352D01*
X57802Y-27256D01*
X57765Y-27166D01*
X57711Y-27084D01*
X57642Y-27015D01*
X57561Y-26960D01*
X57471Y-26922D01*
X57375Y-26903D01*
X57277Y-26902D01*
X57181Y-26920D01*
X57090Y-26957D01*
X57008Y-27010D01*
X56938Y-27079D01*
X56883Y-27160D01*
X56845Y-27250D01*
X56824Y-27345D01*
X56823Y-27443D01*
X56841Y-27539D01*
X56877Y-27630D01*
X56930Y-27712D01*
X56997Y-27783D01*
X57078Y-27839D01*
X57167Y-27878D01*
X57263Y-27899D01*
X57361Y-27901D01*
X57457Y-27884D01*
X57548Y-27848D01*
X57631Y-27796D01*
X57702Y-27729D01*
X57758Y-27649D01*
X57798Y-27559D01*
X57820Y-27464D01*
X57821Y-27352D01*
X57821Y-27987D01*
X57730Y-28003D01*
X57617Y-28046D01*
X57587Y-28062D01*
X57537Y-28147D01*
X57893Y-28503D01*
X58250Y-28147D01*
X58250Y-28344D01*
X57992Y-28602D01*
X58348Y-28959D01*
X58359Y-28952D01*
X58359Y-30304D01*
M02*
