G04 (created by PCBNEW (2013-07-07 BZR 4022)-stable) date 31/01/2014 10:37:56 PM*
%MOIN*%
G04 Gerber Fmt 3.4, Leading zero omitted, Abs format*
%FSLAX34Y34*%
G01*
G70*
G90*
G04 APERTURE LIST*
%ADD10C,0.00590551*%
%ADD11C,0.00492126*%
%ADD12C,0.006*%
%ADD13C,0.0039*%
%ADD14C,0.008*%
%ADD15C,0.005*%
%ADD16C,0.0043*%
G04 APERTURE END LIST*
G54D10*
G54D11*
X57916Y-29307D02*
X57944Y-29316D01*
X57953Y-29326D01*
X57963Y-29344D01*
X57963Y-29372D01*
X57953Y-29391D01*
X57944Y-29401D01*
X57925Y-29410D01*
X57850Y-29410D01*
X57850Y-29213D01*
X57916Y-29213D01*
X57934Y-29222D01*
X57944Y-29232D01*
X57953Y-29251D01*
X57953Y-29269D01*
X57944Y-29288D01*
X57934Y-29297D01*
X57916Y-29307D01*
X57850Y-29307D01*
X58019Y-29213D02*
X58131Y-29213D01*
X58075Y-29410D02*
X58075Y-29213D01*
X58300Y-29410D02*
X58188Y-29410D01*
X58244Y-29410D02*
X58244Y-29213D01*
X58225Y-29241D01*
X58206Y-29260D01*
X58188Y-29269D01*
G54D10*
X57847Y-27442D02*
X57922Y-27442D01*
X57960Y-27461D01*
X57997Y-27499D01*
X58016Y-27574D01*
X58016Y-27705D01*
X57997Y-27780D01*
X57960Y-27817D01*
X57922Y-27836D01*
X57847Y-27836D01*
X57810Y-27817D01*
X57772Y-27780D01*
X57754Y-27705D01*
X57754Y-27574D01*
X57772Y-27499D01*
X57810Y-27461D01*
X57847Y-27442D01*
X58128Y-27574D02*
X58278Y-27574D01*
X58185Y-27836D02*
X58185Y-27499D01*
X58203Y-27461D01*
X58241Y-27442D01*
X58278Y-27442D01*
X58353Y-27574D02*
X58503Y-27574D01*
X58410Y-27836D02*
X58410Y-27499D01*
X58428Y-27461D01*
X58466Y-27442D01*
X58503Y-27442D01*
X57855Y-24450D02*
X57930Y-24450D01*
X57967Y-24469D01*
X58005Y-24506D01*
X58023Y-24581D01*
X58023Y-24713D01*
X58005Y-24788D01*
X57967Y-24825D01*
X57930Y-24844D01*
X57855Y-24844D01*
X57817Y-24825D01*
X57780Y-24788D01*
X57761Y-24713D01*
X57761Y-24581D01*
X57780Y-24506D01*
X57817Y-24469D01*
X57855Y-24450D01*
X58192Y-24581D02*
X58192Y-24844D01*
X58192Y-24619D02*
X58211Y-24600D01*
X58248Y-24581D01*
X58305Y-24581D01*
X58342Y-24600D01*
X58361Y-24638D01*
X58361Y-24844D01*
G54D12*
X43727Y-24870D02*
X43727Y-25320D01*
X41547Y-24870D02*
X41547Y-25310D01*
X43727Y-24870D02*
X41547Y-24870D01*
X44197Y-25750D02*
X44627Y-25750D01*
X44207Y-27960D02*
X44627Y-27960D01*
X44627Y-27970D02*
X44637Y-25750D01*
X40657Y-27950D02*
X40647Y-25780D01*
X41347Y-28380D02*
X44177Y-28380D01*
X40657Y-25770D02*
X41067Y-25770D01*
X41107Y-28130D02*
X41107Y-25350D01*
X44187Y-25330D02*
X41147Y-25330D01*
X44187Y-28380D02*
X44187Y-25380D01*
X41517Y-28830D02*
X43737Y-28830D01*
X43737Y-28830D02*
X43737Y-28380D01*
X41337Y-28376D02*
X41107Y-28146D01*
X41517Y-28828D02*
X41517Y-28376D01*
X41107Y-27950D02*
X40655Y-27950D01*
X41700Y-27968D02*
G75*
G03X41700Y-27968I-188J0D01*
G74*
G01*
G54D13*
X39798Y-28405D02*
G75*
G03X39798Y-28405I-50J0D01*
G74*
G01*
X39748Y-27955D02*
X39748Y-28355D01*
X39748Y-28355D02*
X39148Y-28355D01*
X39148Y-28355D02*
X39148Y-27955D01*
X39148Y-27555D02*
X39148Y-27155D01*
X39148Y-27155D02*
X39748Y-27155D01*
X39748Y-27155D02*
X39748Y-27555D01*
X33180Y-23995D02*
G75*
G03X33180Y-23995I-50J0D01*
G74*
G01*
X32680Y-23995D02*
X33080Y-23995D01*
X33080Y-23995D02*
X33080Y-24595D01*
X33080Y-24595D02*
X32680Y-24595D01*
X32280Y-24595D02*
X31880Y-24595D01*
X31880Y-24595D02*
X31880Y-23995D01*
X31880Y-23995D02*
X32280Y-23995D01*
X31507Y-22656D02*
G75*
G03X31507Y-22656I-50J0D01*
G74*
G01*
X31007Y-22656D02*
X31407Y-22656D01*
X31407Y-22656D02*
X31407Y-23256D01*
X31407Y-23256D02*
X31007Y-23256D01*
X30607Y-23256D02*
X30207Y-23256D01*
X30207Y-23256D02*
X30207Y-22656D01*
X30207Y-22656D02*
X30607Y-22656D01*
X31507Y-23995D02*
G75*
G03X31507Y-23995I-50J0D01*
G74*
G01*
X31007Y-23995D02*
X31407Y-23995D01*
X31407Y-23995D02*
X31407Y-24595D01*
X31407Y-24595D02*
X31007Y-24595D01*
X30607Y-24595D02*
X30207Y-24595D01*
X30207Y-24595D02*
X30207Y-23995D01*
X30207Y-23995D02*
X30607Y-23995D01*
X44995Y-30256D02*
G75*
G03X44995Y-30256I-50J0D01*
G74*
G01*
X44945Y-29806D02*
X44945Y-30206D01*
X44945Y-30206D02*
X44345Y-30206D01*
X44345Y-30206D02*
X44345Y-29806D01*
X44345Y-29406D02*
X44345Y-29006D01*
X44345Y-29006D02*
X44945Y-29006D01*
X44945Y-29006D02*
X44945Y-29406D01*
X54046Y-24266D02*
G75*
G03X54046Y-24266I-50J0D01*
G74*
G01*
X53546Y-24266D02*
X53946Y-24266D01*
X53946Y-24266D02*
X53946Y-24866D01*
X53946Y-24866D02*
X53546Y-24866D01*
X53146Y-24866D02*
X52746Y-24866D01*
X52746Y-24866D02*
X52746Y-24266D01*
X52746Y-24266D02*
X53146Y-24266D01*
X55581Y-24266D02*
G75*
G03X55581Y-24266I-50J0D01*
G74*
G01*
X55081Y-24266D02*
X55481Y-24266D01*
X55481Y-24266D02*
X55481Y-24866D01*
X55481Y-24866D02*
X55081Y-24866D01*
X54681Y-24866D02*
X54281Y-24866D01*
X54281Y-24866D02*
X54281Y-24266D01*
X54281Y-24266D02*
X54681Y-24266D01*
X54046Y-25172D02*
G75*
G03X54046Y-25172I-50J0D01*
G74*
G01*
X53546Y-25172D02*
X53946Y-25172D01*
X53946Y-25172D02*
X53946Y-25772D01*
X53946Y-25772D02*
X53546Y-25772D01*
X53146Y-25772D02*
X52746Y-25772D01*
X52746Y-25772D02*
X52746Y-25172D01*
X52746Y-25172D02*
X53146Y-25172D01*
X54597Y-27692D02*
G75*
G03X54597Y-27692I-50J0D01*
G74*
G01*
X54097Y-27692D02*
X54497Y-27692D01*
X54497Y-27692D02*
X54497Y-28292D01*
X54497Y-28292D02*
X54097Y-28292D01*
X53697Y-28292D02*
X53297Y-28292D01*
X53297Y-28292D02*
X53297Y-27692D01*
X53297Y-27692D02*
X53697Y-27692D01*
X50069Y-30103D02*
G75*
G03X50069Y-30103I-50J0D01*
G74*
G01*
X50469Y-30103D02*
X50069Y-30103D01*
X50069Y-30103D02*
X50069Y-29503D01*
X50069Y-29503D02*
X50469Y-29503D01*
X50869Y-29503D02*
X51269Y-29503D01*
X51269Y-29503D02*
X51269Y-30103D01*
X51269Y-30103D02*
X50869Y-30103D01*
X39798Y-30020D02*
G75*
G03X39798Y-30020I-50J0D01*
G74*
G01*
X39748Y-29570D02*
X39748Y-29970D01*
X39748Y-29970D02*
X39148Y-29970D01*
X39148Y-29970D02*
X39148Y-29570D01*
X39148Y-29170D02*
X39148Y-28770D01*
X39148Y-28770D02*
X39748Y-28770D01*
X39748Y-28770D02*
X39748Y-29170D01*
X39198Y-25491D02*
G75*
G03X39198Y-25491I-50J0D01*
G74*
G01*
X39148Y-25941D02*
X39148Y-25541D01*
X39148Y-25541D02*
X39748Y-25541D01*
X39748Y-25541D02*
X39748Y-25941D01*
X39748Y-26341D02*
X39748Y-26741D01*
X39748Y-26741D02*
X39148Y-26741D01*
X39148Y-26741D02*
X39148Y-26341D01*
X43416Y-29581D02*
G75*
G03X43416Y-29581I-50J0D01*
G74*
G01*
X42916Y-29581D02*
X43316Y-29581D01*
X43316Y-29581D02*
X43316Y-30181D01*
X43316Y-30181D02*
X42916Y-30181D01*
X42516Y-30181D02*
X42116Y-30181D01*
X42116Y-30181D02*
X42116Y-29581D01*
X42116Y-29581D02*
X42516Y-29581D01*
X40424Y-24148D02*
G75*
G03X40424Y-24148I-50J0D01*
G74*
G01*
X39924Y-24148D02*
X40324Y-24148D01*
X40324Y-24148D02*
X40324Y-24748D01*
X40324Y-24748D02*
X39924Y-24748D01*
X39524Y-24748D02*
X39124Y-24748D01*
X39124Y-24748D02*
X39124Y-24148D01*
X39124Y-24148D02*
X39524Y-24148D01*
X37624Y-23523D02*
G75*
G03X37624Y-23523I-50J0D01*
G74*
G01*
X37574Y-23973D02*
X37574Y-23573D01*
X37574Y-23573D02*
X38174Y-23573D01*
X38174Y-23573D02*
X38174Y-23973D01*
X38174Y-24373D02*
X38174Y-24773D01*
X38174Y-24773D02*
X37574Y-24773D01*
X37574Y-24773D02*
X37574Y-24373D01*
X33180Y-22656D02*
G75*
G03X33180Y-22656I-50J0D01*
G74*
G01*
X32680Y-22656D02*
X33080Y-22656D01*
X33080Y-22656D02*
X33080Y-23256D01*
X33080Y-23256D02*
X32680Y-23256D01*
X32280Y-23256D02*
X31880Y-23256D01*
X31880Y-23256D02*
X31880Y-22656D01*
X31880Y-22656D02*
X32280Y-22656D01*
X42707Y-23676D02*
G75*
G03X42707Y-23676I-50J0D01*
G74*
G01*
X42207Y-23676D02*
X42607Y-23676D01*
X42607Y-23676D02*
X42607Y-24276D01*
X42607Y-24276D02*
X42207Y-24276D01*
X41807Y-24276D02*
X41407Y-24276D01*
X41407Y-24276D02*
X41407Y-23676D01*
X41407Y-23676D02*
X41807Y-23676D01*
X42903Y-24276D02*
G75*
G03X42903Y-24276I-50J0D01*
G74*
G01*
X43303Y-24276D02*
X42903Y-24276D01*
X42903Y-24276D02*
X42903Y-23676D01*
X42903Y-23676D02*
X43303Y-23676D01*
X43703Y-23676D02*
X44103Y-23676D01*
X44103Y-23676D02*
X44103Y-24276D01*
X44103Y-24276D02*
X43703Y-24276D01*
X55458Y-26475D02*
G75*
G03X55458Y-26475I-50J0D01*
G74*
G01*
X55408Y-26925D02*
X55408Y-26525D01*
X55408Y-26525D02*
X56008Y-26525D01*
X56008Y-26525D02*
X56008Y-26925D01*
X56008Y-27325D02*
X56008Y-27725D01*
X56008Y-27725D02*
X55408Y-27725D01*
X55408Y-27725D02*
X55408Y-27325D01*
X44474Y-23601D02*
G75*
G03X44474Y-23601I-50J0D01*
G74*
G01*
X44424Y-24051D02*
X44424Y-23651D01*
X44424Y-23651D02*
X45024Y-23651D01*
X45024Y-23651D02*
X45024Y-24051D01*
X45024Y-24451D02*
X45024Y-24851D01*
X45024Y-24851D02*
X44424Y-24851D01*
X44424Y-24851D02*
X44424Y-24451D01*
X46053Y-29985D02*
G75*
G03X46053Y-29985I-50J0D01*
G74*
G01*
X46453Y-29985D02*
X46053Y-29985D01*
X46053Y-29985D02*
X46053Y-29385D01*
X46053Y-29385D02*
X46453Y-29385D01*
X46853Y-29385D02*
X47253Y-29385D01*
X47253Y-29385D02*
X47253Y-29985D01*
X47253Y-29985D02*
X46853Y-29985D01*
X51285Y-21790D02*
G75*
G03X51285Y-21790I-50J0D01*
G74*
G01*
X51235Y-22240D02*
X51235Y-21840D01*
X51235Y-21840D02*
X51835Y-21840D01*
X51835Y-21840D02*
X51835Y-22240D01*
X51835Y-22640D02*
X51835Y-23040D01*
X51835Y-23040D02*
X51235Y-23040D01*
X51235Y-23040D02*
X51235Y-22640D01*
X50104Y-21790D02*
G75*
G03X50104Y-21790I-50J0D01*
G74*
G01*
X50054Y-22240D02*
X50054Y-21840D01*
X50054Y-21840D02*
X50654Y-21840D01*
X50654Y-21840D02*
X50654Y-22240D01*
X50654Y-22640D02*
X50654Y-23040D01*
X50654Y-23040D02*
X50054Y-23040D01*
X50054Y-23040D02*
X50054Y-22640D01*
X46294Y-28720D02*
G75*
G03X46294Y-28720I-50J0D01*
G74*
G01*
X46244Y-28270D02*
X46244Y-28670D01*
X46244Y-28670D02*
X45644Y-28670D01*
X45644Y-28670D02*
X45644Y-28270D01*
X45644Y-27870D02*
X45644Y-27470D01*
X45644Y-27470D02*
X46244Y-27470D01*
X46244Y-27470D02*
X46244Y-27870D01*
X45694Y-25727D02*
G75*
G03X45694Y-25727I-50J0D01*
G74*
G01*
X45644Y-26177D02*
X45644Y-25777D01*
X45644Y-25777D02*
X46244Y-25777D01*
X46244Y-25777D02*
X46244Y-26177D01*
X46244Y-26577D02*
X46244Y-26977D01*
X46244Y-26977D02*
X45644Y-26977D01*
X45644Y-26977D02*
X45644Y-26577D01*
X46294Y-24901D02*
G75*
G03X46294Y-24901I-50J0D01*
G74*
G01*
X46244Y-24451D02*
X46244Y-24851D01*
X46244Y-24851D02*
X45644Y-24851D01*
X45644Y-24851D02*
X45644Y-24451D01*
X45644Y-24051D02*
X45644Y-23651D01*
X45644Y-23651D02*
X46244Y-23651D01*
X46244Y-23651D02*
X46244Y-24051D01*
X46368Y-22859D02*
G75*
G03X46368Y-22859I-50J0D01*
G74*
G01*
X46768Y-22859D02*
X46368Y-22859D01*
X46368Y-22859D02*
X46368Y-22259D01*
X46368Y-22259D02*
X46768Y-22259D01*
X47168Y-22259D02*
X47568Y-22259D01*
X47568Y-22259D02*
X47568Y-22859D01*
X47568Y-22859D02*
X47168Y-22859D01*
X40458Y-28720D02*
G75*
G03X40458Y-28720I-50J0D01*
G74*
G01*
X40408Y-29170D02*
X40408Y-28770D01*
X40408Y-28770D02*
X41008Y-28770D01*
X41008Y-28770D02*
X41008Y-29170D01*
X41008Y-29570D02*
X41008Y-29970D01*
X41008Y-29970D02*
X40408Y-29970D01*
X40408Y-29970D02*
X40408Y-29570D01*
G54D14*
X56460Y-23637D02*
X53460Y-23637D01*
X53460Y-21637D02*
X56460Y-21637D01*
X56460Y-21637D02*
X56460Y-23637D01*
X53460Y-23637D02*
X53460Y-21637D01*
G54D10*
X50393Y-24291D02*
X50393Y-23937D01*
X50393Y-25078D02*
X50393Y-24763D01*
X50393Y-25866D02*
X50393Y-25551D01*
X50393Y-26653D02*
X50393Y-26338D01*
X47637Y-24291D02*
X47637Y-23937D01*
X47637Y-25078D02*
X47637Y-24763D01*
X47637Y-25866D02*
X47637Y-25551D01*
X47637Y-26653D02*
X47637Y-26338D01*
X50393Y-27440D02*
X50393Y-27125D01*
X50393Y-28267D02*
X50393Y-27913D01*
X47637Y-27440D02*
X47637Y-27125D01*
X47637Y-28267D02*
X47637Y-27913D01*
X47637Y-28267D02*
X50393Y-28267D01*
X50393Y-23937D02*
X47637Y-23937D01*
X44881Y-21456D02*
X44881Y-21968D01*
X44881Y-21456D02*
X40393Y-21456D01*
X40393Y-21456D02*
X40393Y-21968D01*
X44881Y-23346D02*
X40393Y-23346D01*
X40393Y-23346D02*
X40393Y-22834D01*
X44881Y-23346D02*
X44881Y-22834D01*
G54D15*
X54606Y-25230D02*
X55306Y-25230D01*
X55306Y-25230D02*
X55306Y-26430D01*
X55306Y-26430D02*
X54606Y-26430D01*
X54606Y-26430D02*
X54606Y-25230D01*
G54D10*
X35433Y-22972D02*
X37795Y-22972D01*
X37795Y-22972D02*
X37795Y-22775D01*
X35433Y-22775D02*
X35433Y-22972D01*
X35433Y-21594D02*
X35433Y-21791D01*
X35433Y-21594D02*
X37795Y-21594D01*
X37795Y-21594D02*
X37795Y-21791D01*
X35433Y-26673D02*
X37795Y-26673D01*
X37795Y-26673D02*
X37795Y-26476D01*
X35433Y-26476D02*
X35433Y-26673D01*
X35433Y-25295D02*
X35433Y-25492D01*
X35433Y-25295D02*
X37795Y-25295D01*
X37795Y-25295D02*
X37795Y-25492D01*
X35433Y-29429D02*
X37795Y-29429D01*
X37795Y-29429D02*
X37795Y-29232D01*
X35433Y-29232D02*
X35433Y-29429D01*
X35433Y-28051D02*
X35433Y-28248D01*
X35433Y-28051D02*
X37795Y-28051D01*
X37795Y-28051D02*
X37795Y-28248D01*
G54D11*
X40814Y-25059D02*
X40814Y-25219D01*
X40823Y-25238D01*
X40833Y-25247D01*
X40852Y-25256D01*
X40889Y-25256D01*
X40908Y-25247D01*
X40917Y-25238D01*
X40927Y-25219D01*
X40927Y-25059D01*
X41002Y-25059D02*
X41123Y-25059D01*
X41058Y-25134D01*
X41086Y-25134D01*
X41105Y-25144D01*
X41114Y-25153D01*
X41123Y-25172D01*
X41123Y-25219D01*
X41114Y-25238D01*
X41105Y-25247D01*
X41086Y-25256D01*
X41030Y-25256D01*
X41011Y-25247D01*
X41002Y-25238D01*
X54534Y-27166D02*
X54440Y-27166D01*
X54440Y-26969D01*
X54702Y-27166D02*
X54590Y-27166D01*
X54646Y-27166D02*
X54646Y-26969D01*
X54627Y-26997D01*
X54609Y-27016D01*
X54590Y-27025D01*
G54D16*
X39037Y-27788D02*
X39046Y-27798D01*
X39056Y-27826D01*
X39056Y-27845D01*
X39046Y-27873D01*
X39027Y-27891D01*
X39009Y-27901D01*
X38971Y-27910D01*
X38943Y-27910D01*
X38906Y-27901D01*
X38887Y-27891D01*
X38868Y-27873D01*
X38859Y-27845D01*
X38859Y-27826D01*
X38868Y-27798D01*
X38877Y-27788D01*
X38877Y-27713D02*
X38868Y-27704D01*
X38859Y-27685D01*
X38859Y-27638D01*
X38868Y-27619D01*
X38877Y-27610D01*
X38896Y-27601D01*
X38915Y-27601D01*
X38943Y-27610D01*
X39056Y-27723D01*
X39056Y-27601D01*
X32353Y-24906D02*
X32288Y-24812D01*
X32241Y-24906D02*
X32241Y-24709D01*
X32316Y-24709D01*
X32334Y-24718D01*
X32344Y-24728D01*
X32353Y-24747D01*
X32353Y-24775D01*
X32344Y-24793D01*
X32334Y-24803D01*
X32316Y-24812D01*
X32241Y-24812D01*
X32541Y-24906D02*
X32428Y-24906D01*
X32485Y-24906D02*
X32485Y-24709D01*
X32466Y-24737D01*
X32447Y-24756D01*
X32428Y-24765D01*
X32710Y-24709D02*
X32672Y-24709D01*
X32653Y-24718D01*
X32644Y-24728D01*
X32625Y-24756D01*
X32616Y-24793D01*
X32616Y-24868D01*
X32625Y-24887D01*
X32635Y-24897D01*
X32653Y-24906D01*
X32691Y-24906D01*
X32710Y-24897D01*
X32719Y-24887D01*
X32728Y-24868D01*
X32728Y-24822D01*
X32719Y-24803D01*
X32710Y-24793D01*
X32691Y-24784D01*
X32653Y-24784D01*
X32635Y-24793D01*
X32625Y-24803D01*
X32616Y-24822D01*
X30661Y-23567D02*
X30661Y-23370D01*
X30708Y-23370D01*
X30736Y-23380D01*
X30755Y-23399D01*
X30764Y-23417D01*
X30774Y-23455D01*
X30774Y-23483D01*
X30764Y-23521D01*
X30755Y-23539D01*
X30736Y-23558D01*
X30708Y-23567D01*
X30661Y-23567D01*
X30961Y-23567D02*
X30849Y-23567D01*
X30905Y-23567D02*
X30905Y-23370D01*
X30886Y-23399D01*
X30868Y-23417D01*
X30849Y-23427D01*
X30661Y-24906D02*
X30661Y-24709D01*
X30708Y-24709D01*
X30736Y-24718D01*
X30755Y-24737D01*
X30764Y-24756D01*
X30774Y-24793D01*
X30774Y-24822D01*
X30764Y-24859D01*
X30755Y-24878D01*
X30736Y-24897D01*
X30708Y-24906D01*
X30661Y-24906D01*
X30849Y-24728D02*
X30858Y-24718D01*
X30877Y-24709D01*
X30924Y-24709D01*
X30943Y-24718D01*
X30952Y-24728D01*
X30961Y-24747D01*
X30961Y-24765D01*
X30952Y-24793D01*
X30839Y-24906D01*
X30961Y-24906D01*
X44612Y-30512D02*
X44547Y-30418D01*
X44500Y-30512D02*
X44500Y-30315D01*
X44575Y-30315D01*
X44594Y-30325D01*
X44603Y-30334D01*
X44612Y-30353D01*
X44612Y-30381D01*
X44603Y-30400D01*
X44594Y-30409D01*
X44575Y-30418D01*
X44500Y-30418D01*
X44781Y-30381D02*
X44781Y-30512D01*
X44734Y-30306D02*
X44687Y-30447D01*
X44809Y-30447D01*
X53317Y-24130D02*
X53251Y-24037D01*
X53204Y-24130D02*
X53204Y-23933D01*
X53280Y-23933D01*
X53298Y-23943D01*
X53308Y-23952D01*
X53317Y-23971D01*
X53317Y-23999D01*
X53308Y-24018D01*
X53298Y-24027D01*
X53280Y-24037D01*
X53204Y-24037D01*
X53505Y-24130D02*
X53392Y-24130D01*
X53448Y-24130D02*
X53448Y-23933D01*
X53430Y-23962D01*
X53411Y-23980D01*
X53392Y-23990D01*
X54852Y-24130D02*
X54787Y-24037D01*
X54740Y-24130D02*
X54740Y-23933D01*
X54815Y-23933D01*
X54834Y-23943D01*
X54843Y-23952D01*
X54852Y-23971D01*
X54852Y-23999D01*
X54843Y-24018D01*
X54834Y-24027D01*
X54815Y-24037D01*
X54740Y-24037D01*
X54928Y-23952D02*
X54937Y-23943D01*
X54956Y-23933D01*
X55003Y-23933D01*
X55021Y-23943D01*
X55031Y-23952D01*
X55040Y-23971D01*
X55040Y-23990D01*
X55031Y-24018D01*
X54918Y-24130D01*
X55040Y-24130D01*
X53317Y-26080D02*
X53308Y-26090D01*
X53280Y-26099D01*
X53261Y-26099D01*
X53233Y-26090D01*
X53214Y-26071D01*
X53204Y-26052D01*
X53195Y-26014D01*
X53195Y-25986D01*
X53204Y-25949D01*
X53214Y-25930D01*
X53233Y-25911D01*
X53261Y-25902D01*
X53280Y-25902D01*
X53308Y-25911D01*
X53317Y-25921D01*
X53383Y-25902D02*
X53505Y-25902D01*
X53439Y-25977D01*
X53467Y-25977D01*
X53486Y-25986D01*
X53495Y-25996D01*
X53505Y-26014D01*
X53505Y-26061D01*
X53495Y-26080D01*
X53486Y-26090D01*
X53467Y-26099D01*
X53411Y-26099D01*
X53392Y-26090D01*
X53383Y-26080D01*
X53868Y-28600D02*
X53859Y-28609D01*
X53831Y-28619D01*
X53812Y-28619D01*
X53784Y-28609D01*
X53765Y-28590D01*
X53756Y-28572D01*
X53746Y-28534D01*
X53746Y-28506D01*
X53756Y-28469D01*
X53765Y-28450D01*
X53784Y-28431D01*
X53812Y-28422D01*
X53831Y-28422D01*
X53859Y-28431D01*
X53868Y-28440D01*
X54037Y-28487D02*
X54037Y-28619D01*
X53990Y-28412D02*
X53943Y-28553D01*
X54065Y-28553D01*
X50542Y-30394D02*
X50476Y-30300D01*
X50430Y-30394D02*
X50430Y-30197D01*
X50505Y-30197D01*
X50523Y-30207D01*
X50533Y-30216D01*
X50542Y-30235D01*
X50542Y-30263D01*
X50533Y-30282D01*
X50523Y-30291D01*
X50505Y-30300D01*
X50430Y-30300D01*
X50730Y-30394D02*
X50617Y-30394D01*
X50673Y-30394D02*
X50673Y-30197D01*
X50655Y-30225D01*
X50636Y-30244D01*
X50617Y-30253D01*
X50899Y-30263D02*
X50899Y-30394D01*
X50852Y-30188D02*
X50805Y-30329D01*
X50927Y-30329D01*
X39037Y-29402D02*
X39046Y-29412D01*
X39056Y-29440D01*
X39056Y-29459D01*
X39046Y-29487D01*
X39027Y-29506D01*
X39009Y-29515D01*
X38971Y-29524D01*
X38943Y-29524D01*
X38906Y-29515D01*
X38887Y-29506D01*
X38868Y-29487D01*
X38859Y-29459D01*
X38859Y-29440D01*
X38868Y-29412D01*
X38877Y-29402D01*
X38859Y-29224D02*
X38859Y-29318D01*
X38952Y-29327D01*
X38943Y-29318D01*
X38934Y-29299D01*
X38934Y-29252D01*
X38943Y-29234D01*
X38952Y-29224D01*
X38971Y-29215D01*
X39018Y-29215D01*
X39037Y-29224D01*
X39046Y-29234D01*
X39056Y-29252D01*
X39056Y-29299D01*
X39046Y-29318D01*
X39037Y-29327D01*
X39056Y-26174D02*
X38962Y-26240D01*
X39056Y-26287D02*
X38859Y-26287D01*
X38859Y-26212D01*
X38868Y-26193D01*
X38877Y-26183D01*
X38896Y-26174D01*
X38924Y-26174D01*
X38943Y-26183D01*
X38952Y-26193D01*
X38962Y-26212D01*
X38962Y-26287D01*
X38859Y-26108D02*
X38859Y-25986D01*
X38934Y-26052D01*
X38934Y-26024D01*
X38943Y-26005D01*
X38952Y-25996D01*
X38971Y-25986D01*
X39018Y-25986D01*
X39037Y-25996D01*
X39046Y-26005D01*
X39056Y-26024D01*
X39056Y-26080D01*
X39046Y-26099D01*
X39037Y-26108D01*
X42683Y-30512D02*
X42618Y-30418D01*
X42571Y-30512D02*
X42571Y-30315D01*
X42646Y-30315D01*
X42664Y-30325D01*
X42674Y-30334D01*
X42683Y-30353D01*
X42683Y-30381D01*
X42674Y-30400D01*
X42664Y-30409D01*
X42646Y-30418D01*
X42571Y-30418D01*
X42861Y-30315D02*
X42768Y-30315D01*
X42758Y-30409D01*
X42768Y-30400D01*
X42786Y-30390D01*
X42833Y-30390D01*
X42852Y-30400D01*
X42861Y-30409D01*
X42871Y-30428D01*
X42871Y-30475D01*
X42861Y-30494D01*
X42852Y-30503D01*
X42833Y-30512D01*
X42786Y-30512D01*
X42768Y-30503D01*
X42758Y-30494D01*
X39691Y-24037D02*
X39682Y-24046D01*
X39654Y-24056D01*
X39635Y-24056D01*
X39607Y-24046D01*
X39588Y-24027D01*
X39579Y-24009D01*
X39569Y-23971D01*
X39569Y-23943D01*
X39579Y-23906D01*
X39588Y-23887D01*
X39607Y-23868D01*
X39635Y-23859D01*
X39654Y-23859D01*
X39682Y-23868D01*
X39691Y-23877D01*
X39757Y-23859D02*
X39888Y-23859D01*
X39804Y-24056D01*
X37117Y-24252D02*
X37051Y-24159D01*
X37004Y-24252D02*
X37004Y-24055D01*
X37079Y-24055D01*
X37098Y-24065D01*
X37108Y-24074D01*
X37117Y-24093D01*
X37117Y-24121D01*
X37108Y-24140D01*
X37098Y-24149D01*
X37079Y-24159D01*
X37004Y-24159D01*
X37305Y-24252D02*
X37192Y-24252D01*
X37248Y-24252D02*
X37248Y-24055D01*
X37230Y-24084D01*
X37211Y-24102D01*
X37192Y-24112D01*
X37380Y-24074D02*
X37389Y-24065D01*
X37408Y-24055D01*
X37455Y-24055D01*
X37473Y-24065D01*
X37483Y-24074D01*
X37492Y-24093D01*
X37492Y-24112D01*
X37483Y-24140D01*
X37370Y-24252D01*
X37492Y-24252D01*
X32353Y-23567D02*
X32288Y-23474D01*
X32241Y-23567D02*
X32241Y-23370D01*
X32316Y-23370D01*
X32334Y-23380D01*
X32344Y-23389D01*
X32353Y-23408D01*
X32353Y-23436D01*
X32344Y-23455D01*
X32334Y-23464D01*
X32316Y-23474D01*
X32241Y-23474D01*
X32541Y-23567D02*
X32428Y-23567D01*
X32485Y-23567D02*
X32485Y-23370D01*
X32466Y-23399D01*
X32447Y-23417D01*
X32428Y-23427D01*
X32719Y-23370D02*
X32625Y-23370D01*
X32616Y-23464D01*
X32625Y-23455D01*
X32644Y-23445D01*
X32691Y-23445D01*
X32710Y-23455D01*
X32719Y-23464D01*
X32728Y-23483D01*
X32728Y-23530D01*
X32719Y-23549D01*
X32710Y-23558D01*
X32691Y-23567D01*
X32644Y-23567D01*
X32625Y-23558D01*
X32616Y-23549D01*
X41069Y-24234D02*
X41060Y-24243D01*
X41032Y-24252D01*
X41013Y-24252D01*
X40985Y-24243D01*
X40966Y-24224D01*
X40956Y-24206D01*
X40947Y-24168D01*
X40947Y-24140D01*
X40956Y-24102D01*
X40966Y-24084D01*
X40985Y-24065D01*
X41013Y-24055D01*
X41032Y-24055D01*
X41060Y-24065D01*
X41069Y-24074D01*
X41163Y-24252D02*
X41200Y-24252D01*
X41219Y-24243D01*
X41229Y-24234D01*
X41247Y-24206D01*
X41257Y-24168D01*
X41257Y-24093D01*
X41247Y-24074D01*
X41238Y-24065D01*
X41219Y-24055D01*
X41182Y-24055D01*
X41163Y-24065D01*
X41153Y-24074D01*
X41144Y-24093D01*
X41144Y-24140D01*
X41153Y-24159D01*
X41163Y-24168D01*
X41182Y-24177D01*
X41219Y-24177D01*
X41238Y-24168D01*
X41247Y-24159D01*
X41257Y-24140D01*
X43076Y-24748D02*
X43086Y-24758D01*
X43095Y-24786D01*
X43095Y-24804D01*
X43086Y-24833D01*
X43067Y-24851D01*
X43048Y-24861D01*
X43011Y-24870D01*
X42982Y-24870D01*
X42945Y-24861D01*
X42926Y-24851D01*
X42907Y-24833D01*
X42898Y-24804D01*
X42898Y-24786D01*
X42907Y-24758D01*
X42917Y-24748D01*
X43095Y-24561D02*
X43095Y-24673D01*
X43095Y-24617D02*
X42898Y-24617D01*
X42926Y-24636D01*
X42945Y-24654D01*
X42954Y-24673D01*
X42898Y-24439D02*
X42898Y-24420D01*
X42907Y-24401D01*
X42917Y-24392D01*
X42936Y-24382D01*
X42973Y-24373D01*
X43020Y-24373D01*
X43057Y-24382D01*
X43076Y-24392D01*
X43086Y-24401D01*
X43095Y-24420D01*
X43095Y-24439D01*
X43086Y-24457D01*
X43076Y-24467D01*
X43057Y-24476D01*
X43020Y-24486D01*
X42973Y-24486D01*
X42936Y-24476D01*
X42917Y-24467D01*
X42907Y-24457D01*
X42898Y-24439D01*
G54D11*
X56305Y-27698D02*
X56296Y-27708D01*
X56268Y-27717D01*
X56249Y-27717D01*
X56221Y-27708D01*
X56202Y-27689D01*
X56193Y-27670D01*
X56183Y-27633D01*
X56183Y-27604D01*
X56193Y-27567D01*
X56202Y-27548D01*
X56221Y-27529D01*
X56249Y-27520D01*
X56268Y-27520D01*
X56296Y-27529D01*
X56305Y-27539D01*
X56493Y-27717D02*
X56380Y-27717D01*
X56437Y-27717D02*
X56437Y-27520D01*
X56418Y-27548D01*
X56399Y-27567D01*
X56380Y-27576D01*
G54D16*
X44652Y-25179D02*
X44642Y-25188D01*
X44614Y-25197D01*
X44595Y-25197D01*
X44567Y-25188D01*
X44549Y-25169D01*
X44539Y-25150D01*
X44530Y-25113D01*
X44530Y-25085D01*
X44539Y-25047D01*
X44549Y-25028D01*
X44567Y-25010D01*
X44595Y-25000D01*
X44614Y-25000D01*
X44642Y-25010D01*
X44652Y-25019D01*
X44764Y-25085D02*
X44746Y-25075D01*
X44736Y-25066D01*
X44727Y-25047D01*
X44727Y-25038D01*
X44736Y-25019D01*
X44746Y-25010D01*
X44764Y-25000D01*
X44802Y-25000D01*
X44821Y-25010D01*
X44830Y-25019D01*
X44839Y-25038D01*
X44839Y-25047D01*
X44830Y-25066D01*
X44821Y-25075D01*
X44802Y-25085D01*
X44764Y-25085D01*
X44746Y-25094D01*
X44736Y-25104D01*
X44727Y-25122D01*
X44727Y-25160D01*
X44736Y-25179D01*
X44746Y-25188D01*
X44764Y-25197D01*
X44802Y-25197D01*
X44821Y-25188D01*
X44830Y-25179D01*
X44839Y-25160D01*
X44839Y-25122D01*
X44830Y-25104D01*
X44821Y-25094D01*
X44802Y-25085D01*
X46620Y-30276D02*
X46555Y-30182D01*
X46508Y-30276D02*
X46508Y-30079D01*
X46583Y-30079D01*
X46601Y-30088D01*
X46611Y-30098D01*
X46620Y-30117D01*
X46620Y-30145D01*
X46611Y-30164D01*
X46601Y-30173D01*
X46583Y-30182D01*
X46508Y-30182D01*
X46789Y-30079D02*
X46752Y-30079D01*
X46733Y-30088D01*
X46723Y-30098D01*
X46705Y-30126D01*
X46695Y-30164D01*
X46695Y-30239D01*
X46705Y-30257D01*
X46714Y-30267D01*
X46733Y-30276D01*
X46770Y-30276D01*
X46789Y-30267D01*
X46798Y-30257D01*
X46808Y-30239D01*
X46808Y-30192D01*
X46798Y-30173D01*
X46789Y-30164D01*
X46770Y-30154D01*
X46733Y-30154D01*
X46714Y-30164D01*
X46705Y-30173D01*
X46695Y-30192D01*
X51502Y-23347D02*
X51436Y-23253D01*
X51390Y-23347D02*
X51390Y-23150D01*
X51465Y-23150D01*
X51483Y-23159D01*
X51493Y-23169D01*
X51502Y-23187D01*
X51502Y-23216D01*
X51493Y-23234D01*
X51483Y-23244D01*
X51465Y-23253D01*
X51390Y-23253D01*
X51568Y-23150D02*
X51699Y-23150D01*
X51615Y-23347D01*
X50321Y-23347D02*
X50255Y-23253D01*
X50208Y-23347D02*
X50208Y-23150D01*
X50283Y-23150D01*
X50302Y-23159D01*
X50312Y-23169D01*
X50321Y-23187D01*
X50321Y-23216D01*
X50312Y-23234D01*
X50302Y-23244D01*
X50283Y-23253D01*
X50208Y-23253D01*
X50434Y-23234D02*
X50415Y-23225D01*
X50405Y-23216D01*
X50396Y-23197D01*
X50396Y-23187D01*
X50405Y-23169D01*
X50415Y-23159D01*
X50434Y-23150D01*
X50471Y-23150D01*
X50490Y-23159D01*
X50499Y-23169D01*
X50509Y-23187D01*
X50509Y-23197D01*
X50499Y-23216D01*
X50490Y-23225D01*
X50471Y-23234D01*
X50434Y-23234D01*
X50415Y-23244D01*
X50405Y-23253D01*
X50396Y-23272D01*
X50396Y-23309D01*
X50405Y-23328D01*
X50415Y-23338D01*
X50434Y-23347D01*
X50471Y-23347D01*
X50490Y-23338D01*
X50499Y-23328D01*
X50509Y-23309D01*
X50509Y-23272D01*
X50499Y-23253D01*
X50490Y-23244D01*
X50471Y-23234D01*
X45552Y-28103D02*
X45458Y-28169D01*
X45552Y-28216D02*
X45355Y-28216D01*
X45355Y-28141D01*
X45364Y-28122D01*
X45373Y-28113D01*
X45392Y-28103D01*
X45420Y-28103D01*
X45439Y-28113D01*
X45448Y-28122D01*
X45458Y-28141D01*
X45458Y-28216D01*
X45552Y-28009D02*
X45552Y-27972D01*
X45542Y-27953D01*
X45533Y-27944D01*
X45505Y-27925D01*
X45467Y-27916D01*
X45392Y-27916D01*
X45373Y-27925D01*
X45364Y-27934D01*
X45355Y-27953D01*
X45355Y-27991D01*
X45364Y-28009D01*
X45373Y-28019D01*
X45392Y-28028D01*
X45439Y-28028D01*
X45458Y-28019D01*
X45467Y-28009D01*
X45477Y-27991D01*
X45477Y-27953D01*
X45467Y-27934D01*
X45458Y-27925D01*
X45439Y-27916D01*
X45552Y-26504D02*
X45458Y-26570D01*
X45552Y-26617D02*
X45355Y-26617D01*
X45355Y-26542D01*
X45364Y-26523D01*
X45373Y-26513D01*
X45392Y-26504D01*
X45420Y-26504D01*
X45439Y-26513D01*
X45448Y-26523D01*
X45458Y-26542D01*
X45458Y-26617D01*
X45552Y-26316D02*
X45552Y-26429D01*
X45552Y-26373D02*
X45355Y-26373D01*
X45383Y-26392D01*
X45402Y-26410D01*
X45411Y-26429D01*
X45355Y-26195D02*
X45355Y-26176D01*
X45364Y-26157D01*
X45373Y-26148D01*
X45392Y-26138D01*
X45430Y-26129D01*
X45477Y-26129D01*
X45514Y-26138D01*
X45533Y-26148D01*
X45542Y-26157D01*
X45552Y-26176D01*
X45552Y-26195D01*
X45542Y-26213D01*
X45533Y-26223D01*
X45514Y-26232D01*
X45477Y-26241D01*
X45430Y-26241D01*
X45392Y-26232D01*
X45373Y-26223D01*
X45364Y-26213D01*
X45355Y-26195D01*
X45512Y-24378D02*
X45418Y-24444D01*
X45512Y-24491D02*
X45315Y-24491D01*
X45315Y-24416D01*
X45325Y-24397D01*
X45334Y-24387D01*
X45353Y-24378D01*
X45381Y-24378D01*
X45400Y-24387D01*
X45409Y-24397D01*
X45418Y-24416D01*
X45418Y-24491D01*
X45512Y-24190D02*
X45512Y-24303D01*
X45512Y-24247D02*
X45315Y-24247D01*
X45343Y-24266D01*
X45362Y-24284D01*
X45372Y-24303D01*
X45512Y-24003D02*
X45512Y-24115D01*
X45512Y-24059D02*
X45315Y-24059D01*
X45343Y-24078D01*
X45362Y-24097D01*
X45372Y-24115D01*
X47835Y-22646D02*
X47741Y-22711D01*
X47835Y-22758D02*
X47638Y-22758D01*
X47638Y-22683D01*
X47648Y-22665D01*
X47657Y-22655D01*
X47676Y-22646D01*
X47704Y-22646D01*
X47723Y-22655D01*
X47732Y-22665D01*
X47741Y-22683D01*
X47741Y-22758D01*
X47835Y-22458D02*
X47835Y-22571D01*
X47835Y-22514D02*
X47638Y-22514D01*
X47666Y-22533D01*
X47685Y-22552D01*
X47694Y-22571D01*
X47638Y-22393D02*
X47638Y-22271D01*
X47713Y-22336D01*
X47713Y-22308D01*
X47723Y-22289D01*
X47732Y-22280D01*
X47751Y-22271D01*
X47798Y-22271D01*
X47816Y-22280D01*
X47826Y-22289D01*
X47835Y-22308D01*
X47835Y-22364D01*
X47826Y-22383D01*
X47816Y-22393D01*
X41305Y-29982D02*
X41296Y-29991D01*
X41268Y-30000D01*
X41249Y-30000D01*
X41221Y-29991D01*
X41202Y-29972D01*
X41193Y-29954D01*
X41183Y-29916D01*
X41183Y-29888D01*
X41193Y-29850D01*
X41202Y-29832D01*
X41221Y-29813D01*
X41249Y-29803D01*
X41268Y-29803D01*
X41296Y-29813D01*
X41305Y-29822D01*
X41474Y-29803D02*
X41437Y-29803D01*
X41418Y-29813D01*
X41408Y-29822D01*
X41390Y-29850D01*
X41380Y-29888D01*
X41380Y-29963D01*
X41390Y-29982D01*
X41399Y-29991D01*
X41418Y-30000D01*
X41455Y-30000D01*
X41474Y-29991D01*
X41483Y-29982D01*
X41493Y-29963D01*
X41493Y-29916D01*
X41483Y-29897D01*
X41474Y-29888D01*
X41455Y-29879D01*
X41418Y-29879D01*
X41399Y-29888D01*
X41390Y-29897D01*
X41380Y-29916D01*
G54D11*
X52925Y-21890D02*
X52925Y-21693D01*
X53000Y-21693D01*
X53019Y-21703D01*
X53028Y-21712D01*
X53038Y-21731D01*
X53038Y-21759D01*
X53028Y-21778D01*
X53019Y-21787D01*
X53000Y-21796D01*
X52925Y-21796D01*
X53225Y-21890D02*
X53113Y-21890D01*
X53169Y-21890D02*
X53169Y-21693D01*
X53150Y-21721D01*
X53131Y-21740D01*
X53113Y-21750D01*
X47645Y-28426D02*
X47645Y-28585D01*
X47654Y-28604D01*
X47664Y-28613D01*
X47682Y-28622D01*
X47720Y-28622D01*
X47739Y-28613D01*
X47748Y-28604D01*
X47757Y-28585D01*
X47757Y-28426D01*
X47842Y-28444D02*
X47851Y-28435D01*
X47870Y-28426D01*
X47917Y-28426D01*
X47935Y-28435D01*
X47945Y-28444D01*
X47954Y-28463D01*
X47954Y-28482D01*
X47945Y-28510D01*
X47832Y-28622D01*
X47954Y-28622D01*
X56784Y-28101D02*
X56812Y-28111D01*
X56859Y-28111D01*
X56878Y-28101D01*
X56887Y-28092D01*
X56897Y-28073D01*
X56897Y-28054D01*
X56887Y-28036D01*
X56878Y-28026D01*
X56859Y-28017D01*
X56822Y-28008D01*
X56803Y-27998D01*
X56794Y-27989D01*
X56784Y-27970D01*
X56784Y-27951D01*
X56794Y-27933D01*
X56803Y-27923D01*
X56822Y-27914D01*
X56869Y-27914D01*
X56897Y-27923D01*
X56962Y-27914D02*
X57009Y-28111D01*
X57047Y-27970D01*
X57084Y-28111D01*
X57131Y-27914D01*
X57309Y-28111D02*
X57197Y-28111D01*
X57253Y-28111D02*
X57253Y-27914D01*
X57234Y-27942D01*
X57215Y-27961D01*
X57197Y-27970D01*
X39945Y-23174D02*
X39945Y-23268D01*
X39880Y-23071D02*
X39945Y-23174D01*
X40011Y-23071D01*
X40179Y-23268D02*
X40067Y-23268D01*
X40123Y-23268D02*
X40123Y-23071D01*
X40104Y-23099D01*
X40086Y-23118D01*
X40067Y-23128D01*
X55794Y-25237D02*
X55794Y-25396D01*
X55804Y-25415D01*
X55813Y-25424D01*
X55832Y-25434D01*
X55869Y-25434D01*
X55888Y-25424D01*
X55898Y-25415D01*
X55907Y-25396D01*
X55907Y-25237D01*
X56104Y-25434D02*
X55991Y-25434D01*
X56047Y-25434D02*
X56047Y-25237D01*
X56029Y-25265D01*
X56010Y-25284D01*
X55991Y-25293D01*
X37434Y-23239D02*
X37462Y-23248D01*
X37509Y-23248D01*
X37528Y-23239D01*
X37537Y-23230D01*
X37546Y-23211D01*
X37546Y-23192D01*
X37537Y-23173D01*
X37528Y-23164D01*
X37509Y-23155D01*
X37471Y-23145D01*
X37453Y-23136D01*
X37443Y-23127D01*
X37434Y-23108D01*
X37434Y-23089D01*
X37443Y-23070D01*
X37453Y-23061D01*
X37471Y-23052D01*
X37518Y-23052D01*
X37546Y-23061D01*
X37612Y-23052D02*
X37659Y-23248D01*
X37696Y-23108D01*
X37734Y-23248D01*
X37781Y-23052D01*
X37940Y-23117D02*
X37940Y-23248D01*
X37893Y-23042D02*
X37846Y-23183D01*
X37968Y-23183D01*
G54D10*
X33320Y-22442D02*
X33320Y-22049D01*
X33451Y-22330D01*
X33582Y-22049D01*
X33582Y-22442D01*
X33826Y-22442D02*
X33788Y-22424D01*
X33770Y-22405D01*
X33751Y-22367D01*
X33751Y-22255D01*
X33770Y-22217D01*
X33788Y-22199D01*
X33826Y-22180D01*
X33882Y-22180D01*
X33920Y-22199D01*
X33938Y-22217D01*
X33957Y-22255D01*
X33957Y-22367D01*
X33938Y-22405D01*
X33920Y-22424D01*
X33882Y-22442D01*
X33826Y-22442D01*
X34295Y-22442D02*
X34295Y-22049D01*
X34295Y-22424D02*
X34257Y-22442D01*
X34182Y-22442D01*
X34145Y-22424D01*
X34126Y-22405D01*
X34107Y-22367D01*
X34107Y-22255D01*
X34126Y-22217D01*
X34145Y-22199D01*
X34182Y-22180D01*
X34257Y-22180D01*
X34295Y-22199D01*
X34632Y-22424D02*
X34595Y-22442D01*
X34520Y-22442D01*
X34482Y-22424D01*
X34463Y-22386D01*
X34463Y-22236D01*
X34482Y-22199D01*
X34520Y-22180D01*
X34595Y-22180D01*
X34632Y-22199D01*
X34651Y-22236D01*
X34651Y-22274D01*
X34463Y-22311D01*
G54D11*
X37434Y-26940D02*
X37462Y-26949D01*
X37509Y-26949D01*
X37528Y-26940D01*
X37537Y-26931D01*
X37546Y-26912D01*
X37546Y-26893D01*
X37537Y-26874D01*
X37528Y-26865D01*
X37509Y-26856D01*
X37471Y-26846D01*
X37453Y-26837D01*
X37443Y-26827D01*
X37434Y-26809D01*
X37434Y-26790D01*
X37443Y-26771D01*
X37453Y-26762D01*
X37471Y-26752D01*
X37518Y-26752D01*
X37546Y-26762D01*
X37612Y-26752D02*
X37659Y-26949D01*
X37696Y-26809D01*
X37734Y-26949D01*
X37781Y-26752D01*
X37837Y-26752D02*
X37959Y-26752D01*
X37893Y-26827D01*
X37921Y-26827D01*
X37940Y-26837D01*
X37949Y-26846D01*
X37959Y-26865D01*
X37959Y-26912D01*
X37949Y-26931D01*
X37940Y-26940D01*
X37921Y-26949D01*
X37865Y-26949D01*
X37846Y-26940D01*
X37837Y-26931D01*
G54D10*
X34385Y-26134D02*
X34497Y-25834D01*
X34610Y-26134D01*
G54D11*
X37434Y-29696D02*
X37462Y-29705D01*
X37509Y-29705D01*
X37528Y-29696D01*
X37537Y-29686D01*
X37546Y-29668D01*
X37546Y-29649D01*
X37537Y-29630D01*
X37528Y-29621D01*
X37509Y-29611D01*
X37471Y-29602D01*
X37453Y-29593D01*
X37443Y-29583D01*
X37434Y-29565D01*
X37434Y-29546D01*
X37443Y-29527D01*
X37453Y-29518D01*
X37471Y-29508D01*
X37518Y-29508D01*
X37546Y-29518D01*
X37612Y-29508D02*
X37659Y-29705D01*
X37696Y-29565D01*
X37734Y-29705D01*
X37781Y-29508D01*
X37846Y-29527D02*
X37856Y-29518D01*
X37874Y-29508D01*
X37921Y-29508D01*
X37940Y-29518D01*
X37949Y-29527D01*
X37959Y-29546D01*
X37959Y-29565D01*
X37949Y-29593D01*
X37837Y-29705D01*
X37959Y-29705D01*
G54D10*
X34385Y-28590D02*
X34497Y-28890D01*
X34610Y-28590D01*
M02*
