G04 (created by PCBNEW (2013-07-07 BZR 4022)-stable) date 26/01/2014 11:35:28 PM*
%MOIN*%
G04 Gerber Fmt 3.4, Leading zero omitted, Abs format*
%FSLAX34Y34*%
G01*
G70*
G90*
G04 APERTURE LIST*
%ADD10C,0.00590551*%
%ADD11R,0.0787X0.0177*%
%ADD12R,0.0177X0.0787*%
%ADD13R,0.0866142X0.0629921*%
%ADD14R,0.0472441X0.0629921*%
%ADD15R,0.055X0.035*%
%ADD16R,0.035X0.055*%
%ADD17R,0.06X0.06*%
%ADD18C,0.06*%
%ADD19R,0.11811X0.0393701*%
%ADD20C,0.0590551*%
%ADD21R,0.0787402X0.216535*%
%ADD22R,0.02X0.03*%
%ADD23C,0.11811*%
%ADD24C,0.0893701*%
G04 APERTURE END LIST*
G54D10*
G54D11*
X41903Y-26978D03*
X41903Y-26663D03*
X41903Y-26348D03*
X41903Y-26033D03*
X41903Y-25718D03*
X41903Y-25403D03*
X41903Y-25088D03*
X41903Y-24773D03*
X45669Y-24775D03*
X45669Y-26985D03*
X45669Y-26665D03*
X45669Y-26345D03*
X45669Y-26035D03*
X45669Y-25715D03*
X45669Y-25405D03*
X45669Y-25085D03*
G54D12*
X42687Y-23985D03*
X43001Y-23985D03*
X43317Y-23985D03*
X43631Y-23985D03*
X43947Y-23985D03*
X44261Y-23985D03*
X44577Y-23985D03*
X44891Y-23985D03*
X42689Y-27765D03*
X42999Y-27765D03*
X43319Y-27765D03*
X43629Y-27765D03*
X43939Y-27765D03*
X44259Y-27765D03*
X44579Y-27765D03*
X44899Y-27765D03*
G54D13*
X39566Y-28740D03*
X36023Y-28740D03*
X39566Y-25984D03*
X36023Y-25984D03*
X39566Y-23228D03*
X36023Y-23228D03*
G54D14*
X59551Y-26637D03*
X59551Y-27661D03*
G54D15*
X40354Y-30414D03*
X40354Y-29664D03*
G54D16*
X32461Y-24925D03*
X31711Y-24925D03*
X30788Y-23291D03*
X30038Y-23291D03*
X30788Y-24925D03*
X30038Y-24925D03*
G54D15*
X45929Y-30044D03*
X45929Y-29294D03*
X57149Y-27128D03*
X57149Y-27878D03*
X57149Y-25750D03*
X57149Y-26500D03*
X58094Y-27128D03*
X58094Y-27878D03*
X60535Y-26971D03*
X60535Y-27721D03*
X55181Y-29532D03*
X55181Y-28782D03*
X41338Y-28721D03*
X41338Y-27971D03*
X41299Y-30414D03*
X41299Y-29664D03*
X40905Y-26357D03*
X40905Y-27107D03*
X40984Y-24036D03*
X40984Y-23286D03*
G54D16*
X43587Y-22818D03*
X42837Y-22818D03*
X32461Y-23291D03*
X31711Y-23291D03*
G54D15*
X46834Y-25002D03*
X46834Y-25752D03*
X46834Y-27012D03*
X46834Y-26262D03*
X59866Y-25359D03*
X59866Y-24609D03*
G54D16*
X46304Y-27858D03*
X45554Y-27858D03*
G54D15*
X50299Y-22837D03*
X50299Y-23587D03*
X55181Y-22719D03*
X55181Y-23469D03*
X54236Y-29532D03*
X54236Y-28782D03*
X50299Y-28506D03*
X50299Y-29256D03*
X50299Y-27089D03*
X50299Y-27839D03*
X50299Y-24254D03*
X50299Y-25004D03*
X50299Y-25672D03*
X50299Y-26422D03*
X41874Y-23310D03*
X41874Y-24060D03*
G54D17*
X44803Y-29169D03*
G54D18*
X44803Y-30169D03*
X43803Y-29169D03*
X43803Y-30169D03*
X42803Y-29169D03*
X42803Y-30169D03*
G54D19*
X55200Y-26125D03*
X52051Y-26125D03*
X55200Y-25338D03*
X52051Y-25338D03*
X52051Y-24551D03*
X55200Y-24551D03*
X55200Y-26913D03*
X55200Y-27700D03*
X52051Y-27700D03*
X52051Y-26913D03*
G54D20*
X62188Y-27346D03*
X62188Y-24787D03*
G54D21*
X48566Y-24098D03*
X48566Y-27838D03*
G54D22*
X58784Y-25468D03*
X58034Y-25468D03*
X58784Y-26468D03*
X58409Y-25468D03*
X58034Y-26468D03*
G54D23*
X51165Y-22714D03*
X51165Y-29616D03*
G54D24*
X60555Y-23665D03*
X60555Y-28665D03*
M02*
