G04 (created by PCBNEW (2013-07-07 BZR 4022)-stable) date 30/01/2014 10:35:41 PM*
%MOIN*%
G04 Gerber Fmt 3.4, Leading zero omitted, Abs format*
%FSLAX34Y34*%
G01*
G70*
G90*
G04 APERTURE LIST*
%ADD10C,0.00590551*%
%ADD11R,0.0787X0.0177*%
%ADD12R,0.0177X0.0787*%
%ADD13R,0.0629921X0.0472441*%
%ADD14R,0.055X0.035*%
%ADD15R,0.035X0.055*%
%ADD16R,0.06X0.06*%
%ADD17C,0.06*%
%ADD18R,0.11811X0.0393701*%
%ADD19C,0.0590551*%
%ADD20R,0.0787402X0.216535*%
%ADD21R,0.03X0.02*%
%ADD22C,0.0905512*%
%ADD23C,0.0893701*%
%ADD24C,0.035*%
%ADD25C,0.02*%
%ADD26C,0.01*%
%ADD27C,0.03*%
%ADD28C,0.00606299*%
%ADD29C,0.001*%
G04 APERTURE END LIST*
G54D10*
G54D11*
X41903Y-26978D03*
X41903Y-26663D03*
X41903Y-26348D03*
X41903Y-26033D03*
X41903Y-25718D03*
X41903Y-25403D03*
X41903Y-25088D03*
X41903Y-24773D03*
X45669Y-24775D03*
X45669Y-26985D03*
X45669Y-26665D03*
X45669Y-26345D03*
X45669Y-26035D03*
X45669Y-25715D03*
X45669Y-25405D03*
X45669Y-25085D03*
G54D12*
X42687Y-23985D03*
X43001Y-23985D03*
X43317Y-23985D03*
X43631Y-23985D03*
X43947Y-23985D03*
X44261Y-23985D03*
X44577Y-23985D03*
X44891Y-23985D03*
X42689Y-27765D03*
X42999Y-27765D03*
X43319Y-27765D03*
X43629Y-27765D03*
X43939Y-27765D03*
X44259Y-27765D03*
X44579Y-27765D03*
X44899Y-27765D03*
G54D13*
X58818Y-26968D03*
X57795Y-26968D03*
G54D14*
X40354Y-30414D03*
X40354Y-29664D03*
G54D15*
X33249Y-24295D03*
X32499Y-24295D03*
X31575Y-22956D03*
X30825Y-22956D03*
X31575Y-24295D03*
X30825Y-24295D03*
G54D14*
X45929Y-30044D03*
X45929Y-29294D03*
G54D15*
X58678Y-24688D03*
X57928Y-24688D03*
X60056Y-24688D03*
X59306Y-24688D03*
X58642Y-25472D03*
X57892Y-25472D03*
X59154Y-28110D03*
X58404Y-28110D03*
G54D14*
X55181Y-29532D03*
X55181Y-28782D03*
X41338Y-28721D03*
X41338Y-27971D03*
X41299Y-30414D03*
X41299Y-29664D03*
X40905Y-26357D03*
X40905Y-27107D03*
X40984Y-24036D03*
X40984Y-23286D03*
G54D15*
X43587Y-22818D03*
X42837Y-22818D03*
X33249Y-22956D03*
X32499Y-22956D03*
G54D14*
X46834Y-25002D03*
X46834Y-25752D03*
X46834Y-27012D03*
X46834Y-26262D03*
X60590Y-26869D03*
X60590Y-27619D03*
G54D15*
X46304Y-27858D03*
X45554Y-27858D03*
G54D14*
X50299Y-22837D03*
X50299Y-23587D03*
X55181Y-22719D03*
X55181Y-23469D03*
X54236Y-29532D03*
X54236Y-28782D03*
X50299Y-28506D03*
X50299Y-29256D03*
X50299Y-27089D03*
X50299Y-27839D03*
X50299Y-24254D03*
X50299Y-25004D03*
X50299Y-25672D03*
X50299Y-26422D03*
X41850Y-23286D03*
X41850Y-24036D03*
G54D16*
X44803Y-29169D03*
G54D17*
X44803Y-30169D03*
X43803Y-29169D03*
X43803Y-30169D03*
X42803Y-29169D03*
X42803Y-30169D03*
G54D18*
X55200Y-26125D03*
X52051Y-26125D03*
X55200Y-25338D03*
X52051Y-25338D03*
X52051Y-24551D03*
X55200Y-24551D03*
X55200Y-26913D03*
X55200Y-27700D03*
X52051Y-27700D03*
X52051Y-26913D03*
G54D19*
X62204Y-24881D03*
X62204Y-27440D03*
G54D20*
X48566Y-24098D03*
X48566Y-27838D03*
G54D21*
X60338Y-26323D03*
X60338Y-25573D03*
X59338Y-26323D03*
X60338Y-25948D03*
X59338Y-25573D03*
G54D22*
X39074Y-22440D03*
X36515Y-22440D03*
X39074Y-25984D03*
X36515Y-25984D03*
X39074Y-28740D03*
X36515Y-28740D03*
G54D23*
X60555Y-28665D03*
X60555Y-23665D03*
G54D24*
X56141Y-27086D03*
X46968Y-27874D03*
X47362Y-26417D03*
X39603Y-30370D03*
X54331Y-25338D03*
X54542Y-22692D03*
X44926Y-25431D03*
X53234Y-29871D03*
X47837Y-28364D03*
X47387Y-25672D03*
X44607Y-27051D03*
X49243Y-24254D03*
X44696Y-26121D03*
X51091Y-27223D03*
X43502Y-27096D03*
X40863Y-28357D03*
X42367Y-22818D03*
X44614Y-26586D03*
G54D25*
X36515Y-22440D02*
X36515Y-23602D01*
X36515Y-23602D02*
X36297Y-23820D01*
X41850Y-24036D02*
X40984Y-24036D01*
X55991Y-26913D02*
X55991Y-26936D01*
X55991Y-26936D02*
X56141Y-27086D01*
X47207Y-26262D02*
X47362Y-26417D01*
X46834Y-26262D02*
X47207Y-26262D01*
X46834Y-25752D02*
X46834Y-26262D01*
X46303Y-27858D02*
X46304Y-27858D01*
X46303Y-26815D02*
X46303Y-27858D01*
X46154Y-26665D02*
X46303Y-26815D01*
X45669Y-26665D02*
X46154Y-26665D01*
X46952Y-27858D02*
X46968Y-27874D01*
X46304Y-27858D02*
X46952Y-27858D01*
X45669Y-26665D02*
X45669Y-26665D01*
X59154Y-28110D02*
X59529Y-28110D01*
X60056Y-24688D02*
X60431Y-24688D01*
X40354Y-30414D02*
X39879Y-30414D01*
X30825Y-22956D02*
X30825Y-23820D01*
X30825Y-23820D02*
X30825Y-24295D01*
X36299Y-23820D02*
X36297Y-23820D01*
X36515Y-24036D02*
X40984Y-24036D01*
X36515Y-24036D02*
X36299Y-23820D01*
X36297Y-23820D02*
X30825Y-23820D01*
X39835Y-30370D02*
X39879Y-30414D01*
X39603Y-30370D02*
X39835Y-30370D01*
X42803Y-29992D02*
X42803Y-30169D01*
X41813Y-29003D02*
X42803Y-29992D01*
X41813Y-28721D02*
X41813Y-29003D01*
X41338Y-28721D02*
X41813Y-28721D01*
X37726Y-24773D02*
X36515Y-25984D01*
X41903Y-24773D02*
X37726Y-24773D01*
X54880Y-25338D02*
X54410Y-25338D01*
X54880Y-25338D02*
X55200Y-25338D01*
X55991Y-25338D02*
X55991Y-26913D01*
X55200Y-25338D02*
X55991Y-25338D01*
X55200Y-26913D02*
X55991Y-26913D01*
X54410Y-25338D02*
X54331Y-25338D01*
X60347Y-25957D02*
X60338Y-25948D01*
X60569Y-25957D02*
X60347Y-25957D01*
G54D26*
X54569Y-22719D02*
X54542Y-22692D01*
X55181Y-22719D02*
X54569Y-22719D01*
X42999Y-27137D02*
X42999Y-27765D01*
X44705Y-25431D02*
X42999Y-27137D01*
X44926Y-25431D02*
X44705Y-25431D01*
X42446Y-24529D02*
X44891Y-24529D01*
X42302Y-24385D02*
X42446Y-24529D01*
X33664Y-24385D02*
X42302Y-24385D01*
X33574Y-24295D02*
X33664Y-24385D01*
X33249Y-24295D02*
X33574Y-24295D01*
X44891Y-23985D02*
X44891Y-24529D01*
X44577Y-23129D02*
X44577Y-23985D01*
X43285Y-21837D02*
X44577Y-23129D01*
X34693Y-21837D02*
X43285Y-21837D01*
X33574Y-22956D02*
X34693Y-21837D01*
X33249Y-22956D02*
X33574Y-22956D01*
X32499Y-22956D02*
X31575Y-22956D01*
X53248Y-29857D02*
X53234Y-29871D01*
X55181Y-29857D02*
X53248Y-29857D01*
X47782Y-28309D02*
X44899Y-28309D01*
X47837Y-28364D02*
X47782Y-28309D01*
X44899Y-27765D02*
X44899Y-28309D01*
X55181Y-29532D02*
X55181Y-29857D01*
X44579Y-27765D02*
X44579Y-27222D01*
X50299Y-25672D02*
X47387Y-25672D01*
X44579Y-27079D02*
X44607Y-27051D01*
X44579Y-27222D02*
X44579Y-27079D01*
X50724Y-23965D02*
X50724Y-23587D01*
X51310Y-24551D02*
X50724Y-23965D01*
X52051Y-24551D02*
X51310Y-24551D01*
X50299Y-23587D02*
X50724Y-23587D01*
X50543Y-28931D02*
X50299Y-28931D01*
X51310Y-28164D02*
X50543Y-28931D01*
X51310Y-27700D02*
X51310Y-28164D01*
X52051Y-27700D02*
X51310Y-27700D01*
X50299Y-29256D02*
X50299Y-28931D01*
X50307Y-25338D02*
X50299Y-25330D01*
X52051Y-25338D02*
X50307Y-25338D01*
X50299Y-25004D02*
X50299Y-25330D01*
X50299Y-27839D02*
X50299Y-27514D01*
X50553Y-27514D02*
X50299Y-27514D01*
X50766Y-27301D02*
X50553Y-27514D01*
X50766Y-27088D02*
X50766Y-27301D01*
X50957Y-26898D02*
X50766Y-27088D01*
X51295Y-26898D02*
X50957Y-26898D01*
X51310Y-26913D02*
X51295Y-26898D01*
X52051Y-26913D02*
X51310Y-26913D01*
X44259Y-27765D02*
X44259Y-27222D01*
X50299Y-24254D02*
X49243Y-24254D01*
X44612Y-26121D02*
X44696Y-26121D01*
X44259Y-26475D02*
X44612Y-26121D01*
X44259Y-27222D02*
X44259Y-26475D01*
X54236Y-26349D02*
X54236Y-28782D01*
X54460Y-26125D02*
X54236Y-26349D01*
X55200Y-26125D02*
X54460Y-26125D01*
X54937Y-23794D02*
X55181Y-23794D01*
X54460Y-24271D02*
X54937Y-23794D01*
X54460Y-24551D02*
X54460Y-24271D01*
X55200Y-24551D02*
X54460Y-24551D01*
X55181Y-23469D02*
X55181Y-23794D01*
X41299Y-29664D02*
X40354Y-29664D01*
X40354Y-29664D02*
X39929Y-29664D01*
X39929Y-29594D02*
X39929Y-29664D01*
X39074Y-28740D02*
X39929Y-29594D01*
X38461Y-28126D02*
X39074Y-28740D01*
X38461Y-25741D02*
X38461Y-28126D01*
X38833Y-25369D02*
X38461Y-25741D01*
X40695Y-25369D02*
X38833Y-25369D01*
X41359Y-26033D02*
X40695Y-25369D01*
X41903Y-26033D02*
X41359Y-26033D01*
X40905Y-26357D02*
X40905Y-26272D01*
X41283Y-26272D02*
X41359Y-26348D01*
X40905Y-26272D02*
X41283Y-26272D01*
X40617Y-25984D02*
X40905Y-26272D01*
X39074Y-25984D02*
X40617Y-25984D01*
X41903Y-26348D02*
X41409Y-26348D01*
X41409Y-26348D02*
X41359Y-26348D01*
X41359Y-27625D02*
X41338Y-27646D01*
X41359Y-26348D02*
X41359Y-27625D01*
X41338Y-27971D02*
X41338Y-27646D01*
X45929Y-29294D02*
X45929Y-29619D01*
X41903Y-28269D02*
X42803Y-29169D01*
X41903Y-26978D02*
X41903Y-28269D01*
X43253Y-29619D02*
X45929Y-29619D01*
X42803Y-29169D02*
X43253Y-29619D01*
X44353Y-29056D02*
X44353Y-29169D01*
X44015Y-28719D02*
X44353Y-29056D01*
X42918Y-28719D02*
X44015Y-28719D01*
X42446Y-28247D02*
X42918Y-28719D01*
X42446Y-26663D02*
X42446Y-28247D01*
X41903Y-26663D02*
X42446Y-26663D01*
X44803Y-29169D02*
X44353Y-29169D01*
X58677Y-24688D02*
X58678Y-24688D01*
X58678Y-24688D02*
X59306Y-24688D01*
X59338Y-24721D02*
X59338Y-25573D01*
X59306Y-24688D02*
X59338Y-24721D01*
X59306Y-24688D02*
X59306Y-24688D01*
X58677Y-25633D02*
X58804Y-25633D01*
X59278Y-25633D02*
X59338Y-25573D01*
X58804Y-25633D02*
X59278Y-25633D01*
X58804Y-25633D02*
X58642Y-25472D01*
G54D27*
X61672Y-26869D02*
X60590Y-26869D01*
X62204Y-27401D02*
X61672Y-26869D01*
X62204Y-27440D02*
X62204Y-27401D01*
X60590Y-26575D02*
X60338Y-26323D01*
X60590Y-26869D02*
X60590Y-26575D01*
X60055Y-25573D02*
X60338Y-25573D01*
X59842Y-25787D02*
X60055Y-25573D01*
X59842Y-26102D02*
X59842Y-25787D01*
X60063Y-26323D02*
X59842Y-26102D01*
X60338Y-26323D02*
X60063Y-26323D01*
G54D26*
X43939Y-27765D02*
X43939Y-28309D01*
X44465Y-28309D02*
X43939Y-28309D01*
X44665Y-28509D02*
X44465Y-28309D01*
X46915Y-28509D02*
X44665Y-28509D01*
X47481Y-29076D02*
X46915Y-28509D01*
X49017Y-29076D02*
X47481Y-29076D01*
X49143Y-28950D02*
X49017Y-29076D01*
X49143Y-28245D02*
X49143Y-28950D01*
X50299Y-27089D02*
X49143Y-28245D01*
X47662Y-25002D02*
X48566Y-24098D01*
X46834Y-25002D02*
X47662Y-25002D01*
X46208Y-26035D02*
X45669Y-26035D01*
X46299Y-25944D02*
X46208Y-26035D01*
X46299Y-25472D02*
X46299Y-25944D01*
X46768Y-25002D02*
X46299Y-25472D01*
X46834Y-25002D02*
X46768Y-25002D01*
X45669Y-26035D02*
X45669Y-26035D01*
X40984Y-23286D02*
X40984Y-22961D01*
X43912Y-23407D02*
X43947Y-23442D01*
X43912Y-22818D02*
X43912Y-23407D01*
X43587Y-22818D02*
X43912Y-22818D01*
X43947Y-23985D02*
X43947Y-23442D01*
X43587Y-22818D02*
X43262Y-22818D01*
X40463Y-22440D02*
X40984Y-22961D01*
X39074Y-22440D02*
X40463Y-22440D01*
X41565Y-22379D02*
X40984Y-22961D01*
X43066Y-22379D02*
X41565Y-22379D01*
X43262Y-22575D02*
X43066Y-22379D01*
X43262Y-22818D02*
X43262Y-22575D01*
X43829Y-28509D02*
X43629Y-28309D01*
X44382Y-28509D02*
X43829Y-28509D01*
X44582Y-28709D02*
X44382Y-28509D01*
X46195Y-28709D02*
X44582Y-28709D01*
X46780Y-29295D02*
X46195Y-28709D01*
X49510Y-29295D02*
X46780Y-29295D01*
X50299Y-28506D02*
X49510Y-29295D01*
X43629Y-27765D02*
X43629Y-28309D01*
X46834Y-27012D02*
X46834Y-26992D01*
X46188Y-26345D02*
X45669Y-26345D01*
X46834Y-26992D02*
X46188Y-26345D01*
X47740Y-27012D02*
X48566Y-27838D01*
X46834Y-27012D02*
X47740Y-27012D01*
X51222Y-27353D02*
X51091Y-27223D01*
X52703Y-27353D02*
X51222Y-27353D01*
X52791Y-27441D02*
X52703Y-27353D01*
X52791Y-28006D02*
X52791Y-27441D01*
X53992Y-29207D02*
X52791Y-28006D01*
X54236Y-29207D02*
X53992Y-29207D01*
X43319Y-27765D02*
X43319Y-27222D01*
X54236Y-29532D02*
X54236Y-29207D01*
X43377Y-27222D02*
X43502Y-27096D01*
X43319Y-27222D02*
X43377Y-27222D01*
X42689Y-27048D02*
X42689Y-27765D01*
X46900Y-22837D02*
X42689Y-27048D01*
X50299Y-22837D02*
X46900Y-22837D01*
X54937Y-28457D02*
X55181Y-28457D01*
X54460Y-27980D02*
X54937Y-28457D01*
X54460Y-27700D02*
X54460Y-27980D01*
X55200Y-27700D02*
X54460Y-27700D01*
X55181Y-28782D02*
X55181Y-28457D01*
X51020Y-26125D02*
X50724Y-26422D01*
X52051Y-26125D02*
X51020Y-26125D01*
X50299Y-26422D02*
X50724Y-26422D01*
X31575Y-24295D02*
X32499Y-24295D01*
G54D25*
X44928Y-30044D02*
X44803Y-30169D01*
X45929Y-30044D02*
X44928Y-30044D01*
X45669Y-27743D02*
X45554Y-27858D01*
X45669Y-26985D02*
X45669Y-27743D01*
X45554Y-27858D02*
X45554Y-27858D01*
X45669Y-26985D02*
X45669Y-26985D01*
X41299Y-30414D02*
X41536Y-30414D01*
X58404Y-28110D02*
X58029Y-28110D01*
X57892Y-25472D02*
X57892Y-24997D01*
X57928Y-24961D02*
X57928Y-24688D01*
X57892Y-24997D02*
X57928Y-24961D01*
X57616Y-24721D02*
X57892Y-24997D01*
X40905Y-27107D02*
X40905Y-27482D01*
X44294Y-30677D02*
X44803Y-30169D01*
X42154Y-30677D02*
X44294Y-30677D01*
X41797Y-30320D02*
X42154Y-30677D01*
X41702Y-30414D02*
X41797Y-30320D01*
X41536Y-30414D02*
X41702Y-30414D01*
X42687Y-23985D02*
X42687Y-23613D01*
X42652Y-23613D02*
X42349Y-23310D01*
X42687Y-23613D02*
X42652Y-23613D01*
X41874Y-23310D02*
X42349Y-23310D01*
X40863Y-28990D02*
X40863Y-28357D01*
X41161Y-29289D02*
X40863Y-28990D01*
X41659Y-29289D02*
X41161Y-29289D01*
X41797Y-29427D02*
X41659Y-29289D01*
X41797Y-30320D02*
X41797Y-29427D01*
X40863Y-27524D02*
X40905Y-27482D01*
X40863Y-28357D02*
X40863Y-27524D01*
X42837Y-22818D02*
X42462Y-22818D01*
X42462Y-22818D02*
X42367Y-22818D01*
X42367Y-23291D02*
X42349Y-23310D01*
X42367Y-22818D02*
X42367Y-23291D01*
X46647Y-30287D02*
X46404Y-30044D01*
X55817Y-30287D02*
X46647Y-30287D01*
X57519Y-28585D02*
X55817Y-30287D01*
X45929Y-30044D02*
X46404Y-30044D01*
X44676Y-26586D02*
X45075Y-26985D01*
X44614Y-26586D02*
X44676Y-26586D01*
X45669Y-26985D02*
X45075Y-26985D01*
G54D10*
G36*
X58237Y-28491D02*
X57861Y-28867D01*
X57204Y-28867D01*
X57177Y-28867D01*
X56801Y-28491D01*
X56801Y-24107D01*
X57099Y-23809D01*
X57546Y-23809D01*
X57843Y-24107D01*
X57843Y-27335D01*
X58237Y-27729D01*
X58237Y-28491D01*
X58237Y-28491D01*
G37*
G54D28*
X58237Y-28491D02*
X57861Y-28867D01*
X57204Y-28867D01*
X57177Y-28867D01*
X56801Y-28491D01*
X56801Y-24107D01*
X57099Y-23809D01*
X57546Y-23809D01*
X57843Y-24107D01*
X57843Y-27335D01*
X58237Y-27729D01*
X58237Y-28491D01*
G54D10*
G36*
X63512Y-28963D02*
X62428Y-30048D01*
X59618Y-30048D01*
X59321Y-29751D01*
X59321Y-27807D01*
X59618Y-27510D01*
X60996Y-27510D01*
X61290Y-27217D01*
X61290Y-27210D01*
X61531Y-27210D01*
X61718Y-27397D01*
X61718Y-27537D01*
X61792Y-27716D01*
X61928Y-27852D01*
X62107Y-27927D01*
X62301Y-27927D01*
X62479Y-27853D01*
X62616Y-27716D01*
X62690Y-27538D01*
X62691Y-27344D01*
X62617Y-27165D01*
X62480Y-27028D01*
X62301Y-26954D01*
X62240Y-26954D01*
X61913Y-26628D01*
X61802Y-26554D01*
X61672Y-26528D01*
X61177Y-26528D01*
X60721Y-26072D01*
X60606Y-26072D01*
X60596Y-26062D01*
X60526Y-26032D01*
X60505Y-26032D01*
X60469Y-26008D01*
X60463Y-26007D01*
X60463Y-25918D01*
X60516Y-25864D01*
X60526Y-25864D01*
X60596Y-25835D01*
X60650Y-25782D01*
X60679Y-25711D01*
X60679Y-25701D01*
X60699Y-25681D01*
X60699Y-25459D01*
X60679Y-25439D01*
X60679Y-25436D01*
X60650Y-25365D01*
X60596Y-25312D01*
X60526Y-25282D01*
X60522Y-25282D01*
X60227Y-24987D01*
X60227Y-24461D01*
X60327Y-24361D01*
X60971Y-24361D01*
X63512Y-26902D01*
X63512Y-28963D01*
X63512Y-28963D01*
G37*
G54D28*
X63512Y-28963D02*
X62428Y-30048D01*
X59618Y-30048D01*
X59321Y-29751D01*
X59321Y-27807D01*
X59618Y-27510D01*
X60996Y-27510D01*
X61290Y-27217D01*
X61290Y-27210D01*
X61531Y-27210D01*
X61718Y-27397D01*
X61718Y-27537D01*
X61792Y-27716D01*
X61928Y-27852D01*
X62107Y-27927D01*
X62301Y-27927D01*
X62479Y-27853D01*
X62616Y-27716D01*
X62690Y-27538D01*
X62691Y-27344D01*
X62617Y-27165D01*
X62480Y-27028D01*
X62301Y-26954D01*
X62240Y-26954D01*
X61913Y-26628D01*
X61802Y-26554D01*
X61672Y-26528D01*
X61177Y-26528D01*
X60721Y-26072D01*
X60606Y-26072D01*
X60596Y-26062D01*
X60526Y-26032D01*
X60505Y-26032D01*
X60469Y-26008D01*
X60463Y-26007D01*
X60463Y-25918D01*
X60516Y-25864D01*
X60526Y-25864D01*
X60596Y-25835D01*
X60650Y-25782D01*
X60679Y-25711D01*
X60679Y-25701D01*
X60699Y-25681D01*
X60699Y-25459D01*
X60679Y-25439D01*
X60679Y-25436D01*
X60650Y-25365D01*
X60596Y-25312D01*
X60526Y-25282D01*
X60522Y-25282D01*
X60227Y-24987D01*
X60227Y-24461D01*
X60327Y-24361D01*
X60971Y-24361D01*
X63512Y-26902D01*
X63512Y-28963D01*
G54D10*
G36*
X59483Y-26416D02*
X59130Y-27199D01*
X58508Y-27199D01*
X58508Y-26811D01*
X58508Y-26734D01*
X59174Y-26225D01*
X59483Y-26225D01*
X59483Y-26416D01*
X59483Y-26416D01*
G37*
G54D29*
X59483Y-26416D02*
X59130Y-27199D01*
X58508Y-27199D01*
X58508Y-26811D01*
X58508Y-26734D01*
X59174Y-26225D01*
X59483Y-26225D01*
X59483Y-26416D01*
M02*
