G04 (created by PCBNEW (2013-07-07 BZR 4022)-stable) date 30/01/2014 10:35:41 PM*
%MOIN*%
G04 Gerber Fmt 3.4, Leading zero omitted, Abs format*
%FSLAX34Y34*%
G01*
G70*
G90*
G04 APERTURE LIST*
%ADD10C,0.00590551*%
%ADD11R,0.06X0.06*%
%ADD12C,0.06*%
%ADD13C,0.0590551*%
%ADD14C,0.0905512*%
%ADD15C,0.0893701*%
%ADD16C,0.035*%
%ADD17C,0.02*%
%ADD18C,0.01*%
%ADD19C,0.03*%
G04 APERTURE END LIST*
G54D10*
G54D11*
X44803Y-29169D03*
G54D12*
X44803Y-30169D03*
X43803Y-29169D03*
X43803Y-30169D03*
X42803Y-29169D03*
X42803Y-30169D03*
G54D13*
X62204Y-24881D03*
X62204Y-27440D03*
G54D14*
X39074Y-22440D03*
X36515Y-22440D03*
X39074Y-25984D03*
X36515Y-25984D03*
X39074Y-28740D03*
X36515Y-28740D03*
G54D15*
X60555Y-28665D03*
X60555Y-23665D03*
G54D16*
X56141Y-27086D03*
X46968Y-27874D03*
X47362Y-26417D03*
X39603Y-30370D03*
X54331Y-25338D03*
X54542Y-22692D03*
X44926Y-25431D03*
X53234Y-29871D03*
X47837Y-28364D03*
X47387Y-25672D03*
X44607Y-27051D03*
X49243Y-24254D03*
X44696Y-26121D03*
X51091Y-27223D03*
X43502Y-27096D03*
X40863Y-28357D03*
X42367Y-22818D03*
X44614Y-26586D03*
G54D17*
X36515Y-25984D02*
X36515Y-24036D01*
X36515Y-24036D02*
X36515Y-22440D01*
X57720Y-28665D02*
X60555Y-28665D01*
X56141Y-27086D02*
X57720Y-28665D01*
X36515Y-25984D02*
X36515Y-28740D01*
X43303Y-30669D02*
X42803Y-30169D01*
X45020Y-30669D02*
X43303Y-30669D01*
X46968Y-28721D02*
X45020Y-30669D01*
X46968Y-27874D02*
X46968Y-28721D01*
X47362Y-26417D02*
X47362Y-27480D01*
X47362Y-27480D02*
X46968Y-27874D01*
X39805Y-30169D02*
X39603Y-30370D01*
X42803Y-30169D02*
X39805Y-30169D01*
X37973Y-28740D02*
X36515Y-28740D01*
X39603Y-30370D02*
X37973Y-28740D01*
X52071Y-27598D02*
X54331Y-25338D01*
X47480Y-27598D02*
X52071Y-27598D01*
X47362Y-27480D02*
X47480Y-27598D01*
G54D18*
X46885Y-23473D02*
X44926Y-25431D01*
X53762Y-23473D02*
X46885Y-23473D01*
X54542Y-22692D02*
X53762Y-23473D01*
X51727Y-28364D02*
X47837Y-28364D01*
X53234Y-29871D02*
X51727Y-28364D01*
X45202Y-27051D02*
X44607Y-27051D01*
X46581Y-25672D02*
X45202Y-27051D01*
X47387Y-25672D02*
X46581Y-25672D01*
X46563Y-24254D02*
X44696Y-26121D01*
X49243Y-24254D02*
X46563Y-24254D01*
G54D19*
X60988Y-23665D02*
X62204Y-24881D01*
X60555Y-23665D02*
X60988Y-23665D01*
G54D18*
X43782Y-27376D02*
X43502Y-27096D01*
X45582Y-27376D02*
X43782Y-27376D01*
X46895Y-26064D02*
X45582Y-27376D01*
X49933Y-26064D02*
X46895Y-26064D01*
X51091Y-27223D02*
X49933Y-26064D01*
G54D17*
X44534Y-26506D02*
X44614Y-26586D01*
X42714Y-26506D02*
X44534Y-26506D01*
X42714Y-23165D02*
X42714Y-26506D01*
X42367Y-22818D02*
X42714Y-23165D01*
X42714Y-26506D02*
X40863Y-28357D01*
M02*
