G04 (created by PCBNEW (2013-07-07 BZR 4022)-stable) date 08/02/2014 11:33:34 PM*
%MOIN*%
G04 Gerber Fmt 3.4, Leading zero omitted, Abs format*
%FSLAX34Y34*%
G01*
G70*
G90*
G04 APERTURE LIST*
%ADD10C,0.00590551*%
%ADD11C,0.00492126*%
%ADD12C,0.006*%
%ADD13C,0.0039*%
%ADD14C,0.008*%
%ADD15C,0.005*%
%ADD16C,0.0043*%
%ADD17R,0.0177X0.0787*%
%ADD18R,0.0787X0.0177*%
%ADD19R,0.0629921X0.0472441*%
%ADD20R,0.055X0.035*%
%ADD21R,0.035X0.055*%
%ADD22R,0.06X0.06*%
%ADD23C,0.06*%
%ADD24C,0.0590551*%
%ADD25R,0.216535X0.0787402*%
%ADD26R,0.03X0.02*%
%ADD27C,0.0905512*%
%ADD28C,0.0933071*%
%ADD29C,0.0893701*%
%ADD30R,0.11811X0.0393701*%
G04 APERTURE END LIST*
G54D10*
G54D11*
X57916Y-29307D02*
X57944Y-29316D01*
X57953Y-29326D01*
X57963Y-29344D01*
X57963Y-29372D01*
X57953Y-29391D01*
X57944Y-29401D01*
X57925Y-29410D01*
X57850Y-29410D01*
X57850Y-29213D01*
X57916Y-29213D01*
X57934Y-29222D01*
X57944Y-29232D01*
X57953Y-29251D01*
X57953Y-29269D01*
X57944Y-29288D01*
X57934Y-29297D01*
X57916Y-29307D01*
X57850Y-29307D01*
X58019Y-29213D02*
X58131Y-29213D01*
X58075Y-29410D02*
X58075Y-29213D01*
X58300Y-29410D02*
X58188Y-29410D01*
X58244Y-29410D02*
X58244Y-29213D01*
X58225Y-29241D01*
X58206Y-29260D01*
X58188Y-29269D01*
G54D10*
X57847Y-27442D02*
X57922Y-27442D01*
X57960Y-27461D01*
X57997Y-27499D01*
X58016Y-27574D01*
X58016Y-27705D01*
X57997Y-27780D01*
X57960Y-27817D01*
X57922Y-27836D01*
X57847Y-27836D01*
X57810Y-27817D01*
X57772Y-27780D01*
X57754Y-27705D01*
X57754Y-27574D01*
X57772Y-27499D01*
X57810Y-27461D01*
X57847Y-27442D01*
X58128Y-27574D02*
X58278Y-27574D01*
X58185Y-27836D02*
X58185Y-27499D01*
X58203Y-27461D01*
X58241Y-27442D01*
X58278Y-27442D01*
X58353Y-27574D02*
X58503Y-27574D01*
X58410Y-27836D02*
X58410Y-27499D01*
X58428Y-27461D01*
X58466Y-27442D01*
X58503Y-27442D01*
X57855Y-24450D02*
X57930Y-24450D01*
X57967Y-24469D01*
X58005Y-24506D01*
X58023Y-24581D01*
X58023Y-24713D01*
X58005Y-24788D01*
X57967Y-24825D01*
X57930Y-24844D01*
X57855Y-24844D01*
X57817Y-24825D01*
X57780Y-24788D01*
X57761Y-24713D01*
X57761Y-24581D01*
X57780Y-24506D01*
X57817Y-24469D01*
X57855Y-24450D01*
X58192Y-24581D02*
X58192Y-24844D01*
X58192Y-24619D02*
X58211Y-24600D01*
X58248Y-24581D01*
X58305Y-24581D01*
X58342Y-24600D01*
X58361Y-24638D01*
X58361Y-24844D01*
G54D12*
X43727Y-24870D02*
X43727Y-25320D01*
X41547Y-24870D02*
X41547Y-25310D01*
X43727Y-24870D02*
X41547Y-24870D01*
X44197Y-25750D02*
X44627Y-25750D01*
X44207Y-27960D02*
X44627Y-27960D01*
X44627Y-27970D02*
X44637Y-25750D01*
X40657Y-27950D02*
X40647Y-25780D01*
X41347Y-28380D02*
X44177Y-28380D01*
X40657Y-25770D02*
X41067Y-25770D01*
X41107Y-28130D02*
X41107Y-25350D01*
X44187Y-25330D02*
X41147Y-25330D01*
X44187Y-28380D02*
X44187Y-25380D01*
X41517Y-28830D02*
X43737Y-28830D01*
X43737Y-28830D02*
X43737Y-28380D01*
X41337Y-28376D02*
X41107Y-28146D01*
X41517Y-28828D02*
X41517Y-28376D01*
X41107Y-27950D02*
X40655Y-27950D01*
X41700Y-27968D02*
G75*
G03X41700Y-27968I-188J0D01*
G74*
G01*
G54D13*
X39798Y-28405D02*
G75*
G03X39798Y-28405I-50J0D01*
G74*
G01*
X39748Y-27955D02*
X39748Y-28355D01*
X39748Y-28355D02*
X39148Y-28355D01*
X39148Y-28355D02*
X39148Y-27955D01*
X39148Y-27555D02*
X39148Y-27155D01*
X39148Y-27155D02*
X39748Y-27155D01*
X39748Y-27155D02*
X39748Y-27555D01*
X33140Y-22652D02*
G75*
G03X33140Y-22652I-50J0D01*
G74*
G01*
X32640Y-22652D02*
X33040Y-22652D01*
X33040Y-22652D02*
X33040Y-23252D01*
X33040Y-23252D02*
X32640Y-23252D01*
X32240Y-23252D02*
X31840Y-23252D01*
X31840Y-23252D02*
X31840Y-22652D01*
X31840Y-22652D02*
X32240Y-22652D01*
X31526Y-23991D02*
G75*
G03X31526Y-23991I-50J0D01*
G74*
G01*
X31026Y-23991D02*
X31426Y-23991D01*
X31426Y-23991D02*
X31426Y-24591D01*
X31426Y-24591D02*
X31026Y-24591D01*
X30626Y-24591D02*
X30226Y-24591D01*
X30226Y-24591D02*
X30226Y-23991D01*
X30226Y-23991D02*
X30626Y-23991D01*
X31526Y-22652D02*
G75*
G03X31526Y-22652I-50J0D01*
G74*
G01*
X31026Y-22652D02*
X31426Y-22652D01*
X31426Y-22652D02*
X31426Y-23252D01*
X31426Y-23252D02*
X31026Y-23252D01*
X30626Y-23252D02*
X30226Y-23252D01*
X30226Y-23252D02*
X30226Y-22652D01*
X30226Y-22652D02*
X30626Y-22652D01*
X44995Y-30256D02*
G75*
G03X44995Y-30256I-50J0D01*
G74*
G01*
X44945Y-29806D02*
X44945Y-30206D01*
X44945Y-30206D02*
X44345Y-30206D01*
X44345Y-30206D02*
X44345Y-29806D01*
X44345Y-29406D02*
X44345Y-29006D01*
X44345Y-29006D02*
X44945Y-29006D01*
X44945Y-29006D02*
X44945Y-29406D01*
X54046Y-24266D02*
G75*
G03X54046Y-24266I-50J0D01*
G74*
G01*
X53546Y-24266D02*
X53946Y-24266D01*
X53946Y-24266D02*
X53946Y-24866D01*
X53946Y-24866D02*
X53546Y-24866D01*
X53146Y-24866D02*
X52746Y-24866D01*
X52746Y-24866D02*
X52746Y-24266D01*
X52746Y-24266D02*
X53146Y-24266D01*
X55581Y-24266D02*
G75*
G03X55581Y-24266I-50J0D01*
G74*
G01*
X55081Y-24266D02*
X55481Y-24266D01*
X55481Y-24266D02*
X55481Y-24866D01*
X55481Y-24866D02*
X55081Y-24866D01*
X54681Y-24866D02*
X54281Y-24866D01*
X54281Y-24866D02*
X54281Y-24266D01*
X54281Y-24266D02*
X54681Y-24266D01*
X54046Y-25172D02*
G75*
G03X54046Y-25172I-50J0D01*
G74*
G01*
X53546Y-25172D02*
X53946Y-25172D01*
X53946Y-25172D02*
X53946Y-25772D01*
X53946Y-25772D02*
X53546Y-25772D01*
X53146Y-25772D02*
X52746Y-25772D01*
X52746Y-25772D02*
X52746Y-25172D01*
X52746Y-25172D02*
X53146Y-25172D01*
X54597Y-27692D02*
G75*
G03X54597Y-27692I-50J0D01*
G74*
G01*
X54097Y-27692D02*
X54497Y-27692D01*
X54497Y-27692D02*
X54497Y-28292D01*
X54497Y-28292D02*
X54097Y-28292D01*
X53697Y-28292D02*
X53297Y-28292D01*
X53297Y-28292D02*
X53297Y-27692D01*
X53297Y-27692D02*
X53697Y-27692D01*
X50069Y-30103D02*
G75*
G03X50069Y-30103I-50J0D01*
G74*
G01*
X50469Y-30103D02*
X50069Y-30103D01*
X50069Y-30103D02*
X50069Y-29503D01*
X50069Y-29503D02*
X50469Y-29503D01*
X50869Y-29503D02*
X51269Y-29503D01*
X51269Y-29503D02*
X51269Y-30103D01*
X51269Y-30103D02*
X50869Y-30103D01*
X39798Y-30020D02*
G75*
G03X39798Y-30020I-50J0D01*
G74*
G01*
X39748Y-29570D02*
X39748Y-29970D01*
X39748Y-29970D02*
X39148Y-29970D01*
X39148Y-29970D02*
X39148Y-29570D01*
X39148Y-29170D02*
X39148Y-28770D01*
X39148Y-28770D02*
X39748Y-28770D01*
X39748Y-28770D02*
X39748Y-29170D01*
X39198Y-25491D02*
G75*
G03X39198Y-25491I-50J0D01*
G74*
G01*
X39148Y-25941D02*
X39148Y-25541D01*
X39148Y-25541D02*
X39748Y-25541D01*
X39748Y-25541D02*
X39748Y-25941D01*
X39748Y-26341D02*
X39748Y-26741D01*
X39748Y-26741D02*
X39148Y-26741D01*
X39148Y-26741D02*
X39148Y-26341D01*
X43416Y-29581D02*
G75*
G03X43416Y-29581I-50J0D01*
G74*
G01*
X42916Y-29581D02*
X43316Y-29581D01*
X43316Y-29581D02*
X43316Y-30181D01*
X43316Y-30181D02*
X42916Y-30181D01*
X42516Y-30181D02*
X42116Y-30181D01*
X42116Y-30181D02*
X42116Y-29581D01*
X42116Y-29581D02*
X42516Y-29581D01*
X40424Y-24148D02*
G75*
G03X40424Y-24148I-50J0D01*
G74*
G01*
X39924Y-24148D02*
X40324Y-24148D01*
X40324Y-24148D02*
X40324Y-24748D01*
X40324Y-24748D02*
X39924Y-24748D01*
X39524Y-24748D02*
X39124Y-24748D01*
X39124Y-24748D02*
X39124Y-24148D01*
X39124Y-24148D02*
X39524Y-24148D01*
X37624Y-23523D02*
G75*
G03X37624Y-23523I-50J0D01*
G74*
G01*
X37574Y-23973D02*
X37574Y-23573D01*
X37574Y-23573D02*
X38174Y-23573D01*
X38174Y-23573D02*
X38174Y-23973D01*
X38174Y-24373D02*
X38174Y-24773D01*
X38174Y-24773D02*
X37574Y-24773D01*
X37574Y-24773D02*
X37574Y-24373D01*
X33140Y-23991D02*
G75*
G03X33140Y-23991I-50J0D01*
G74*
G01*
X32640Y-23991D02*
X33040Y-23991D01*
X33040Y-23991D02*
X33040Y-24591D01*
X33040Y-24591D02*
X32640Y-24591D01*
X32240Y-24591D02*
X31840Y-24591D01*
X31840Y-24591D02*
X31840Y-23991D01*
X31840Y-23991D02*
X32240Y-23991D01*
X42707Y-23676D02*
G75*
G03X42707Y-23676I-50J0D01*
G74*
G01*
X42207Y-23676D02*
X42607Y-23676D01*
X42607Y-23676D02*
X42607Y-24276D01*
X42607Y-24276D02*
X42207Y-24276D01*
X41807Y-24276D02*
X41407Y-24276D01*
X41407Y-24276D02*
X41407Y-23676D01*
X41407Y-23676D02*
X41807Y-23676D01*
X42903Y-24276D02*
G75*
G03X42903Y-24276I-50J0D01*
G74*
G01*
X43303Y-24276D02*
X42903Y-24276D01*
X42903Y-24276D02*
X42903Y-23676D01*
X42903Y-23676D02*
X43303Y-23676D01*
X43703Y-23676D02*
X44103Y-23676D01*
X44103Y-23676D02*
X44103Y-24276D01*
X44103Y-24276D02*
X43703Y-24276D01*
X55458Y-26475D02*
G75*
G03X55458Y-26475I-50J0D01*
G74*
G01*
X55408Y-26925D02*
X55408Y-26525D01*
X55408Y-26525D02*
X56008Y-26525D01*
X56008Y-26525D02*
X56008Y-26925D01*
X56008Y-27325D02*
X56008Y-27725D01*
X56008Y-27725D02*
X55408Y-27725D01*
X55408Y-27725D02*
X55408Y-27325D01*
X44474Y-23601D02*
G75*
G03X44474Y-23601I-50J0D01*
G74*
G01*
X44424Y-24051D02*
X44424Y-23651D01*
X44424Y-23651D02*
X45024Y-23651D01*
X45024Y-23651D02*
X45024Y-24051D01*
X45024Y-24451D02*
X45024Y-24851D01*
X45024Y-24851D02*
X44424Y-24851D01*
X44424Y-24851D02*
X44424Y-24451D01*
X46053Y-29985D02*
G75*
G03X46053Y-29985I-50J0D01*
G74*
G01*
X46453Y-29985D02*
X46053Y-29985D01*
X46053Y-29985D02*
X46053Y-29385D01*
X46053Y-29385D02*
X46453Y-29385D01*
X46853Y-29385D02*
X47253Y-29385D01*
X47253Y-29385D02*
X47253Y-29985D01*
X47253Y-29985D02*
X46853Y-29985D01*
X51285Y-21790D02*
G75*
G03X51285Y-21790I-50J0D01*
G74*
G01*
X51235Y-22240D02*
X51235Y-21840D01*
X51235Y-21840D02*
X51835Y-21840D01*
X51835Y-21840D02*
X51835Y-22240D01*
X51835Y-22640D02*
X51835Y-23040D01*
X51835Y-23040D02*
X51235Y-23040D01*
X51235Y-23040D02*
X51235Y-22640D01*
X50104Y-21790D02*
G75*
G03X50104Y-21790I-50J0D01*
G74*
G01*
X50054Y-22240D02*
X50054Y-21840D01*
X50054Y-21840D02*
X50654Y-21840D01*
X50654Y-21840D02*
X50654Y-22240D01*
X50654Y-22640D02*
X50654Y-23040D01*
X50654Y-23040D02*
X50054Y-23040D01*
X50054Y-23040D02*
X50054Y-22640D01*
X46294Y-28720D02*
G75*
G03X46294Y-28720I-50J0D01*
G74*
G01*
X46244Y-28270D02*
X46244Y-28670D01*
X46244Y-28670D02*
X45644Y-28670D01*
X45644Y-28670D02*
X45644Y-28270D01*
X45644Y-27870D02*
X45644Y-27470D01*
X45644Y-27470D02*
X46244Y-27470D01*
X46244Y-27470D02*
X46244Y-27870D01*
X45694Y-25727D02*
G75*
G03X45694Y-25727I-50J0D01*
G74*
G01*
X45644Y-26177D02*
X45644Y-25777D01*
X45644Y-25777D02*
X46244Y-25777D01*
X46244Y-25777D02*
X46244Y-26177D01*
X46244Y-26577D02*
X46244Y-26977D01*
X46244Y-26977D02*
X45644Y-26977D01*
X45644Y-26977D02*
X45644Y-26577D01*
X46294Y-24901D02*
G75*
G03X46294Y-24901I-50J0D01*
G74*
G01*
X46244Y-24451D02*
X46244Y-24851D01*
X46244Y-24851D02*
X45644Y-24851D01*
X45644Y-24851D02*
X45644Y-24451D01*
X45644Y-24051D02*
X45644Y-23651D01*
X45644Y-23651D02*
X46244Y-23651D01*
X46244Y-23651D02*
X46244Y-24051D01*
X46368Y-22859D02*
G75*
G03X46368Y-22859I-50J0D01*
G74*
G01*
X46768Y-22859D02*
X46368Y-22859D01*
X46368Y-22859D02*
X46368Y-22259D01*
X46368Y-22259D02*
X46768Y-22259D01*
X47168Y-22259D02*
X47568Y-22259D01*
X47568Y-22259D02*
X47568Y-22859D01*
X47568Y-22859D02*
X47168Y-22859D01*
X40458Y-28720D02*
G75*
G03X40458Y-28720I-50J0D01*
G74*
G01*
X40408Y-29170D02*
X40408Y-28770D01*
X40408Y-28770D02*
X41008Y-28770D01*
X41008Y-28770D02*
X41008Y-29170D01*
X41008Y-29570D02*
X41008Y-29970D01*
X41008Y-29970D02*
X40408Y-29970D01*
X40408Y-29970D02*
X40408Y-29570D01*
G54D14*
X56460Y-23637D02*
X53460Y-23637D01*
X53460Y-21637D02*
X56460Y-21637D01*
X56460Y-21637D02*
X56460Y-23637D01*
X53460Y-23637D02*
X53460Y-21637D01*
G54D10*
X44881Y-21456D02*
X44881Y-21968D01*
X44881Y-21456D02*
X40393Y-21456D01*
X40393Y-21456D02*
X40393Y-21968D01*
X44881Y-23346D02*
X40393Y-23346D01*
X40393Y-23346D02*
X40393Y-22834D01*
X44881Y-23346D02*
X44881Y-22834D01*
G54D15*
X54606Y-25230D02*
X55306Y-25230D01*
X55306Y-25230D02*
X55306Y-26430D01*
X55306Y-26430D02*
X54606Y-26430D01*
X54606Y-26430D02*
X54606Y-25230D01*
G54D10*
X35433Y-22972D02*
X37795Y-22972D01*
X37795Y-22972D02*
X37795Y-22775D01*
X35433Y-22775D02*
X35433Y-22972D01*
X35433Y-21594D02*
X35433Y-21791D01*
X35433Y-21594D02*
X37795Y-21594D01*
X37795Y-21594D02*
X37795Y-21791D01*
X35433Y-26673D02*
X37795Y-26673D01*
X37795Y-26673D02*
X37795Y-26476D01*
X35433Y-26476D02*
X35433Y-26673D01*
X35433Y-25295D02*
X35433Y-25492D01*
X35433Y-25295D02*
X37795Y-25295D01*
X37795Y-25295D02*
X37795Y-25492D01*
X35433Y-29429D02*
X37795Y-29429D01*
X37795Y-29429D02*
X37795Y-29232D01*
X35433Y-29232D02*
X35433Y-29429D01*
X35433Y-28051D02*
X35433Y-28248D01*
X35433Y-28051D02*
X37795Y-28051D01*
X37795Y-28051D02*
X37795Y-28248D01*
X47637Y-24291D02*
X47637Y-27913D01*
X50393Y-24291D02*
X50393Y-27913D01*
X50393Y-24291D02*
X50393Y-23937D01*
X47637Y-24291D02*
X47637Y-23937D01*
X50393Y-28267D02*
X50393Y-27913D01*
X47637Y-28267D02*
X47637Y-27913D01*
X47637Y-28267D02*
X50393Y-28267D01*
X50393Y-23937D02*
X47637Y-23937D01*
G54D11*
X40814Y-25059D02*
X40814Y-25219D01*
X40823Y-25238D01*
X40833Y-25247D01*
X40852Y-25256D01*
X40889Y-25256D01*
X40908Y-25247D01*
X40917Y-25238D01*
X40927Y-25219D01*
X40927Y-25059D01*
X41002Y-25059D02*
X41123Y-25059D01*
X41058Y-25134D01*
X41086Y-25134D01*
X41105Y-25144D01*
X41114Y-25153D01*
X41123Y-25172D01*
X41123Y-25219D01*
X41114Y-25238D01*
X41105Y-25247D01*
X41086Y-25256D01*
X41030Y-25256D01*
X41011Y-25247D01*
X41002Y-25238D01*
X54534Y-27166D02*
X54440Y-27166D01*
X54440Y-26969D01*
X54702Y-27166D02*
X54590Y-27166D01*
X54646Y-27166D02*
X54646Y-26969D01*
X54627Y-26997D01*
X54609Y-27016D01*
X54590Y-27025D01*
G54D16*
X39037Y-27788D02*
X39046Y-27798D01*
X39056Y-27826D01*
X39056Y-27845D01*
X39046Y-27873D01*
X39027Y-27891D01*
X39009Y-27901D01*
X38971Y-27910D01*
X38943Y-27910D01*
X38906Y-27901D01*
X38887Y-27891D01*
X38868Y-27873D01*
X38859Y-27845D01*
X38859Y-27826D01*
X38868Y-27798D01*
X38877Y-27788D01*
X38877Y-27713D02*
X38868Y-27704D01*
X38859Y-27685D01*
X38859Y-27638D01*
X38868Y-27619D01*
X38877Y-27610D01*
X38896Y-27601D01*
X38915Y-27601D01*
X38943Y-27610D01*
X39056Y-27723D01*
X39056Y-27601D01*
X32314Y-23563D02*
X32248Y-23470D01*
X32201Y-23563D02*
X32201Y-23366D01*
X32276Y-23366D01*
X32295Y-23376D01*
X32304Y-23385D01*
X32314Y-23404D01*
X32314Y-23432D01*
X32304Y-23451D01*
X32295Y-23460D01*
X32276Y-23470D01*
X32201Y-23470D01*
X32501Y-23563D02*
X32389Y-23563D01*
X32445Y-23563D02*
X32445Y-23366D01*
X32426Y-23395D01*
X32408Y-23413D01*
X32389Y-23423D01*
X32670Y-23366D02*
X32633Y-23366D01*
X32614Y-23376D01*
X32605Y-23385D01*
X32586Y-23413D01*
X32576Y-23451D01*
X32576Y-23526D01*
X32586Y-23545D01*
X32595Y-23554D01*
X32614Y-23563D01*
X32652Y-23563D01*
X32670Y-23554D01*
X32680Y-23545D01*
X32689Y-23526D01*
X32689Y-23479D01*
X32680Y-23460D01*
X32670Y-23451D01*
X32652Y-23442D01*
X32614Y-23442D01*
X32595Y-23451D01*
X32586Y-23460D01*
X32576Y-23479D01*
X30681Y-24902D02*
X30681Y-24705D01*
X30728Y-24705D01*
X30756Y-24714D01*
X30775Y-24733D01*
X30784Y-24752D01*
X30793Y-24790D01*
X30793Y-24818D01*
X30784Y-24855D01*
X30775Y-24874D01*
X30756Y-24893D01*
X30728Y-24902D01*
X30681Y-24902D01*
X30981Y-24902D02*
X30868Y-24902D01*
X30925Y-24902D02*
X30925Y-24705D01*
X30906Y-24733D01*
X30887Y-24752D01*
X30868Y-24761D01*
X30681Y-23563D02*
X30681Y-23366D01*
X30728Y-23366D01*
X30756Y-23376D01*
X30775Y-23395D01*
X30784Y-23413D01*
X30793Y-23451D01*
X30793Y-23479D01*
X30784Y-23517D01*
X30775Y-23535D01*
X30756Y-23554D01*
X30728Y-23563D01*
X30681Y-23563D01*
X30868Y-23385D02*
X30878Y-23376D01*
X30897Y-23366D01*
X30944Y-23366D01*
X30962Y-23376D01*
X30972Y-23385D01*
X30981Y-23404D01*
X30981Y-23423D01*
X30972Y-23451D01*
X30859Y-23563D01*
X30981Y-23563D01*
X44612Y-30512D02*
X44547Y-30418D01*
X44500Y-30512D02*
X44500Y-30315D01*
X44575Y-30315D01*
X44594Y-30325D01*
X44603Y-30334D01*
X44612Y-30353D01*
X44612Y-30381D01*
X44603Y-30400D01*
X44594Y-30409D01*
X44575Y-30418D01*
X44500Y-30418D01*
X44781Y-30381D02*
X44781Y-30512D01*
X44734Y-30306D02*
X44687Y-30447D01*
X44809Y-30447D01*
X53317Y-24130D02*
X53251Y-24037D01*
X53204Y-24130D02*
X53204Y-23933D01*
X53280Y-23933D01*
X53298Y-23943D01*
X53308Y-23952D01*
X53317Y-23971D01*
X53317Y-23999D01*
X53308Y-24018D01*
X53298Y-24027D01*
X53280Y-24037D01*
X53204Y-24037D01*
X53505Y-24130D02*
X53392Y-24130D01*
X53448Y-24130D02*
X53448Y-23933D01*
X53430Y-23962D01*
X53411Y-23980D01*
X53392Y-23990D01*
X54852Y-24130D02*
X54787Y-24037D01*
X54740Y-24130D02*
X54740Y-23933D01*
X54815Y-23933D01*
X54834Y-23943D01*
X54843Y-23952D01*
X54852Y-23971D01*
X54852Y-23999D01*
X54843Y-24018D01*
X54834Y-24027D01*
X54815Y-24037D01*
X54740Y-24037D01*
X54928Y-23952D02*
X54937Y-23943D01*
X54956Y-23933D01*
X55003Y-23933D01*
X55021Y-23943D01*
X55031Y-23952D01*
X55040Y-23971D01*
X55040Y-23990D01*
X55031Y-24018D01*
X54918Y-24130D01*
X55040Y-24130D01*
X53317Y-26080D02*
X53308Y-26090D01*
X53280Y-26099D01*
X53261Y-26099D01*
X53233Y-26090D01*
X53214Y-26071D01*
X53204Y-26052D01*
X53195Y-26014D01*
X53195Y-25986D01*
X53204Y-25949D01*
X53214Y-25930D01*
X53233Y-25911D01*
X53261Y-25902D01*
X53280Y-25902D01*
X53308Y-25911D01*
X53317Y-25921D01*
X53383Y-25902D02*
X53505Y-25902D01*
X53439Y-25977D01*
X53467Y-25977D01*
X53486Y-25986D01*
X53495Y-25996D01*
X53505Y-26014D01*
X53505Y-26061D01*
X53495Y-26080D01*
X53486Y-26090D01*
X53467Y-26099D01*
X53411Y-26099D01*
X53392Y-26090D01*
X53383Y-26080D01*
X53868Y-28600D02*
X53859Y-28609D01*
X53831Y-28619D01*
X53812Y-28619D01*
X53784Y-28609D01*
X53765Y-28590D01*
X53756Y-28572D01*
X53746Y-28534D01*
X53746Y-28506D01*
X53756Y-28469D01*
X53765Y-28450D01*
X53784Y-28431D01*
X53812Y-28422D01*
X53831Y-28422D01*
X53859Y-28431D01*
X53868Y-28440D01*
X54037Y-28487D02*
X54037Y-28619D01*
X53990Y-28412D02*
X53943Y-28553D01*
X54065Y-28553D01*
X50542Y-30434D02*
X50476Y-30340D01*
X50430Y-30434D02*
X50430Y-30237D01*
X50505Y-30237D01*
X50523Y-30246D01*
X50533Y-30255D01*
X50542Y-30274D01*
X50542Y-30302D01*
X50533Y-30321D01*
X50523Y-30330D01*
X50505Y-30340D01*
X50430Y-30340D01*
X50730Y-30434D02*
X50617Y-30434D01*
X50673Y-30434D02*
X50673Y-30237D01*
X50655Y-30265D01*
X50636Y-30283D01*
X50617Y-30293D01*
X50899Y-30302D02*
X50899Y-30434D01*
X50852Y-30227D02*
X50805Y-30368D01*
X50927Y-30368D01*
X39037Y-29402D02*
X39046Y-29412D01*
X39056Y-29440D01*
X39056Y-29459D01*
X39046Y-29487D01*
X39027Y-29506D01*
X39009Y-29515D01*
X38971Y-29524D01*
X38943Y-29524D01*
X38906Y-29515D01*
X38887Y-29506D01*
X38868Y-29487D01*
X38859Y-29459D01*
X38859Y-29440D01*
X38868Y-29412D01*
X38877Y-29402D01*
X38859Y-29224D02*
X38859Y-29318D01*
X38952Y-29327D01*
X38943Y-29318D01*
X38934Y-29299D01*
X38934Y-29252D01*
X38943Y-29234D01*
X38952Y-29224D01*
X38971Y-29215D01*
X39018Y-29215D01*
X39037Y-29224D01*
X39046Y-29234D01*
X39056Y-29252D01*
X39056Y-29299D01*
X39046Y-29318D01*
X39037Y-29327D01*
X39056Y-26174D02*
X38962Y-26240D01*
X39056Y-26287D02*
X38859Y-26287D01*
X38859Y-26212D01*
X38868Y-26193D01*
X38877Y-26183D01*
X38896Y-26174D01*
X38924Y-26174D01*
X38943Y-26183D01*
X38952Y-26193D01*
X38962Y-26212D01*
X38962Y-26287D01*
X38859Y-26108D02*
X38859Y-25986D01*
X38934Y-26052D01*
X38934Y-26024D01*
X38943Y-26005D01*
X38952Y-25996D01*
X38971Y-25986D01*
X39018Y-25986D01*
X39037Y-25996D01*
X39046Y-26005D01*
X39056Y-26024D01*
X39056Y-26080D01*
X39046Y-26099D01*
X39037Y-26108D01*
X42683Y-30512D02*
X42618Y-30418D01*
X42571Y-30512D02*
X42571Y-30315D01*
X42646Y-30315D01*
X42664Y-30325D01*
X42674Y-30334D01*
X42683Y-30353D01*
X42683Y-30381D01*
X42674Y-30400D01*
X42664Y-30409D01*
X42646Y-30418D01*
X42571Y-30418D01*
X42861Y-30315D02*
X42768Y-30315D01*
X42758Y-30409D01*
X42768Y-30400D01*
X42786Y-30390D01*
X42833Y-30390D01*
X42852Y-30400D01*
X42861Y-30409D01*
X42871Y-30428D01*
X42871Y-30475D01*
X42861Y-30494D01*
X42852Y-30503D01*
X42833Y-30512D01*
X42786Y-30512D01*
X42768Y-30503D01*
X42758Y-30494D01*
X39691Y-24037D02*
X39682Y-24046D01*
X39654Y-24056D01*
X39635Y-24056D01*
X39607Y-24046D01*
X39588Y-24027D01*
X39579Y-24009D01*
X39569Y-23971D01*
X39569Y-23943D01*
X39579Y-23906D01*
X39588Y-23887D01*
X39607Y-23868D01*
X39635Y-23859D01*
X39654Y-23859D01*
X39682Y-23868D01*
X39691Y-23877D01*
X39757Y-23859D02*
X39888Y-23859D01*
X39804Y-24056D01*
X37117Y-24252D02*
X37051Y-24159D01*
X37004Y-24252D02*
X37004Y-24055D01*
X37079Y-24055D01*
X37098Y-24065D01*
X37108Y-24074D01*
X37117Y-24093D01*
X37117Y-24121D01*
X37108Y-24140D01*
X37098Y-24149D01*
X37079Y-24159D01*
X37004Y-24159D01*
X37305Y-24252D02*
X37192Y-24252D01*
X37248Y-24252D02*
X37248Y-24055D01*
X37230Y-24084D01*
X37211Y-24102D01*
X37192Y-24112D01*
X37380Y-24074D02*
X37389Y-24065D01*
X37408Y-24055D01*
X37455Y-24055D01*
X37473Y-24065D01*
X37483Y-24074D01*
X37492Y-24093D01*
X37492Y-24112D01*
X37483Y-24140D01*
X37370Y-24252D01*
X37492Y-24252D01*
X32314Y-24902D02*
X32248Y-24808D01*
X32201Y-24902D02*
X32201Y-24705D01*
X32276Y-24705D01*
X32295Y-24714D01*
X32304Y-24724D01*
X32314Y-24743D01*
X32314Y-24771D01*
X32304Y-24790D01*
X32295Y-24799D01*
X32276Y-24808D01*
X32201Y-24808D01*
X32501Y-24902D02*
X32389Y-24902D01*
X32445Y-24902D02*
X32445Y-24705D01*
X32426Y-24733D01*
X32408Y-24752D01*
X32389Y-24761D01*
X32680Y-24705D02*
X32586Y-24705D01*
X32576Y-24799D01*
X32586Y-24790D01*
X32605Y-24780D01*
X32652Y-24780D01*
X32670Y-24790D01*
X32680Y-24799D01*
X32689Y-24818D01*
X32689Y-24865D01*
X32680Y-24883D01*
X32670Y-24893D01*
X32652Y-24902D01*
X32605Y-24902D01*
X32586Y-24893D01*
X32576Y-24883D01*
X41108Y-24411D02*
X41099Y-24420D01*
X41071Y-24430D01*
X41052Y-24430D01*
X41024Y-24420D01*
X41005Y-24401D01*
X40996Y-24383D01*
X40986Y-24345D01*
X40986Y-24317D01*
X40996Y-24280D01*
X41005Y-24261D01*
X41024Y-24242D01*
X41052Y-24233D01*
X41071Y-24233D01*
X41099Y-24242D01*
X41108Y-24251D01*
X41202Y-24430D02*
X41240Y-24430D01*
X41258Y-24420D01*
X41268Y-24411D01*
X41287Y-24383D01*
X41296Y-24345D01*
X41296Y-24270D01*
X41287Y-24251D01*
X41277Y-24242D01*
X41258Y-24233D01*
X41221Y-24233D01*
X41202Y-24242D01*
X41193Y-24251D01*
X41183Y-24270D01*
X41183Y-24317D01*
X41193Y-24336D01*
X41202Y-24345D01*
X41221Y-24355D01*
X41258Y-24355D01*
X41277Y-24345D01*
X41287Y-24336D01*
X41296Y-24317D01*
X43377Y-23604D02*
X43367Y-23613D01*
X43339Y-23623D01*
X43321Y-23623D01*
X43292Y-23613D01*
X43274Y-23594D01*
X43264Y-23576D01*
X43255Y-23538D01*
X43255Y-23510D01*
X43264Y-23472D01*
X43274Y-23454D01*
X43292Y-23435D01*
X43321Y-23426D01*
X43339Y-23426D01*
X43367Y-23435D01*
X43377Y-23444D01*
X43564Y-23623D02*
X43452Y-23623D01*
X43508Y-23623D02*
X43508Y-23426D01*
X43489Y-23454D01*
X43471Y-23472D01*
X43452Y-23482D01*
X43686Y-23426D02*
X43705Y-23426D01*
X43724Y-23435D01*
X43733Y-23444D01*
X43743Y-23463D01*
X43752Y-23501D01*
X43752Y-23547D01*
X43743Y-23585D01*
X43733Y-23604D01*
X43724Y-23613D01*
X43705Y-23623D01*
X43686Y-23623D01*
X43668Y-23613D01*
X43658Y-23604D01*
X43649Y-23585D01*
X43639Y-23547D01*
X43639Y-23501D01*
X43649Y-23463D01*
X43658Y-23444D01*
X43668Y-23435D01*
X43686Y-23426D01*
G54D11*
X56305Y-27698D02*
X56296Y-27708D01*
X56268Y-27717D01*
X56249Y-27717D01*
X56221Y-27708D01*
X56202Y-27689D01*
X56193Y-27670D01*
X56183Y-27633D01*
X56183Y-27604D01*
X56193Y-27567D01*
X56202Y-27548D01*
X56221Y-27529D01*
X56249Y-27520D01*
X56268Y-27520D01*
X56296Y-27529D01*
X56305Y-27539D01*
X56493Y-27717D02*
X56380Y-27717D01*
X56437Y-27717D02*
X56437Y-27520D01*
X56418Y-27548D01*
X56399Y-27567D01*
X56380Y-27576D01*
G54D16*
X44652Y-25179D02*
X44642Y-25188D01*
X44614Y-25197D01*
X44595Y-25197D01*
X44567Y-25188D01*
X44549Y-25169D01*
X44539Y-25150D01*
X44530Y-25113D01*
X44530Y-25085D01*
X44539Y-25047D01*
X44549Y-25028D01*
X44567Y-25010D01*
X44595Y-25000D01*
X44614Y-25000D01*
X44642Y-25010D01*
X44652Y-25019D01*
X44764Y-25085D02*
X44746Y-25075D01*
X44736Y-25066D01*
X44727Y-25047D01*
X44727Y-25038D01*
X44736Y-25019D01*
X44746Y-25010D01*
X44764Y-25000D01*
X44802Y-25000D01*
X44821Y-25010D01*
X44830Y-25019D01*
X44839Y-25038D01*
X44839Y-25047D01*
X44830Y-25066D01*
X44821Y-25075D01*
X44802Y-25085D01*
X44764Y-25085D01*
X44746Y-25094D01*
X44736Y-25104D01*
X44727Y-25122D01*
X44727Y-25160D01*
X44736Y-25179D01*
X44746Y-25188D01*
X44764Y-25197D01*
X44802Y-25197D01*
X44821Y-25188D01*
X44830Y-25179D01*
X44839Y-25160D01*
X44839Y-25122D01*
X44830Y-25104D01*
X44821Y-25094D01*
X44802Y-25085D01*
X46620Y-30315D02*
X46555Y-30222D01*
X46508Y-30315D02*
X46508Y-30118D01*
X46583Y-30118D01*
X46601Y-30128D01*
X46611Y-30137D01*
X46620Y-30156D01*
X46620Y-30184D01*
X46611Y-30203D01*
X46601Y-30212D01*
X46583Y-30222D01*
X46508Y-30222D01*
X46789Y-30118D02*
X46752Y-30118D01*
X46733Y-30128D01*
X46723Y-30137D01*
X46705Y-30165D01*
X46695Y-30203D01*
X46695Y-30278D01*
X46705Y-30297D01*
X46714Y-30306D01*
X46733Y-30315D01*
X46770Y-30315D01*
X46789Y-30306D01*
X46798Y-30297D01*
X46808Y-30278D01*
X46808Y-30231D01*
X46798Y-30212D01*
X46789Y-30203D01*
X46770Y-30194D01*
X46733Y-30194D01*
X46714Y-30203D01*
X46705Y-30212D01*
X46695Y-30231D01*
X51502Y-23347D02*
X51436Y-23253D01*
X51390Y-23347D02*
X51390Y-23150D01*
X51465Y-23150D01*
X51483Y-23159D01*
X51493Y-23169D01*
X51502Y-23187D01*
X51502Y-23216D01*
X51493Y-23234D01*
X51483Y-23244D01*
X51465Y-23253D01*
X51390Y-23253D01*
X51568Y-23150D02*
X51699Y-23150D01*
X51615Y-23347D01*
X50321Y-23347D02*
X50255Y-23253D01*
X50208Y-23347D02*
X50208Y-23150D01*
X50283Y-23150D01*
X50302Y-23159D01*
X50312Y-23169D01*
X50321Y-23187D01*
X50321Y-23216D01*
X50312Y-23234D01*
X50302Y-23244D01*
X50283Y-23253D01*
X50208Y-23253D01*
X50434Y-23234D02*
X50415Y-23225D01*
X50405Y-23216D01*
X50396Y-23197D01*
X50396Y-23187D01*
X50405Y-23169D01*
X50415Y-23159D01*
X50434Y-23150D01*
X50471Y-23150D01*
X50490Y-23159D01*
X50499Y-23169D01*
X50509Y-23187D01*
X50509Y-23197D01*
X50499Y-23216D01*
X50490Y-23225D01*
X50471Y-23234D01*
X50434Y-23234D01*
X50415Y-23244D01*
X50405Y-23253D01*
X50396Y-23272D01*
X50396Y-23309D01*
X50405Y-23328D01*
X50415Y-23338D01*
X50434Y-23347D01*
X50471Y-23347D01*
X50490Y-23338D01*
X50499Y-23328D01*
X50509Y-23309D01*
X50509Y-23272D01*
X50499Y-23253D01*
X50490Y-23244D01*
X50471Y-23234D01*
X45321Y-28150D02*
X45255Y-28056D01*
X45208Y-28150D02*
X45208Y-27953D01*
X45283Y-27953D01*
X45302Y-27962D01*
X45312Y-27972D01*
X45321Y-27991D01*
X45321Y-28019D01*
X45312Y-28038D01*
X45302Y-28047D01*
X45283Y-28056D01*
X45208Y-28056D01*
X45415Y-28150D02*
X45452Y-28150D01*
X45471Y-28141D01*
X45480Y-28131D01*
X45499Y-28103D01*
X45509Y-28066D01*
X45509Y-27991D01*
X45499Y-27972D01*
X45490Y-27962D01*
X45471Y-27953D01*
X45434Y-27953D01*
X45415Y-27962D01*
X45405Y-27972D01*
X45396Y-27991D01*
X45396Y-28038D01*
X45405Y-28056D01*
X45415Y-28066D01*
X45434Y-28075D01*
X45471Y-28075D01*
X45490Y-28066D01*
X45499Y-28056D01*
X45509Y-28038D01*
X45818Y-25670D02*
X45752Y-25576D01*
X45705Y-25670D02*
X45705Y-25473D01*
X45780Y-25473D01*
X45799Y-25482D01*
X45808Y-25492D01*
X45818Y-25510D01*
X45818Y-25538D01*
X45808Y-25557D01*
X45799Y-25567D01*
X45780Y-25576D01*
X45705Y-25576D01*
X46005Y-25670D02*
X45893Y-25670D01*
X45949Y-25670D02*
X45949Y-25473D01*
X45930Y-25501D01*
X45912Y-25520D01*
X45893Y-25529D01*
X46127Y-25473D02*
X46146Y-25473D01*
X46165Y-25482D01*
X46174Y-25492D01*
X46184Y-25510D01*
X46193Y-25548D01*
X46193Y-25595D01*
X46184Y-25632D01*
X46174Y-25651D01*
X46165Y-25660D01*
X46146Y-25670D01*
X46127Y-25670D01*
X46109Y-25660D01*
X46099Y-25651D01*
X46090Y-25632D01*
X46080Y-25595D01*
X46080Y-25548D01*
X46090Y-25510D01*
X46099Y-25492D01*
X46109Y-25482D01*
X46127Y-25473D01*
X45818Y-23583D02*
X45752Y-23489D01*
X45705Y-23583D02*
X45705Y-23386D01*
X45780Y-23386D01*
X45799Y-23396D01*
X45808Y-23405D01*
X45818Y-23424D01*
X45818Y-23452D01*
X45808Y-23471D01*
X45799Y-23480D01*
X45780Y-23489D01*
X45705Y-23489D01*
X46005Y-23583D02*
X45893Y-23583D01*
X45949Y-23583D02*
X45949Y-23386D01*
X45930Y-23414D01*
X45912Y-23433D01*
X45893Y-23442D01*
X46193Y-23583D02*
X46080Y-23583D01*
X46137Y-23583D02*
X46137Y-23386D01*
X46118Y-23414D01*
X46099Y-23433D01*
X46080Y-23442D01*
X46841Y-22126D02*
X46776Y-22033D01*
X46729Y-22126D02*
X46729Y-21929D01*
X46804Y-21929D01*
X46823Y-21939D01*
X46832Y-21948D01*
X46841Y-21967D01*
X46841Y-21995D01*
X46832Y-22014D01*
X46823Y-22023D01*
X46804Y-22033D01*
X46729Y-22033D01*
X47029Y-22126D02*
X46916Y-22126D01*
X46973Y-22126D02*
X46973Y-21929D01*
X46954Y-21958D01*
X46935Y-21976D01*
X46916Y-21986D01*
X47095Y-21929D02*
X47217Y-21929D01*
X47151Y-22005D01*
X47179Y-22005D01*
X47198Y-22014D01*
X47207Y-22023D01*
X47217Y-22042D01*
X47217Y-22089D01*
X47207Y-22108D01*
X47198Y-22117D01*
X47179Y-22126D01*
X47123Y-22126D01*
X47104Y-22117D01*
X47095Y-22108D01*
X41305Y-29982D02*
X41296Y-29991D01*
X41268Y-30000D01*
X41249Y-30000D01*
X41221Y-29991D01*
X41202Y-29972D01*
X41193Y-29954D01*
X41183Y-29916D01*
X41183Y-29888D01*
X41193Y-29850D01*
X41202Y-29832D01*
X41221Y-29813D01*
X41249Y-29803D01*
X41268Y-29803D01*
X41296Y-29813D01*
X41305Y-29822D01*
X41474Y-29803D02*
X41437Y-29803D01*
X41418Y-29813D01*
X41408Y-29822D01*
X41390Y-29850D01*
X41380Y-29888D01*
X41380Y-29963D01*
X41390Y-29982D01*
X41399Y-29991D01*
X41418Y-30000D01*
X41455Y-30000D01*
X41474Y-29991D01*
X41483Y-29982D01*
X41493Y-29963D01*
X41493Y-29916D01*
X41483Y-29897D01*
X41474Y-29888D01*
X41455Y-29879D01*
X41418Y-29879D01*
X41399Y-29888D01*
X41390Y-29897D01*
X41380Y-29916D01*
G54D11*
X52925Y-21890D02*
X52925Y-21693D01*
X53000Y-21693D01*
X53019Y-21703D01*
X53028Y-21712D01*
X53038Y-21731D01*
X53038Y-21759D01*
X53028Y-21778D01*
X53019Y-21787D01*
X53000Y-21796D01*
X52925Y-21796D01*
X53225Y-21890D02*
X53113Y-21890D01*
X53169Y-21890D02*
X53169Y-21693D01*
X53150Y-21721D01*
X53131Y-21740D01*
X53113Y-21750D01*
X56784Y-28101D02*
X56812Y-28111D01*
X56859Y-28111D01*
X56878Y-28101D01*
X56887Y-28092D01*
X56897Y-28073D01*
X56897Y-28054D01*
X56887Y-28036D01*
X56878Y-28026D01*
X56859Y-28017D01*
X56822Y-28008D01*
X56803Y-27998D01*
X56794Y-27989D01*
X56784Y-27970D01*
X56784Y-27951D01*
X56794Y-27933D01*
X56803Y-27923D01*
X56822Y-27914D01*
X56869Y-27914D01*
X56897Y-27923D01*
X56962Y-27914D02*
X57009Y-28111D01*
X57047Y-27970D01*
X57084Y-28111D01*
X57131Y-27914D01*
X57309Y-28111D02*
X57197Y-28111D01*
X57253Y-28111D02*
X57253Y-27914D01*
X57234Y-27942D01*
X57215Y-27961D01*
X57197Y-27970D01*
X39945Y-23174D02*
X39945Y-23268D01*
X39880Y-23071D02*
X39945Y-23174D01*
X40011Y-23071D01*
X40179Y-23268D02*
X40067Y-23268D01*
X40123Y-23268D02*
X40123Y-23071D01*
X40104Y-23099D01*
X40086Y-23118D01*
X40067Y-23128D01*
X55794Y-25237D02*
X55794Y-25396D01*
X55804Y-25415D01*
X55813Y-25424D01*
X55832Y-25434D01*
X55869Y-25434D01*
X55888Y-25424D01*
X55898Y-25415D01*
X55907Y-25396D01*
X55907Y-25237D01*
X56104Y-25434D02*
X55991Y-25434D01*
X56047Y-25434D02*
X56047Y-25237D01*
X56029Y-25265D01*
X56010Y-25284D01*
X55991Y-25293D01*
X37434Y-23239D02*
X37462Y-23248D01*
X37509Y-23248D01*
X37528Y-23239D01*
X37537Y-23230D01*
X37546Y-23211D01*
X37546Y-23192D01*
X37537Y-23173D01*
X37528Y-23164D01*
X37509Y-23155D01*
X37471Y-23145D01*
X37453Y-23136D01*
X37443Y-23127D01*
X37434Y-23108D01*
X37434Y-23089D01*
X37443Y-23070D01*
X37453Y-23061D01*
X37471Y-23052D01*
X37518Y-23052D01*
X37546Y-23061D01*
X37612Y-23052D02*
X37659Y-23248D01*
X37696Y-23108D01*
X37734Y-23248D01*
X37781Y-23052D01*
X37940Y-23117D02*
X37940Y-23248D01*
X37893Y-23042D02*
X37846Y-23183D01*
X37968Y-23183D01*
G54D10*
X33320Y-22442D02*
X33320Y-22049D01*
X33451Y-22330D01*
X33582Y-22049D01*
X33582Y-22442D01*
X33826Y-22442D02*
X33788Y-22424D01*
X33770Y-22405D01*
X33751Y-22367D01*
X33751Y-22255D01*
X33770Y-22217D01*
X33788Y-22199D01*
X33826Y-22180D01*
X33882Y-22180D01*
X33920Y-22199D01*
X33938Y-22217D01*
X33957Y-22255D01*
X33957Y-22367D01*
X33938Y-22405D01*
X33920Y-22424D01*
X33882Y-22442D01*
X33826Y-22442D01*
X34295Y-22442D02*
X34295Y-22049D01*
X34295Y-22424D02*
X34257Y-22442D01*
X34182Y-22442D01*
X34145Y-22424D01*
X34126Y-22405D01*
X34107Y-22367D01*
X34107Y-22255D01*
X34126Y-22217D01*
X34145Y-22199D01*
X34182Y-22180D01*
X34257Y-22180D01*
X34295Y-22199D01*
X34632Y-22424D02*
X34595Y-22442D01*
X34520Y-22442D01*
X34482Y-22424D01*
X34463Y-22386D01*
X34463Y-22236D01*
X34482Y-22199D01*
X34520Y-22180D01*
X34595Y-22180D01*
X34632Y-22199D01*
X34651Y-22236D01*
X34651Y-22274D01*
X34463Y-22311D01*
G54D11*
X37434Y-26940D02*
X37462Y-26949D01*
X37509Y-26949D01*
X37528Y-26940D01*
X37537Y-26931D01*
X37546Y-26912D01*
X37546Y-26893D01*
X37537Y-26874D01*
X37528Y-26865D01*
X37509Y-26856D01*
X37471Y-26846D01*
X37453Y-26837D01*
X37443Y-26827D01*
X37434Y-26809D01*
X37434Y-26790D01*
X37443Y-26771D01*
X37453Y-26762D01*
X37471Y-26752D01*
X37518Y-26752D01*
X37546Y-26762D01*
X37612Y-26752D02*
X37659Y-26949D01*
X37696Y-26809D01*
X37734Y-26949D01*
X37781Y-26752D01*
X37837Y-26752D02*
X37959Y-26752D01*
X37893Y-26827D01*
X37921Y-26827D01*
X37940Y-26837D01*
X37949Y-26846D01*
X37959Y-26865D01*
X37959Y-26912D01*
X37949Y-26931D01*
X37940Y-26940D01*
X37921Y-26949D01*
X37865Y-26949D01*
X37846Y-26940D01*
X37837Y-26931D01*
G54D10*
X34385Y-26134D02*
X34497Y-25834D01*
X34610Y-26134D01*
G54D11*
X37434Y-29696D02*
X37462Y-29705D01*
X37509Y-29705D01*
X37528Y-29696D01*
X37537Y-29686D01*
X37546Y-29668D01*
X37546Y-29649D01*
X37537Y-29630D01*
X37528Y-29621D01*
X37509Y-29611D01*
X37471Y-29602D01*
X37453Y-29593D01*
X37443Y-29583D01*
X37434Y-29565D01*
X37434Y-29546D01*
X37443Y-29527D01*
X37453Y-29518D01*
X37471Y-29508D01*
X37518Y-29508D01*
X37546Y-29518D01*
X37612Y-29508D02*
X37659Y-29705D01*
X37696Y-29565D01*
X37734Y-29705D01*
X37781Y-29508D01*
X37846Y-29527D02*
X37856Y-29518D01*
X37874Y-29508D01*
X37921Y-29508D01*
X37940Y-29518D01*
X37949Y-29527D01*
X37959Y-29546D01*
X37959Y-29565D01*
X37949Y-29593D01*
X37837Y-29705D01*
X37959Y-29705D01*
G54D10*
X34385Y-28590D02*
X34497Y-28890D01*
X34610Y-28590D01*
G54D11*
X47645Y-28426D02*
X47645Y-28585D01*
X47654Y-28604D01*
X47664Y-28613D01*
X47682Y-28622D01*
X47720Y-28622D01*
X47739Y-28613D01*
X47748Y-28604D01*
X47757Y-28585D01*
X47757Y-28426D01*
X47842Y-28444D02*
X47851Y-28435D01*
X47870Y-28426D01*
X47917Y-28426D01*
X47935Y-28435D01*
X47945Y-28444D01*
X47954Y-28463D01*
X47954Y-28482D01*
X47945Y-28510D01*
X47832Y-28622D01*
X47954Y-28622D01*
%LPC*%
G54D17*
X43730Y-28746D03*
X43415Y-28746D03*
X43100Y-28746D03*
X42785Y-28746D03*
X42470Y-28746D03*
X42155Y-28746D03*
X41840Y-28746D03*
X41525Y-28746D03*
X41527Y-24980D03*
X43737Y-24980D03*
X43417Y-24980D03*
X43097Y-24980D03*
X42787Y-24980D03*
X42467Y-24980D03*
X42157Y-24980D03*
X41837Y-24980D03*
G54D18*
X40737Y-27962D03*
X40737Y-27648D03*
X40737Y-27332D03*
X40737Y-27018D03*
X40737Y-26702D03*
X40737Y-26388D03*
X40737Y-26072D03*
X40737Y-25758D03*
X44517Y-27960D03*
X44517Y-27650D03*
X44517Y-27330D03*
X44517Y-27020D03*
X44517Y-26710D03*
X44517Y-26390D03*
X44517Y-26070D03*
X44517Y-25750D03*
G54D19*
X53937Y-26850D03*
X52913Y-26850D03*
G54D20*
X39448Y-28130D03*
X39448Y-27380D03*
G54D21*
X32815Y-22952D03*
X32065Y-22952D03*
X31201Y-24291D03*
X30451Y-24291D03*
X31201Y-22952D03*
X30451Y-22952D03*
G54D20*
X44645Y-29981D03*
X44645Y-29231D03*
G54D21*
X53721Y-24566D03*
X52971Y-24566D03*
X55256Y-24566D03*
X54506Y-24566D03*
X53721Y-25472D03*
X52971Y-25472D03*
X54272Y-27992D03*
X53522Y-27992D03*
X50294Y-29803D03*
X51044Y-29803D03*
G54D20*
X39448Y-29745D03*
X39448Y-28995D03*
X39448Y-25766D03*
X39448Y-26516D03*
G54D21*
X43091Y-29881D03*
X42341Y-29881D03*
X40099Y-24448D03*
X39349Y-24448D03*
G54D20*
X37874Y-23798D03*
X37874Y-24548D03*
G54D21*
X32815Y-24291D03*
X32065Y-24291D03*
X42382Y-23976D03*
X41632Y-23976D03*
X43128Y-23976D03*
X43878Y-23976D03*
G54D20*
X55708Y-26750D03*
X55708Y-27500D03*
X44724Y-23876D03*
X44724Y-24626D03*
G54D21*
X46278Y-29685D03*
X47028Y-29685D03*
G54D20*
X51535Y-22065D03*
X51535Y-22815D03*
X50354Y-22065D03*
X50354Y-22815D03*
X45944Y-28445D03*
X45944Y-27695D03*
X45944Y-26002D03*
X45944Y-26752D03*
X45944Y-24626D03*
X45944Y-23876D03*
G54D21*
X46593Y-22559D03*
X47343Y-22559D03*
G54D20*
X40708Y-28995D03*
X40708Y-29745D03*
G54D22*
X53960Y-23137D03*
G54D23*
X53960Y-22137D03*
X54960Y-23137D03*
X54960Y-22137D03*
X55960Y-23137D03*
X55960Y-22137D03*
G54D24*
X57322Y-24842D03*
X57322Y-27401D03*
G54D25*
X40767Y-22401D03*
X44507Y-22401D03*
G54D26*
X55456Y-26205D03*
X55456Y-25455D03*
X54456Y-26205D03*
X55456Y-25830D03*
X54456Y-25455D03*
G54D27*
X37893Y-22283D03*
X35334Y-22283D03*
X37893Y-25984D03*
X35334Y-25984D03*
X37893Y-28740D03*
X35334Y-28740D03*
G54D28*
X48503Y-29553D03*
X48503Y-22651D03*
G54D29*
X57893Y-28602D03*
X57893Y-23602D03*
G54D30*
X50590Y-26102D03*
X47440Y-26102D03*
X50590Y-25314D03*
X47440Y-25314D03*
X47440Y-24527D03*
X50590Y-24527D03*
X50590Y-26889D03*
X50590Y-27677D03*
X47440Y-27677D03*
X47440Y-26889D03*
M02*
