G04 (created by PCBNEW (2013-07-07 BZR 4022)-stable) date 30/01/2014 10:35:41 PM*
%MOIN*%
G04 Gerber Fmt 3.4, Leading zero omitted, Abs format*
%FSLAX34Y34*%
G01*
G70*
G90*
G04 APERTURE LIST*
%ADD10C,0.00590551*%
%ADD11C,0.00492126*%
%ADD12C,0.006*%
%ADD13C,0.0039*%
%ADD14C,0.008*%
%ADD15C,0.005*%
%ADD16C,0.0043*%
G04 APERTURE END LIST*
G54D10*
G54D11*
X61026Y-29267D02*
X61054Y-29277D01*
X61063Y-29286D01*
X61073Y-29305D01*
X61073Y-29333D01*
X61063Y-29352D01*
X61054Y-29361D01*
X61035Y-29371D01*
X60960Y-29371D01*
X60960Y-29174D01*
X61026Y-29174D01*
X61045Y-29183D01*
X61054Y-29192D01*
X61063Y-29211D01*
X61063Y-29230D01*
X61054Y-29249D01*
X61045Y-29258D01*
X61026Y-29267D01*
X60960Y-29267D01*
X61129Y-29174D02*
X61242Y-29174D01*
X61185Y-29371D02*
X61185Y-29174D01*
X61410Y-29371D02*
X61298Y-29371D01*
X61354Y-29371D02*
X61354Y-29174D01*
X61335Y-29202D01*
X61317Y-29221D01*
X61298Y-29230D01*
G54D10*
X62847Y-27127D02*
X62922Y-27127D01*
X62960Y-27146D01*
X62997Y-27184D01*
X63016Y-27259D01*
X63016Y-27390D01*
X62997Y-27465D01*
X62960Y-27502D01*
X62922Y-27521D01*
X62847Y-27521D01*
X62810Y-27502D01*
X62772Y-27465D01*
X62754Y-27390D01*
X62754Y-27259D01*
X62772Y-27184D01*
X62810Y-27146D01*
X62847Y-27127D01*
X63128Y-27259D02*
X63278Y-27259D01*
X63185Y-27521D02*
X63185Y-27184D01*
X63203Y-27146D01*
X63241Y-27127D01*
X63278Y-27127D01*
X63353Y-27259D02*
X63503Y-27259D01*
X63410Y-27521D02*
X63410Y-27184D01*
X63428Y-27146D01*
X63466Y-27127D01*
X63503Y-27127D01*
X62815Y-24529D02*
X62890Y-24529D01*
X62928Y-24548D01*
X62965Y-24585D01*
X62984Y-24660D01*
X62984Y-24791D01*
X62965Y-24866D01*
X62928Y-24904D01*
X62890Y-24923D01*
X62815Y-24923D01*
X62778Y-24904D01*
X62740Y-24866D01*
X62722Y-24791D01*
X62722Y-24660D01*
X62740Y-24585D01*
X62778Y-24548D01*
X62815Y-24529D01*
X63153Y-24660D02*
X63153Y-24923D01*
X63153Y-24698D02*
X63172Y-24679D01*
X63209Y-24660D01*
X63265Y-24660D01*
X63303Y-24679D01*
X63322Y-24716D01*
X63322Y-24923D01*
G54D12*
X45779Y-26975D02*
X45329Y-26975D01*
X45779Y-24795D02*
X45339Y-24795D01*
X45779Y-26975D02*
X45779Y-24795D01*
X44899Y-27445D02*
X44899Y-27875D01*
X42689Y-27455D02*
X42689Y-27875D01*
X42679Y-27875D02*
X44899Y-27885D01*
X42699Y-23905D02*
X44869Y-23895D01*
X42269Y-24595D02*
X42269Y-27425D01*
X44879Y-23905D02*
X44879Y-24315D01*
X42519Y-24355D02*
X45299Y-24355D01*
X45319Y-27435D02*
X45319Y-24395D01*
X42269Y-27435D02*
X45269Y-27435D01*
X41819Y-24765D02*
X41819Y-26985D01*
X41819Y-26985D02*
X42269Y-26985D01*
X42273Y-24585D02*
X42503Y-24355D01*
X41821Y-24765D02*
X42273Y-24765D01*
X42699Y-24355D02*
X42699Y-23903D01*
X42869Y-24759D02*
G75*
G03X42869Y-24759I-188J0D01*
G74*
G01*
G54D13*
X40704Y-30689D02*
G75*
G03X40704Y-30689I-50J0D01*
G74*
G01*
X40654Y-30239D02*
X40654Y-30639D01*
X40654Y-30639D02*
X40054Y-30639D01*
X40054Y-30639D02*
X40054Y-30239D01*
X40054Y-29839D02*
X40054Y-29439D01*
X40054Y-29439D02*
X40654Y-29439D01*
X40654Y-29439D02*
X40654Y-29839D01*
X33574Y-23995D02*
G75*
G03X33574Y-23995I-50J0D01*
G74*
G01*
X33074Y-23995D02*
X33474Y-23995D01*
X33474Y-23995D02*
X33474Y-24595D01*
X33474Y-24595D02*
X33074Y-24595D01*
X32674Y-24595D02*
X32274Y-24595D01*
X32274Y-24595D02*
X32274Y-23995D01*
X32274Y-23995D02*
X32674Y-23995D01*
X31900Y-22656D02*
G75*
G03X31900Y-22656I-50J0D01*
G74*
G01*
X31400Y-22656D02*
X31800Y-22656D01*
X31800Y-22656D02*
X31800Y-23256D01*
X31800Y-23256D02*
X31400Y-23256D01*
X31000Y-23256D02*
X30600Y-23256D01*
X30600Y-23256D02*
X30600Y-22656D01*
X30600Y-22656D02*
X31000Y-22656D01*
X31900Y-23995D02*
G75*
G03X31900Y-23995I-50J0D01*
G74*
G01*
X31400Y-23995D02*
X31800Y-23995D01*
X31800Y-23995D02*
X31800Y-24595D01*
X31800Y-24595D02*
X31400Y-24595D01*
X31000Y-24595D02*
X30600Y-24595D01*
X30600Y-24595D02*
X30600Y-23995D01*
X30600Y-23995D02*
X31000Y-23995D01*
X46279Y-30319D02*
G75*
G03X46279Y-30319I-50J0D01*
G74*
G01*
X46229Y-29869D02*
X46229Y-30269D01*
X46229Y-30269D02*
X45629Y-30269D01*
X45629Y-30269D02*
X45629Y-29869D01*
X45629Y-29469D02*
X45629Y-29069D01*
X45629Y-29069D02*
X46229Y-29069D01*
X46229Y-29069D02*
X46229Y-29469D01*
X59003Y-24388D02*
G75*
G03X59003Y-24388I-50J0D01*
G74*
G01*
X58503Y-24388D02*
X58903Y-24388D01*
X58903Y-24388D02*
X58903Y-24988D01*
X58903Y-24988D02*
X58503Y-24988D01*
X58103Y-24988D02*
X57703Y-24988D01*
X57703Y-24988D02*
X57703Y-24388D01*
X57703Y-24388D02*
X58103Y-24388D01*
X60381Y-24388D02*
G75*
G03X60381Y-24388I-50J0D01*
G74*
G01*
X59881Y-24388D02*
X60281Y-24388D01*
X60281Y-24388D02*
X60281Y-24988D01*
X60281Y-24988D02*
X59881Y-24988D01*
X59481Y-24988D02*
X59081Y-24988D01*
X59081Y-24988D02*
X59081Y-24388D01*
X59081Y-24388D02*
X59481Y-24388D01*
X58967Y-25172D02*
G75*
G03X58967Y-25172I-50J0D01*
G74*
G01*
X58467Y-25172D02*
X58867Y-25172D01*
X58867Y-25172D02*
X58867Y-25772D01*
X58867Y-25772D02*
X58467Y-25772D01*
X58067Y-25772D02*
X57667Y-25772D01*
X57667Y-25772D02*
X57667Y-25172D01*
X57667Y-25172D02*
X58067Y-25172D01*
X59479Y-27810D02*
G75*
G03X59479Y-27810I-50J0D01*
G74*
G01*
X58979Y-27810D02*
X59379Y-27810D01*
X59379Y-27810D02*
X59379Y-28410D01*
X59379Y-28410D02*
X58979Y-28410D01*
X58579Y-28410D02*
X58179Y-28410D01*
X58179Y-28410D02*
X58179Y-27810D01*
X58179Y-27810D02*
X58579Y-27810D01*
X55531Y-29807D02*
G75*
G03X55531Y-29807I-50J0D01*
G74*
G01*
X55481Y-29357D02*
X55481Y-29757D01*
X55481Y-29757D02*
X54881Y-29757D01*
X54881Y-29757D02*
X54881Y-29357D01*
X54881Y-28957D02*
X54881Y-28557D01*
X54881Y-28557D02*
X55481Y-28557D01*
X55481Y-28557D02*
X55481Y-28957D01*
X41688Y-28996D02*
G75*
G03X41688Y-28996I-50J0D01*
G74*
G01*
X41638Y-28546D02*
X41638Y-28946D01*
X41638Y-28946D02*
X41038Y-28946D01*
X41038Y-28946D02*
X41038Y-28546D01*
X41038Y-28146D02*
X41038Y-27746D01*
X41038Y-27746D02*
X41638Y-27746D01*
X41638Y-27746D02*
X41638Y-28146D01*
X41649Y-30689D02*
G75*
G03X41649Y-30689I-50J0D01*
G74*
G01*
X41599Y-30239D02*
X41599Y-30639D01*
X41599Y-30639D02*
X40999Y-30639D01*
X40999Y-30639D02*
X40999Y-30239D01*
X40999Y-29839D02*
X40999Y-29439D01*
X40999Y-29439D02*
X41599Y-29439D01*
X41599Y-29439D02*
X41599Y-29839D01*
X40655Y-26082D02*
G75*
G03X40655Y-26082I-50J0D01*
G74*
G01*
X40605Y-26532D02*
X40605Y-26132D01*
X40605Y-26132D02*
X41205Y-26132D01*
X41205Y-26132D02*
X41205Y-26532D01*
X41205Y-26932D02*
X41205Y-27332D01*
X41205Y-27332D02*
X40605Y-27332D01*
X40605Y-27332D02*
X40605Y-26932D01*
X41334Y-24311D02*
G75*
G03X41334Y-24311I-50J0D01*
G74*
G01*
X41284Y-23861D02*
X41284Y-24261D01*
X41284Y-24261D02*
X40684Y-24261D01*
X40684Y-24261D02*
X40684Y-23861D01*
X40684Y-23461D02*
X40684Y-23061D01*
X40684Y-23061D02*
X41284Y-23061D01*
X41284Y-23061D02*
X41284Y-23461D01*
X43912Y-22518D02*
G75*
G03X43912Y-22518I-50J0D01*
G74*
G01*
X43412Y-22518D02*
X43812Y-22518D01*
X43812Y-22518D02*
X43812Y-23118D01*
X43812Y-23118D02*
X43412Y-23118D01*
X43012Y-23118D02*
X42612Y-23118D01*
X42612Y-23118D02*
X42612Y-22518D01*
X42612Y-22518D02*
X43012Y-22518D01*
X33574Y-22656D02*
G75*
G03X33574Y-22656I-50J0D01*
G74*
G01*
X33074Y-22656D02*
X33474Y-22656D01*
X33474Y-22656D02*
X33474Y-23256D01*
X33474Y-23256D02*
X33074Y-23256D01*
X32674Y-23256D02*
X32274Y-23256D01*
X32274Y-23256D02*
X32274Y-22656D01*
X32274Y-22656D02*
X32674Y-22656D01*
X46584Y-24727D02*
G75*
G03X46584Y-24727I-50J0D01*
G74*
G01*
X46534Y-25177D02*
X46534Y-24777D01*
X46534Y-24777D02*
X47134Y-24777D01*
X47134Y-24777D02*
X47134Y-25177D01*
X47134Y-25577D02*
X47134Y-25977D01*
X47134Y-25977D02*
X46534Y-25977D01*
X46534Y-25977D02*
X46534Y-25577D01*
X47184Y-27287D02*
G75*
G03X47184Y-27287I-50J0D01*
G74*
G01*
X47134Y-26837D02*
X47134Y-27237D01*
X47134Y-27237D02*
X46534Y-27237D01*
X46534Y-27237D02*
X46534Y-26837D01*
X46534Y-26437D02*
X46534Y-26037D01*
X46534Y-26037D02*
X47134Y-26037D01*
X47134Y-26037D02*
X47134Y-26437D01*
X60340Y-26594D02*
G75*
G03X60340Y-26594I-50J0D01*
G74*
G01*
X60290Y-27044D02*
X60290Y-26644D01*
X60290Y-26644D02*
X60890Y-26644D01*
X60890Y-26644D02*
X60890Y-27044D01*
X60890Y-27444D02*
X60890Y-27844D01*
X60890Y-27844D02*
X60290Y-27844D01*
X60290Y-27844D02*
X60290Y-27444D01*
X46629Y-27558D02*
G75*
G03X46629Y-27558I-50J0D01*
G74*
G01*
X46129Y-27558D02*
X46529Y-27558D01*
X46529Y-27558D02*
X46529Y-28158D01*
X46529Y-28158D02*
X46129Y-28158D01*
X45729Y-28158D02*
X45329Y-28158D01*
X45329Y-28158D02*
X45329Y-27558D01*
X45329Y-27558D02*
X45729Y-27558D01*
X50049Y-22562D02*
G75*
G03X50049Y-22562I-50J0D01*
G74*
G01*
X49999Y-23012D02*
X49999Y-22612D01*
X49999Y-22612D02*
X50599Y-22612D01*
X50599Y-22612D02*
X50599Y-23012D01*
X50599Y-23412D02*
X50599Y-23812D01*
X50599Y-23812D02*
X49999Y-23812D01*
X49999Y-23812D02*
X49999Y-23412D01*
X54931Y-22444D02*
G75*
G03X54931Y-22444I-50J0D01*
G74*
G01*
X54881Y-22894D02*
X54881Y-22494D01*
X54881Y-22494D02*
X55481Y-22494D01*
X55481Y-22494D02*
X55481Y-22894D01*
X55481Y-23294D02*
X55481Y-23694D01*
X55481Y-23694D02*
X54881Y-23694D01*
X54881Y-23694D02*
X54881Y-23294D01*
X54586Y-29807D02*
G75*
G03X54586Y-29807I-50J0D01*
G74*
G01*
X54536Y-29357D02*
X54536Y-29757D01*
X54536Y-29757D02*
X53936Y-29757D01*
X53936Y-29757D02*
X53936Y-29357D01*
X53936Y-28957D02*
X53936Y-28557D01*
X53936Y-28557D02*
X54536Y-28557D01*
X54536Y-28557D02*
X54536Y-28957D01*
X50049Y-28231D02*
G75*
G03X50049Y-28231I-50J0D01*
G74*
G01*
X49999Y-28681D02*
X49999Y-28281D01*
X49999Y-28281D02*
X50599Y-28281D01*
X50599Y-28281D02*
X50599Y-28681D01*
X50599Y-29081D02*
X50599Y-29481D01*
X50599Y-29481D02*
X49999Y-29481D01*
X49999Y-29481D02*
X49999Y-29081D01*
X50049Y-26814D02*
G75*
G03X50049Y-26814I-50J0D01*
G74*
G01*
X49999Y-27264D02*
X49999Y-26864D01*
X49999Y-26864D02*
X50599Y-26864D01*
X50599Y-26864D02*
X50599Y-27264D01*
X50599Y-27664D02*
X50599Y-28064D01*
X50599Y-28064D02*
X49999Y-28064D01*
X49999Y-28064D02*
X49999Y-27664D01*
X50049Y-23979D02*
G75*
G03X50049Y-23979I-50J0D01*
G74*
G01*
X49999Y-24429D02*
X49999Y-24029D01*
X49999Y-24029D02*
X50599Y-24029D01*
X50599Y-24029D02*
X50599Y-24429D01*
X50599Y-24829D02*
X50599Y-25229D01*
X50599Y-25229D02*
X49999Y-25229D01*
X49999Y-25229D02*
X49999Y-24829D01*
X50049Y-25397D02*
G75*
G03X50049Y-25397I-50J0D01*
G74*
G01*
X49999Y-25847D02*
X49999Y-25447D01*
X49999Y-25447D02*
X50599Y-25447D01*
X50599Y-25447D02*
X50599Y-25847D01*
X50599Y-26247D02*
X50599Y-26647D01*
X50599Y-26647D02*
X49999Y-26647D01*
X49999Y-26647D02*
X49999Y-26247D01*
X41600Y-23011D02*
G75*
G03X41600Y-23011I-50J0D01*
G74*
G01*
X41550Y-23461D02*
X41550Y-23061D01*
X41550Y-23061D02*
X42150Y-23061D01*
X42150Y-23061D02*
X42150Y-23461D01*
X42150Y-23861D02*
X42150Y-24261D01*
X42150Y-24261D02*
X41550Y-24261D01*
X41550Y-24261D02*
X41550Y-23861D01*
G54D14*
X42303Y-28669D02*
X45303Y-28669D01*
X45303Y-30669D02*
X42303Y-30669D01*
X42303Y-30669D02*
X42303Y-28669D01*
X45303Y-28669D02*
X45303Y-30669D01*
G54D10*
X55003Y-24314D02*
X55003Y-23960D01*
X55003Y-25102D02*
X55003Y-24787D01*
X55003Y-25889D02*
X55003Y-25574D01*
X55003Y-26677D02*
X55003Y-26362D01*
X52248Y-24314D02*
X52248Y-23960D01*
X52248Y-25102D02*
X52248Y-24787D01*
X52248Y-25889D02*
X52248Y-25574D01*
X52248Y-26677D02*
X52248Y-26362D01*
X55003Y-27464D02*
X55003Y-27149D01*
X55003Y-28291D02*
X55003Y-27937D01*
X52248Y-27464D02*
X52248Y-27149D01*
X52248Y-28291D02*
X52248Y-27937D01*
X52248Y-28291D02*
X55003Y-28291D01*
X55003Y-23960D02*
X52248Y-23960D01*
X49511Y-28212D02*
X49000Y-28212D01*
X49511Y-28212D02*
X49511Y-23724D01*
X49511Y-23724D02*
X49000Y-23724D01*
X47622Y-28212D02*
X47622Y-23724D01*
X47622Y-23724D02*
X48133Y-23724D01*
X47622Y-28212D02*
X48133Y-28212D01*
G54D15*
X59488Y-25348D02*
X60188Y-25348D01*
X60188Y-25348D02*
X60188Y-26548D01*
X60188Y-26548D02*
X59488Y-26548D01*
X59488Y-26548D02*
X59488Y-25348D01*
G54D10*
X36614Y-23129D02*
X38976Y-23129D01*
X38976Y-23129D02*
X38976Y-22933D01*
X36614Y-22933D02*
X36614Y-23129D01*
X36614Y-21751D02*
X36614Y-21948D01*
X36614Y-21751D02*
X38976Y-21751D01*
X38976Y-21751D02*
X38976Y-21948D01*
X36614Y-26673D02*
X38976Y-26673D01*
X38976Y-26673D02*
X38976Y-26476D01*
X36614Y-26476D02*
X36614Y-26673D01*
X36614Y-25295D02*
X36614Y-25492D01*
X36614Y-25295D02*
X38976Y-25295D01*
X38976Y-25295D02*
X38976Y-25492D01*
X36614Y-29429D02*
X38976Y-29429D01*
X38976Y-29429D02*
X38976Y-29232D01*
X36614Y-29232D02*
X36614Y-29429D01*
X36614Y-28051D02*
X36614Y-28248D01*
X36614Y-28051D02*
X38976Y-28051D01*
X38976Y-28051D02*
X38976Y-28248D01*
G54D11*
X45322Y-24095D02*
X45322Y-24254D01*
X45331Y-24273D01*
X45341Y-24282D01*
X45359Y-24292D01*
X45397Y-24292D01*
X45416Y-24282D01*
X45425Y-24273D01*
X45434Y-24254D01*
X45434Y-24095D01*
X45509Y-24095D02*
X45631Y-24095D01*
X45566Y-24170D01*
X45594Y-24170D01*
X45613Y-24179D01*
X45622Y-24189D01*
X45631Y-24207D01*
X45631Y-24254D01*
X45622Y-24273D01*
X45613Y-24282D01*
X45594Y-24292D01*
X45538Y-24292D01*
X45519Y-24282D01*
X45509Y-24273D01*
X59416Y-27284D02*
X59322Y-27284D01*
X59322Y-27087D01*
X59584Y-27284D02*
X59472Y-27284D01*
X59528Y-27284D02*
X59528Y-27087D01*
X59509Y-27115D01*
X59491Y-27134D01*
X59472Y-27143D01*
G54D16*
X39730Y-30139D02*
X39721Y-30149D01*
X39693Y-30158D01*
X39674Y-30158D01*
X39646Y-30149D01*
X39627Y-30130D01*
X39618Y-30111D01*
X39608Y-30074D01*
X39608Y-30045D01*
X39618Y-30008D01*
X39627Y-29989D01*
X39646Y-29970D01*
X39674Y-29961D01*
X39693Y-29961D01*
X39721Y-29970D01*
X39730Y-29980D01*
X39805Y-29980D02*
X39815Y-29970D01*
X39834Y-29961D01*
X39881Y-29961D01*
X39899Y-29970D01*
X39909Y-29980D01*
X39918Y-29999D01*
X39918Y-30017D01*
X39909Y-30045D01*
X39796Y-30158D01*
X39918Y-30158D01*
X32747Y-24906D02*
X32681Y-24812D01*
X32634Y-24906D02*
X32634Y-24709D01*
X32709Y-24709D01*
X32728Y-24718D01*
X32737Y-24728D01*
X32747Y-24747D01*
X32747Y-24775D01*
X32737Y-24793D01*
X32728Y-24803D01*
X32709Y-24812D01*
X32634Y-24812D01*
X32934Y-24906D02*
X32822Y-24906D01*
X32878Y-24906D02*
X32878Y-24709D01*
X32859Y-24737D01*
X32841Y-24756D01*
X32822Y-24765D01*
X33103Y-24709D02*
X33066Y-24709D01*
X33047Y-24718D01*
X33038Y-24728D01*
X33019Y-24756D01*
X33010Y-24793D01*
X33010Y-24868D01*
X33019Y-24887D01*
X33028Y-24897D01*
X33047Y-24906D01*
X33085Y-24906D01*
X33103Y-24897D01*
X33113Y-24887D01*
X33122Y-24868D01*
X33122Y-24822D01*
X33113Y-24803D01*
X33103Y-24793D01*
X33085Y-24784D01*
X33047Y-24784D01*
X33028Y-24793D01*
X33019Y-24803D01*
X33010Y-24822D01*
X31055Y-23567D02*
X31055Y-23370D01*
X31102Y-23370D01*
X31130Y-23380D01*
X31149Y-23399D01*
X31158Y-23417D01*
X31167Y-23455D01*
X31167Y-23483D01*
X31158Y-23521D01*
X31149Y-23539D01*
X31130Y-23558D01*
X31102Y-23567D01*
X31055Y-23567D01*
X31355Y-23567D02*
X31243Y-23567D01*
X31299Y-23567D02*
X31299Y-23370D01*
X31280Y-23399D01*
X31261Y-23417D01*
X31243Y-23427D01*
X31055Y-24906D02*
X31055Y-24709D01*
X31102Y-24709D01*
X31130Y-24718D01*
X31149Y-24737D01*
X31158Y-24756D01*
X31167Y-24793D01*
X31167Y-24822D01*
X31158Y-24859D01*
X31149Y-24878D01*
X31130Y-24897D01*
X31102Y-24906D01*
X31055Y-24906D01*
X31243Y-24728D02*
X31252Y-24718D01*
X31271Y-24709D01*
X31318Y-24709D01*
X31336Y-24718D01*
X31346Y-24728D01*
X31355Y-24747D01*
X31355Y-24765D01*
X31346Y-24793D01*
X31233Y-24906D01*
X31355Y-24906D01*
X45896Y-30575D02*
X45830Y-30481D01*
X45783Y-30575D02*
X45783Y-30378D01*
X45858Y-30378D01*
X45877Y-30388D01*
X45886Y-30397D01*
X45896Y-30416D01*
X45896Y-30444D01*
X45886Y-30463D01*
X45877Y-30472D01*
X45858Y-30481D01*
X45783Y-30481D01*
X46065Y-30444D02*
X46065Y-30575D01*
X46018Y-30369D02*
X45971Y-30510D01*
X46093Y-30510D01*
X58274Y-24252D02*
X58208Y-24159D01*
X58161Y-24252D02*
X58161Y-24055D01*
X58236Y-24055D01*
X58255Y-24065D01*
X58264Y-24074D01*
X58274Y-24093D01*
X58274Y-24121D01*
X58264Y-24140D01*
X58255Y-24149D01*
X58236Y-24159D01*
X58161Y-24159D01*
X58461Y-24252D02*
X58349Y-24252D01*
X58405Y-24252D02*
X58405Y-24055D01*
X58386Y-24084D01*
X58368Y-24102D01*
X58349Y-24112D01*
X59652Y-24252D02*
X59586Y-24159D01*
X59539Y-24252D02*
X59539Y-24055D01*
X59614Y-24055D01*
X59633Y-24065D01*
X59642Y-24074D01*
X59652Y-24093D01*
X59652Y-24121D01*
X59642Y-24140D01*
X59633Y-24149D01*
X59614Y-24159D01*
X59539Y-24159D01*
X59727Y-24074D02*
X59736Y-24065D01*
X59755Y-24055D01*
X59802Y-24055D01*
X59821Y-24065D01*
X59830Y-24074D01*
X59839Y-24093D01*
X59839Y-24112D01*
X59830Y-24140D01*
X59717Y-24252D01*
X59839Y-24252D01*
X58238Y-26080D02*
X58229Y-26090D01*
X58201Y-26099D01*
X58182Y-26099D01*
X58154Y-26090D01*
X58135Y-26071D01*
X58126Y-26052D01*
X58116Y-26014D01*
X58116Y-25986D01*
X58126Y-25949D01*
X58135Y-25930D01*
X58154Y-25911D01*
X58182Y-25902D01*
X58201Y-25902D01*
X58229Y-25911D01*
X58238Y-25921D01*
X58304Y-25902D02*
X58426Y-25902D01*
X58360Y-25977D01*
X58388Y-25977D01*
X58407Y-25986D01*
X58417Y-25996D01*
X58426Y-26014D01*
X58426Y-26061D01*
X58417Y-26080D01*
X58407Y-26090D01*
X58388Y-26099D01*
X58332Y-26099D01*
X58313Y-26090D01*
X58304Y-26080D01*
X58750Y-28718D02*
X58741Y-28727D01*
X58713Y-28737D01*
X58694Y-28737D01*
X58666Y-28727D01*
X58647Y-28709D01*
X58638Y-28690D01*
X58628Y-28652D01*
X58628Y-28624D01*
X58638Y-28587D01*
X58647Y-28568D01*
X58666Y-28549D01*
X58694Y-28540D01*
X58713Y-28540D01*
X58741Y-28549D01*
X58750Y-28558D01*
X58919Y-28605D02*
X58919Y-28737D01*
X58872Y-28530D02*
X58825Y-28671D01*
X58947Y-28671D01*
X55739Y-29252D02*
X55673Y-29159D01*
X55626Y-29252D02*
X55626Y-29055D01*
X55701Y-29055D01*
X55720Y-29065D01*
X55730Y-29074D01*
X55739Y-29093D01*
X55739Y-29121D01*
X55730Y-29140D01*
X55720Y-29149D01*
X55701Y-29159D01*
X55626Y-29159D01*
X55927Y-29252D02*
X55814Y-29252D01*
X55870Y-29252D02*
X55870Y-29055D01*
X55852Y-29084D01*
X55833Y-29102D01*
X55814Y-29112D01*
X56095Y-29121D02*
X56095Y-29252D01*
X56049Y-29046D02*
X56002Y-29187D01*
X56124Y-29187D01*
X41274Y-28379D02*
X41283Y-28388D01*
X41293Y-28416D01*
X41293Y-28435D01*
X41283Y-28463D01*
X41265Y-28482D01*
X41246Y-28491D01*
X41208Y-28501D01*
X41180Y-28501D01*
X41143Y-28491D01*
X41124Y-28482D01*
X41105Y-28463D01*
X41096Y-28435D01*
X41096Y-28416D01*
X41105Y-28388D01*
X41115Y-28379D01*
X41096Y-28201D02*
X41096Y-28294D01*
X41190Y-28304D01*
X41180Y-28294D01*
X41171Y-28276D01*
X41171Y-28229D01*
X41180Y-28210D01*
X41190Y-28201D01*
X41208Y-28191D01*
X41255Y-28191D01*
X41274Y-28201D01*
X41283Y-28210D01*
X41293Y-28229D01*
X41293Y-28276D01*
X41283Y-28294D01*
X41274Y-28304D01*
X41856Y-30158D02*
X41791Y-30064D01*
X41744Y-30158D02*
X41744Y-29961D01*
X41819Y-29961D01*
X41838Y-29970D01*
X41847Y-29980D01*
X41856Y-29999D01*
X41856Y-30027D01*
X41847Y-30045D01*
X41838Y-30055D01*
X41819Y-30064D01*
X41744Y-30064D01*
X41922Y-29961D02*
X42044Y-29961D01*
X41978Y-30036D01*
X42007Y-30036D01*
X42025Y-30045D01*
X42035Y-30055D01*
X42044Y-30074D01*
X42044Y-30120D01*
X42035Y-30139D01*
X42025Y-30149D01*
X42007Y-30158D01*
X41950Y-30158D01*
X41931Y-30149D01*
X41922Y-30139D01*
X41110Y-26765D02*
X41016Y-26830D01*
X41110Y-26877D02*
X40913Y-26877D01*
X40913Y-26802D01*
X40922Y-26783D01*
X40932Y-26774D01*
X40950Y-26765D01*
X40978Y-26765D01*
X40997Y-26774D01*
X41007Y-26783D01*
X41016Y-26802D01*
X41016Y-26877D01*
X40913Y-26586D02*
X40913Y-26680D01*
X41007Y-26690D01*
X40997Y-26680D01*
X40988Y-26661D01*
X40988Y-26615D01*
X40997Y-26596D01*
X41007Y-26586D01*
X41025Y-26577D01*
X41072Y-26577D01*
X41091Y-26586D01*
X41100Y-26596D01*
X41110Y-26615D01*
X41110Y-26661D01*
X41100Y-26680D01*
X41091Y-26690D01*
X40990Y-22934D02*
X40981Y-22944D01*
X40953Y-22953D01*
X40934Y-22953D01*
X40906Y-22944D01*
X40887Y-22925D01*
X40878Y-22906D01*
X40868Y-22869D01*
X40868Y-22841D01*
X40878Y-22803D01*
X40887Y-22784D01*
X40906Y-22766D01*
X40934Y-22756D01*
X40953Y-22756D01*
X40981Y-22766D01*
X40990Y-22775D01*
X41056Y-22756D02*
X41187Y-22756D01*
X41103Y-22953D01*
X44030Y-22938D02*
X43965Y-22844D01*
X43918Y-22938D02*
X43918Y-22741D01*
X43993Y-22741D01*
X44012Y-22750D01*
X44021Y-22759D01*
X44030Y-22778D01*
X44030Y-22806D01*
X44021Y-22825D01*
X44012Y-22834D01*
X43993Y-22844D01*
X43918Y-22844D01*
X44218Y-22938D02*
X44105Y-22938D01*
X44162Y-22938D02*
X44162Y-22741D01*
X44143Y-22769D01*
X44124Y-22787D01*
X44105Y-22797D01*
X44293Y-22759D02*
X44302Y-22750D01*
X44321Y-22741D01*
X44368Y-22741D01*
X44387Y-22750D01*
X44396Y-22759D01*
X44406Y-22778D01*
X44406Y-22797D01*
X44396Y-22825D01*
X44284Y-22938D01*
X44406Y-22938D01*
X32747Y-23567D02*
X32681Y-23474D01*
X32634Y-23567D02*
X32634Y-23370D01*
X32709Y-23370D01*
X32728Y-23380D01*
X32737Y-23389D01*
X32747Y-23408D01*
X32747Y-23436D01*
X32737Y-23455D01*
X32728Y-23464D01*
X32709Y-23474D01*
X32634Y-23474D01*
X32934Y-23567D02*
X32822Y-23567D01*
X32878Y-23567D02*
X32878Y-23370D01*
X32859Y-23399D01*
X32841Y-23417D01*
X32822Y-23427D01*
X33113Y-23370D02*
X33019Y-23370D01*
X33010Y-23464D01*
X33019Y-23455D01*
X33038Y-23445D01*
X33085Y-23445D01*
X33103Y-23455D01*
X33113Y-23464D01*
X33122Y-23483D01*
X33122Y-23530D01*
X33113Y-23549D01*
X33103Y-23558D01*
X33085Y-23567D01*
X33038Y-23567D01*
X33019Y-23558D01*
X33010Y-23549D01*
X47020Y-25410D02*
X47030Y-25420D01*
X47039Y-25448D01*
X47039Y-25467D01*
X47030Y-25495D01*
X47011Y-25513D01*
X46992Y-25523D01*
X46954Y-25532D01*
X46926Y-25532D01*
X46889Y-25523D01*
X46870Y-25513D01*
X46851Y-25495D01*
X46842Y-25467D01*
X46842Y-25448D01*
X46851Y-25420D01*
X46861Y-25410D01*
X47039Y-25316D02*
X47039Y-25279D01*
X47030Y-25260D01*
X47020Y-25251D01*
X46992Y-25232D01*
X46954Y-25223D01*
X46879Y-25223D01*
X46861Y-25232D01*
X46851Y-25241D01*
X46842Y-25260D01*
X46842Y-25298D01*
X46851Y-25316D01*
X46861Y-25326D01*
X46879Y-25335D01*
X46926Y-25335D01*
X46945Y-25326D01*
X46954Y-25316D01*
X46964Y-25298D01*
X46964Y-25260D01*
X46954Y-25241D01*
X46945Y-25232D01*
X46926Y-25223D01*
X46586Y-25776D02*
X46576Y-25767D01*
X46567Y-25748D01*
X46567Y-25701D01*
X46576Y-25682D01*
X46586Y-25673D01*
X46604Y-25664D01*
X46623Y-25664D01*
X46651Y-25673D01*
X46764Y-25786D01*
X46764Y-25664D01*
X46567Y-25485D02*
X46567Y-25579D01*
X46661Y-25589D01*
X46651Y-25579D01*
X46642Y-25560D01*
X46642Y-25513D01*
X46651Y-25495D01*
X46661Y-25485D01*
X46679Y-25476D01*
X46726Y-25476D01*
X46745Y-25485D01*
X46755Y-25495D01*
X46764Y-25513D01*
X46764Y-25560D01*
X46755Y-25579D01*
X46745Y-25589D01*
X46633Y-25241D02*
X46830Y-25241D01*
X46642Y-25241D02*
X46633Y-25223D01*
X46633Y-25185D01*
X46642Y-25166D01*
X46651Y-25157D01*
X46670Y-25148D01*
X46726Y-25148D01*
X46745Y-25157D01*
X46755Y-25166D01*
X46764Y-25185D01*
X46764Y-25223D01*
X46755Y-25241D01*
X46661Y-24998D02*
X46661Y-25063D01*
X46764Y-25063D02*
X46567Y-25063D01*
X46567Y-24969D01*
X46770Y-26764D02*
X46780Y-26773D01*
X46789Y-26801D01*
X46789Y-26820D01*
X46780Y-26848D01*
X46761Y-26867D01*
X46742Y-26877D01*
X46704Y-26886D01*
X46676Y-26886D01*
X46639Y-26877D01*
X46620Y-26867D01*
X46601Y-26848D01*
X46592Y-26820D01*
X46592Y-26801D01*
X46601Y-26773D01*
X46611Y-26764D01*
X46789Y-26576D02*
X46789Y-26689D01*
X46789Y-26633D02*
X46592Y-26633D01*
X46620Y-26651D01*
X46639Y-26670D01*
X46648Y-26689D01*
X46592Y-26454D02*
X46592Y-26436D01*
X46601Y-26417D01*
X46611Y-26407D01*
X46629Y-26398D01*
X46667Y-26389D01*
X46714Y-26389D01*
X46751Y-26398D01*
X46770Y-26407D01*
X46780Y-26417D01*
X46789Y-26436D01*
X46789Y-26454D01*
X46780Y-26473D01*
X46770Y-26483D01*
X46751Y-26492D01*
X46714Y-26501D01*
X46667Y-26501D01*
X46629Y-26492D01*
X46611Y-26483D01*
X46601Y-26473D01*
X46592Y-26454D01*
X46886Y-27036D02*
X46876Y-27027D01*
X46867Y-27008D01*
X46867Y-26961D01*
X46876Y-26942D01*
X46886Y-26933D01*
X46904Y-26923D01*
X46923Y-26923D01*
X46951Y-26933D01*
X47064Y-27045D01*
X47064Y-26923D01*
X46867Y-26858D02*
X46867Y-26726D01*
X47064Y-26811D01*
X46933Y-26501D02*
X47130Y-26501D01*
X46942Y-26501D02*
X46933Y-26483D01*
X46933Y-26445D01*
X46942Y-26426D01*
X46951Y-26417D01*
X46970Y-26407D01*
X47026Y-26407D01*
X47045Y-26417D01*
X47055Y-26426D01*
X47064Y-26445D01*
X47064Y-26483D01*
X47055Y-26501D01*
X46961Y-26257D02*
X46961Y-26323D01*
X47064Y-26323D02*
X46867Y-26323D01*
X46867Y-26229D01*
G54D11*
X61187Y-27816D02*
X61178Y-27826D01*
X61150Y-27835D01*
X61131Y-27835D01*
X61103Y-27826D01*
X61084Y-27807D01*
X61075Y-27788D01*
X61065Y-27751D01*
X61065Y-27723D01*
X61075Y-27685D01*
X61084Y-27666D01*
X61103Y-27648D01*
X61131Y-27638D01*
X61150Y-27638D01*
X61178Y-27648D01*
X61187Y-27657D01*
X61375Y-27835D02*
X61262Y-27835D01*
X61318Y-27835D02*
X61318Y-27638D01*
X61300Y-27666D01*
X61281Y-27685D01*
X61262Y-27694D01*
G54D16*
X45896Y-28431D02*
X45886Y-28440D01*
X45858Y-28449D01*
X45840Y-28449D01*
X45811Y-28440D01*
X45793Y-28421D01*
X45783Y-28402D01*
X45774Y-28365D01*
X45774Y-28337D01*
X45783Y-28299D01*
X45793Y-28280D01*
X45811Y-28262D01*
X45840Y-28252D01*
X45858Y-28252D01*
X45886Y-28262D01*
X45896Y-28271D01*
X46008Y-28337D02*
X45990Y-28327D01*
X45980Y-28318D01*
X45971Y-28299D01*
X45971Y-28290D01*
X45980Y-28271D01*
X45990Y-28262D01*
X46008Y-28252D01*
X46046Y-28252D01*
X46065Y-28262D01*
X46074Y-28271D01*
X46083Y-28290D01*
X46083Y-28299D01*
X46074Y-28318D01*
X46065Y-28327D01*
X46046Y-28337D01*
X46008Y-28337D01*
X45990Y-28346D01*
X45980Y-28356D01*
X45971Y-28374D01*
X45971Y-28412D01*
X45980Y-28431D01*
X45990Y-28440D01*
X46008Y-28449D01*
X46046Y-28449D01*
X46065Y-28440D01*
X46074Y-28431D01*
X46083Y-28412D01*
X46083Y-28374D01*
X46074Y-28356D01*
X46065Y-28346D01*
X46046Y-28337D01*
X49691Y-23308D02*
X49625Y-23214D01*
X49579Y-23308D02*
X49579Y-23111D01*
X49654Y-23111D01*
X49672Y-23120D01*
X49682Y-23129D01*
X49691Y-23148D01*
X49691Y-23176D01*
X49682Y-23195D01*
X49672Y-23204D01*
X49654Y-23214D01*
X49579Y-23214D01*
X49860Y-23111D02*
X49822Y-23111D01*
X49804Y-23120D01*
X49794Y-23129D01*
X49776Y-23157D01*
X49766Y-23195D01*
X49766Y-23270D01*
X49776Y-23289D01*
X49785Y-23298D01*
X49804Y-23308D01*
X49841Y-23308D01*
X49860Y-23298D01*
X49869Y-23289D01*
X49879Y-23270D01*
X49879Y-23223D01*
X49869Y-23204D01*
X49860Y-23195D01*
X49841Y-23186D01*
X49804Y-23186D01*
X49785Y-23195D01*
X49776Y-23204D01*
X49766Y-23223D01*
X55738Y-23804D02*
X55673Y-23710D01*
X55626Y-23804D02*
X55626Y-23607D01*
X55701Y-23607D01*
X55720Y-23616D01*
X55729Y-23625D01*
X55738Y-23644D01*
X55738Y-23672D01*
X55729Y-23691D01*
X55720Y-23700D01*
X55701Y-23710D01*
X55626Y-23710D01*
X55804Y-23607D02*
X55935Y-23607D01*
X55851Y-23804D01*
X53628Y-29252D02*
X53562Y-29159D01*
X53516Y-29252D02*
X53516Y-29055D01*
X53591Y-29055D01*
X53609Y-29065D01*
X53619Y-29074D01*
X53628Y-29093D01*
X53628Y-29121D01*
X53619Y-29140D01*
X53609Y-29149D01*
X53591Y-29159D01*
X53516Y-29159D01*
X53741Y-29140D02*
X53722Y-29131D01*
X53713Y-29121D01*
X53703Y-29102D01*
X53703Y-29093D01*
X53713Y-29074D01*
X53722Y-29065D01*
X53741Y-29055D01*
X53778Y-29055D01*
X53797Y-29065D01*
X53806Y-29074D01*
X53816Y-29093D01*
X53816Y-29102D01*
X53806Y-29121D01*
X53797Y-29131D01*
X53778Y-29140D01*
X53741Y-29140D01*
X53722Y-29149D01*
X53713Y-29159D01*
X53703Y-29177D01*
X53703Y-29215D01*
X53713Y-29234D01*
X53722Y-29243D01*
X53741Y-29252D01*
X53778Y-29252D01*
X53797Y-29243D01*
X53806Y-29234D01*
X53816Y-29215D01*
X53816Y-29177D01*
X53806Y-29159D01*
X53797Y-29149D01*
X53778Y-29140D01*
X49691Y-28977D02*
X49625Y-28883D01*
X49579Y-28977D02*
X49579Y-28780D01*
X49654Y-28780D01*
X49672Y-28789D01*
X49682Y-28799D01*
X49691Y-28817D01*
X49691Y-28846D01*
X49682Y-28864D01*
X49672Y-28874D01*
X49654Y-28883D01*
X49579Y-28883D01*
X49785Y-28977D02*
X49822Y-28977D01*
X49841Y-28967D01*
X49851Y-28958D01*
X49869Y-28930D01*
X49879Y-28892D01*
X49879Y-28817D01*
X49869Y-28799D01*
X49860Y-28789D01*
X49841Y-28780D01*
X49804Y-28780D01*
X49785Y-28789D01*
X49776Y-28799D01*
X49766Y-28817D01*
X49766Y-28864D01*
X49776Y-28883D01*
X49785Y-28892D01*
X49804Y-28902D01*
X49841Y-28902D01*
X49860Y-28892D01*
X49869Y-28883D01*
X49879Y-28864D01*
X50841Y-27544D02*
X50776Y-27450D01*
X50729Y-27544D02*
X50729Y-27347D01*
X50804Y-27347D01*
X50823Y-27356D01*
X50832Y-27366D01*
X50841Y-27384D01*
X50841Y-27412D01*
X50832Y-27431D01*
X50823Y-27441D01*
X50804Y-27450D01*
X50729Y-27450D01*
X51029Y-27544D02*
X50916Y-27544D01*
X50973Y-27544D02*
X50973Y-27347D01*
X50954Y-27375D01*
X50935Y-27394D01*
X50916Y-27403D01*
X51151Y-27347D02*
X51170Y-27347D01*
X51188Y-27356D01*
X51198Y-27366D01*
X51207Y-27384D01*
X51217Y-27422D01*
X51217Y-27469D01*
X51207Y-27506D01*
X51198Y-27525D01*
X51188Y-27534D01*
X51170Y-27544D01*
X51151Y-27544D01*
X51132Y-27534D01*
X51123Y-27525D01*
X51113Y-27506D01*
X51104Y-27469D01*
X51104Y-27422D01*
X51113Y-27384D01*
X51123Y-27366D01*
X51132Y-27356D01*
X51151Y-27347D01*
X50841Y-24709D02*
X50776Y-24615D01*
X50729Y-24709D02*
X50729Y-24512D01*
X50804Y-24512D01*
X50823Y-24522D01*
X50832Y-24531D01*
X50841Y-24550D01*
X50841Y-24578D01*
X50832Y-24597D01*
X50823Y-24606D01*
X50804Y-24615D01*
X50729Y-24615D01*
X51029Y-24709D02*
X50916Y-24709D01*
X50973Y-24709D02*
X50973Y-24512D01*
X50954Y-24540D01*
X50935Y-24559D01*
X50916Y-24568D01*
X51217Y-24709D02*
X51104Y-24709D01*
X51160Y-24709D02*
X51160Y-24512D01*
X51142Y-24540D01*
X51123Y-24559D01*
X51104Y-24568D01*
X50841Y-26126D02*
X50776Y-26033D01*
X50729Y-26126D02*
X50729Y-25929D01*
X50804Y-25929D01*
X50823Y-25939D01*
X50832Y-25948D01*
X50841Y-25967D01*
X50841Y-25995D01*
X50832Y-26014D01*
X50823Y-26023D01*
X50804Y-26033D01*
X50729Y-26033D01*
X51029Y-26126D02*
X50916Y-26126D01*
X50973Y-26126D02*
X50973Y-25929D01*
X50954Y-25958D01*
X50935Y-25976D01*
X50916Y-25986D01*
X51095Y-25929D02*
X51217Y-25929D01*
X51151Y-26005D01*
X51179Y-26005D01*
X51198Y-26014D01*
X51207Y-26023D01*
X51217Y-26042D01*
X51217Y-26089D01*
X51207Y-26108D01*
X51198Y-26117D01*
X51179Y-26126D01*
X51123Y-26126D01*
X51104Y-26117D01*
X51095Y-26108D01*
X41817Y-22934D02*
X41808Y-22944D01*
X41780Y-22953D01*
X41761Y-22953D01*
X41733Y-22944D01*
X41714Y-22925D01*
X41704Y-22906D01*
X41695Y-22869D01*
X41695Y-22841D01*
X41704Y-22803D01*
X41714Y-22784D01*
X41733Y-22766D01*
X41761Y-22756D01*
X41780Y-22756D01*
X41808Y-22766D01*
X41817Y-22775D01*
X41986Y-22756D02*
X41948Y-22756D01*
X41930Y-22766D01*
X41920Y-22775D01*
X41901Y-22803D01*
X41892Y-22841D01*
X41892Y-22916D01*
X41901Y-22934D01*
X41911Y-22944D01*
X41930Y-22953D01*
X41967Y-22953D01*
X41986Y-22944D01*
X41995Y-22934D01*
X42005Y-22916D01*
X42005Y-22869D01*
X41995Y-22850D01*
X41986Y-22841D01*
X41967Y-22831D01*
X41930Y-22831D01*
X41911Y-22841D01*
X41901Y-22850D01*
X41892Y-22869D01*
G54D11*
X41846Y-30693D02*
X41846Y-30497D01*
X41921Y-30497D01*
X41940Y-30506D01*
X41949Y-30515D01*
X41959Y-30534D01*
X41959Y-30562D01*
X41949Y-30581D01*
X41940Y-30590D01*
X41921Y-30600D01*
X41846Y-30600D01*
X42146Y-30693D02*
X42034Y-30693D01*
X42090Y-30693D02*
X42090Y-30497D01*
X42071Y-30525D01*
X42053Y-30543D01*
X42034Y-30553D01*
X53476Y-23410D02*
X53476Y-23569D01*
X53485Y-23588D01*
X53494Y-23597D01*
X53513Y-23607D01*
X53550Y-23607D01*
X53569Y-23597D01*
X53579Y-23588D01*
X53588Y-23569D01*
X53588Y-23410D01*
X53672Y-23429D02*
X53682Y-23419D01*
X53700Y-23410D01*
X53747Y-23410D01*
X53766Y-23419D01*
X53775Y-23429D01*
X53785Y-23447D01*
X53785Y-23466D01*
X53775Y-23494D01*
X53663Y-23607D01*
X53785Y-23607D01*
X61902Y-28219D02*
X61931Y-28229D01*
X61977Y-28229D01*
X61996Y-28219D01*
X62005Y-28210D01*
X62015Y-28191D01*
X62015Y-28173D01*
X62005Y-28154D01*
X61996Y-28144D01*
X61977Y-28135D01*
X61940Y-28126D01*
X61921Y-28116D01*
X61912Y-28107D01*
X61902Y-28088D01*
X61902Y-28069D01*
X61912Y-28051D01*
X61921Y-28041D01*
X61940Y-28032D01*
X61987Y-28032D01*
X62015Y-28041D01*
X62080Y-28032D02*
X62127Y-28229D01*
X62165Y-28088D01*
X62202Y-28229D01*
X62249Y-28032D01*
X62427Y-28229D02*
X62315Y-28229D01*
X62371Y-28229D02*
X62371Y-28032D01*
X62352Y-28060D01*
X62334Y-28079D01*
X62315Y-28088D01*
X47607Y-23513D02*
X47607Y-23607D01*
X47541Y-23410D02*
X47607Y-23513D01*
X47672Y-23410D01*
X47841Y-23607D02*
X47728Y-23607D01*
X47785Y-23607D02*
X47785Y-23410D01*
X47766Y-23438D01*
X47747Y-23457D01*
X47728Y-23466D01*
X60676Y-25355D02*
X60676Y-25514D01*
X60686Y-25533D01*
X60695Y-25542D01*
X60714Y-25552D01*
X60751Y-25552D01*
X60770Y-25542D01*
X60779Y-25533D01*
X60789Y-25514D01*
X60789Y-25355D01*
X60986Y-25552D02*
X60873Y-25552D01*
X60929Y-25552D02*
X60929Y-25355D01*
X60911Y-25383D01*
X60892Y-25402D01*
X60873Y-25411D01*
X38615Y-23397D02*
X38643Y-23406D01*
X38690Y-23406D01*
X38709Y-23397D01*
X38718Y-23387D01*
X38727Y-23368D01*
X38727Y-23350D01*
X38718Y-23331D01*
X38709Y-23322D01*
X38690Y-23312D01*
X38652Y-23303D01*
X38634Y-23293D01*
X38624Y-23284D01*
X38615Y-23265D01*
X38615Y-23247D01*
X38624Y-23228D01*
X38634Y-23218D01*
X38652Y-23209D01*
X38699Y-23209D01*
X38727Y-23218D01*
X38793Y-23209D02*
X38840Y-23406D01*
X38877Y-23265D01*
X38915Y-23406D01*
X38962Y-23209D01*
X39121Y-23275D02*
X39121Y-23406D01*
X39074Y-23200D02*
X39027Y-23340D01*
X39149Y-23340D01*
G54D10*
X34501Y-22600D02*
X34501Y-22206D01*
X34632Y-22487D01*
X34763Y-22206D01*
X34763Y-22600D01*
X35007Y-22600D02*
X34970Y-22581D01*
X34951Y-22562D01*
X34932Y-22525D01*
X34932Y-22412D01*
X34951Y-22375D01*
X34970Y-22356D01*
X35007Y-22337D01*
X35063Y-22337D01*
X35101Y-22356D01*
X35119Y-22375D01*
X35138Y-22412D01*
X35138Y-22525D01*
X35119Y-22562D01*
X35101Y-22581D01*
X35063Y-22600D01*
X35007Y-22600D01*
X35476Y-22600D02*
X35476Y-22206D01*
X35476Y-22581D02*
X35438Y-22600D01*
X35363Y-22600D01*
X35326Y-22581D01*
X35307Y-22562D01*
X35288Y-22525D01*
X35288Y-22412D01*
X35307Y-22375D01*
X35326Y-22356D01*
X35363Y-22337D01*
X35438Y-22337D01*
X35476Y-22356D01*
X35813Y-22581D02*
X35776Y-22600D01*
X35701Y-22600D01*
X35663Y-22581D01*
X35644Y-22544D01*
X35644Y-22394D01*
X35663Y-22356D01*
X35701Y-22337D01*
X35776Y-22337D01*
X35813Y-22356D01*
X35832Y-22394D01*
X35832Y-22431D01*
X35644Y-22469D01*
G54D11*
X38615Y-26940D02*
X38643Y-26949D01*
X38690Y-26949D01*
X38709Y-26940D01*
X38718Y-26931D01*
X38727Y-26912D01*
X38727Y-26893D01*
X38718Y-26874D01*
X38709Y-26865D01*
X38690Y-26856D01*
X38652Y-26846D01*
X38634Y-26837D01*
X38624Y-26827D01*
X38615Y-26809D01*
X38615Y-26790D01*
X38624Y-26771D01*
X38634Y-26762D01*
X38652Y-26752D01*
X38699Y-26752D01*
X38727Y-26762D01*
X38793Y-26752D02*
X38840Y-26949D01*
X38877Y-26809D01*
X38915Y-26949D01*
X38962Y-26752D01*
X39018Y-26752D02*
X39140Y-26752D01*
X39074Y-26827D01*
X39102Y-26827D01*
X39121Y-26837D01*
X39131Y-26846D01*
X39140Y-26865D01*
X39140Y-26912D01*
X39131Y-26931D01*
X39121Y-26940D01*
X39102Y-26949D01*
X39046Y-26949D01*
X39027Y-26940D01*
X39018Y-26931D01*
G54D10*
X35566Y-26134D02*
X35678Y-25834D01*
X35791Y-26134D01*
G54D11*
X38615Y-29696D02*
X38643Y-29705D01*
X38690Y-29705D01*
X38709Y-29696D01*
X38718Y-29686D01*
X38727Y-29668D01*
X38727Y-29649D01*
X38718Y-29630D01*
X38709Y-29621D01*
X38690Y-29611D01*
X38652Y-29602D01*
X38634Y-29593D01*
X38624Y-29583D01*
X38615Y-29565D01*
X38615Y-29546D01*
X38624Y-29527D01*
X38634Y-29518D01*
X38652Y-29508D01*
X38699Y-29508D01*
X38727Y-29518D01*
X38793Y-29508D02*
X38840Y-29705D01*
X38877Y-29565D01*
X38915Y-29705D01*
X38962Y-29508D01*
X39027Y-29527D02*
X39037Y-29518D01*
X39056Y-29508D01*
X39102Y-29508D01*
X39121Y-29518D01*
X39131Y-29527D01*
X39140Y-29546D01*
X39140Y-29565D01*
X39131Y-29593D01*
X39018Y-29705D01*
X39140Y-29705D01*
G54D10*
X35566Y-28590D02*
X35678Y-28890D01*
X35791Y-28590D01*
M02*
