M48
;DRILL file {Pcbnew (2013-07-07 BZR 4022)-stable} date 08/02/2014 11:11:37 PM
;FORMAT={-:-/ absolute / metric / decimal}
FMAT,2
METRIC,TZ
T1C0.635
T2C0.700
T3C1.016
T4C1.270
T5C1.300
T6C2.370
%
G90
G05
M71
T1
X77.35Y-60.
X98.185Y-64.134
X98.799Y-71.531
X101.8Y-75.55
X102.986Y-72.172
X104.446Y-72.226
X104.6Y-60.9
X106.281Y-75.388
X111.3Y-67.8
X111.95Y-76.15
X112.1Y-62.8
X113.376Y-59.5
X116.1Y-54.85
X125.9Y-70.4
X126.2Y-68.3
X126.276Y-64.191
X134.3Y-57.5
X136.9Y-69.65
T2
X145.6Y-63.1
X145.6Y-69.6
T3
X137.06Y-56.23
X137.06Y-58.77
X139.6Y-56.23
X139.6Y-58.77
X142.14Y-56.23
X142.14Y-58.77
T4
X147.05Y-59.95
X147.05Y-72.65
T5
X89.75Y-56.6
X89.75Y-66.
X89.75Y-73.
X96.25Y-56.6
X96.25Y-66.
X96.25Y-73.
T6
X123.2Y-57.535
X123.2Y-75.065
T0
M30
