G04 (created by PCBNEW (2013-07-07 BZR 4022)-stable) date 30/01/2014 10:35:41 PM*
%MOIN*%
G04 Gerber Fmt 3.4, Leading zero omitted, Abs format*
%FSLAX34Y34*%
G01*
G70*
G90*
G04 APERTURE LIST*
%ADD10C,0.00590551*%
%ADD11R,0.0787X0.0177*%
%ADD12R,0.0177X0.0787*%
%ADD13R,0.0629921X0.0472441*%
%ADD14R,0.055X0.035*%
%ADD15R,0.035X0.055*%
%ADD16R,0.06X0.06*%
%ADD17C,0.06*%
%ADD18R,0.11811X0.0393701*%
%ADD19C,0.0590551*%
%ADD20R,0.0787402X0.216535*%
%ADD21R,0.03X0.02*%
%ADD22C,0.0905512*%
%ADD23C,0.0933071*%
%ADD24C,0.0893701*%
G04 APERTURE END LIST*
G54D10*
G54D11*
X41903Y-26978D03*
X41903Y-26663D03*
X41903Y-26348D03*
X41903Y-26033D03*
X41903Y-25718D03*
X41903Y-25403D03*
X41903Y-25088D03*
X41903Y-24773D03*
X45669Y-24775D03*
X45669Y-26985D03*
X45669Y-26665D03*
X45669Y-26345D03*
X45669Y-26035D03*
X45669Y-25715D03*
X45669Y-25405D03*
X45669Y-25085D03*
G54D12*
X42687Y-23985D03*
X43001Y-23985D03*
X43317Y-23985D03*
X43631Y-23985D03*
X43947Y-23985D03*
X44261Y-23985D03*
X44577Y-23985D03*
X44891Y-23985D03*
X42689Y-27765D03*
X42999Y-27765D03*
X43319Y-27765D03*
X43629Y-27765D03*
X43939Y-27765D03*
X44259Y-27765D03*
X44579Y-27765D03*
X44899Y-27765D03*
G54D13*
X58818Y-26968D03*
X57795Y-26968D03*
G54D14*
X40354Y-30414D03*
X40354Y-29664D03*
G54D15*
X33249Y-24295D03*
X32499Y-24295D03*
X31575Y-22956D03*
X30825Y-22956D03*
X31575Y-24295D03*
X30825Y-24295D03*
G54D14*
X45929Y-30044D03*
X45929Y-29294D03*
G54D15*
X58678Y-24688D03*
X57928Y-24688D03*
X60056Y-24688D03*
X59306Y-24688D03*
X58642Y-25472D03*
X57892Y-25472D03*
X59154Y-28110D03*
X58404Y-28110D03*
G54D14*
X55181Y-29532D03*
X55181Y-28782D03*
X41338Y-28721D03*
X41338Y-27971D03*
X41299Y-30414D03*
X41299Y-29664D03*
X40905Y-26357D03*
X40905Y-27107D03*
X40984Y-24036D03*
X40984Y-23286D03*
G54D15*
X43587Y-22818D03*
X42837Y-22818D03*
X33249Y-22956D03*
X32499Y-22956D03*
G54D14*
X46834Y-25002D03*
X46834Y-25752D03*
X46834Y-27012D03*
X46834Y-26262D03*
X60590Y-26869D03*
X60590Y-27619D03*
G54D15*
X46304Y-27858D03*
X45554Y-27858D03*
G54D14*
X50299Y-22837D03*
X50299Y-23587D03*
X55181Y-22719D03*
X55181Y-23469D03*
X54236Y-29532D03*
X54236Y-28782D03*
X50299Y-28506D03*
X50299Y-29256D03*
X50299Y-27089D03*
X50299Y-27839D03*
X50299Y-24254D03*
X50299Y-25004D03*
X50299Y-25672D03*
X50299Y-26422D03*
X41850Y-23286D03*
X41850Y-24036D03*
G54D16*
X44803Y-29169D03*
G54D17*
X44803Y-30169D03*
X43803Y-29169D03*
X43803Y-30169D03*
X42803Y-29169D03*
X42803Y-30169D03*
G54D18*
X55200Y-26125D03*
X52051Y-26125D03*
X55200Y-25338D03*
X52051Y-25338D03*
X52051Y-24551D03*
X55200Y-24551D03*
X55200Y-26913D03*
X55200Y-27700D03*
X52051Y-27700D03*
X52051Y-26913D03*
G54D19*
X62204Y-24881D03*
X62204Y-27440D03*
G54D20*
X48566Y-24098D03*
X48566Y-27838D03*
G54D21*
X60338Y-26323D03*
X60338Y-25573D03*
X59338Y-26323D03*
X60338Y-25948D03*
X59338Y-25573D03*
G54D22*
X39074Y-22440D03*
X36515Y-22440D03*
X39074Y-25984D03*
X36515Y-25984D03*
X39074Y-28740D03*
X36515Y-28740D03*
G54D23*
X51165Y-29616D03*
X51165Y-22714D03*
G54D24*
X60555Y-28665D03*
X60555Y-23665D03*
M02*
