M48
;DRILL file {Pcbnew (2013-07-07 BZR 4022)-stable} date 31/01/2014 10:37:58 PM
;FORMAT={-:-/ absolute / metric / decimal}
FMAT,2
METRIC,TZ
T1C0.635
T2C0.700
T3C1.016
T4C1.270
T5C1.300
T6C2.370
%
G90
G05
M71
T1
X97.8Y-63.1
X98.Y-74.535
X98.724Y-65.423
X106.365Y-76.281
X106.4Y-59.3
X106.463Y-71.191
X110.392Y-71.301
X110.6Y-59.3
X110.8Y-75.9
X110.839Y-69.376
X111.348Y-68.08
X112.946Y-72.945
X113.987Y-63.697
X118.106Y-61.285
X125.163Y-59.3
X128.147Y-60.815
X131.744Y-60.726
T2
X145.6Y-63.1
X145.6Y-69.6
T3
X137.06Y-56.23
X137.06Y-58.77
X139.6Y-56.23
X139.6Y-58.77
X142.14Y-56.23
X142.14Y-58.77
T4
X147.05Y-59.95
X147.05Y-72.65
T5
X89.75Y-56.6
X89.75Y-66.
X89.75Y-73.
X96.25Y-56.6
X96.25Y-66.
X96.25Y-73.
T6
X123.2Y-57.535
X123.2Y-75.065
T0
M30
