G04 (created by PCBNEW (2013-07-07 BZR 4022)-stable) date 26/01/2014 11:35:28 PM*
%MOIN*%
G04 Gerber Fmt 3.4, Leading zero omitted, Abs format*
%FSLAX34Y34*%
G01*
G70*
G90*
G04 APERTURE LIST*
%ADD10C,0.00590551*%
%ADD11R,0.0787X0.0177*%
%ADD12R,0.0177X0.0787*%
%ADD13R,0.0866142X0.0629921*%
%ADD14R,0.0472441X0.0629921*%
%ADD15R,0.055X0.035*%
%ADD16R,0.035X0.055*%
%ADD17R,0.06X0.06*%
%ADD18C,0.06*%
%ADD19R,0.11811X0.0393701*%
%ADD20C,0.0590551*%
%ADD21R,0.0787402X0.216535*%
%ADD22R,0.02X0.03*%
%ADD23C,0.0893701*%
%ADD24C,0.02*%
%ADD25C,0.01*%
%ADD26C,0.03*%
G04 APERTURE END LIST*
G54D10*
G54D11*
X41903Y-26978D03*
X41903Y-26663D03*
X41903Y-26348D03*
X41903Y-26033D03*
X41903Y-25718D03*
X41903Y-25403D03*
X41903Y-25088D03*
X41903Y-24773D03*
X45669Y-24775D03*
X45669Y-26985D03*
X45669Y-26665D03*
X45669Y-26345D03*
X45669Y-26035D03*
X45669Y-25715D03*
X45669Y-25405D03*
X45669Y-25085D03*
G54D12*
X42687Y-23985D03*
X43001Y-23985D03*
X43317Y-23985D03*
X43631Y-23985D03*
X43947Y-23985D03*
X44261Y-23985D03*
X44577Y-23985D03*
X44891Y-23985D03*
X42689Y-27765D03*
X42999Y-27765D03*
X43319Y-27765D03*
X43629Y-27765D03*
X43939Y-27765D03*
X44259Y-27765D03*
X44579Y-27765D03*
X44899Y-27765D03*
G54D13*
X39566Y-28740D03*
X36023Y-28740D03*
X39566Y-25984D03*
X36023Y-25984D03*
X39566Y-23228D03*
X36023Y-23228D03*
G54D14*
X59551Y-26637D03*
X59551Y-27661D03*
G54D15*
X40354Y-30414D03*
X40354Y-29664D03*
G54D16*
X32461Y-24925D03*
X31711Y-24925D03*
X30788Y-23291D03*
X30038Y-23291D03*
X30788Y-24925D03*
X30038Y-24925D03*
G54D15*
X45929Y-30044D03*
X45929Y-29294D03*
X57149Y-27128D03*
X57149Y-27878D03*
X57149Y-25750D03*
X57149Y-26500D03*
X58094Y-27128D03*
X58094Y-27878D03*
X60535Y-26971D03*
X60535Y-27721D03*
X55181Y-29532D03*
X55181Y-28782D03*
X41338Y-28721D03*
X41338Y-27971D03*
X41299Y-30414D03*
X41299Y-29664D03*
X40905Y-26357D03*
X40905Y-27107D03*
X40984Y-24036D03*
X40984Y-23286D03*
G54D16*
X43587Y-22818D03*
X42837Y-22818D03*
X32461Y-23291D03*
X31711Y-23291D03*
G54D15*
X46834Y-25002D03*
X46834Y-25752D03*
X46834Y-27012D03*
X46834Y-26262D03*
X59866Y-25359D03*
X59866Y-24609D03*
G54D16*
X46304Y-27858D03*
X45554Y-27858D03*
G54D15*
X50299Y-22837D03*
X50299Y-23587D03*
X55181Y-22719D03*
X55181Y-23469D03*
X54236Y-29532D03*
X54236Y-28782D03*
X50299Y-28506D03*
X50299Y-29256D03*
X50299Y-27089D03*
X50299Y-27839D03*
X50299Y-24254D03*
X50299Y-25004D03*
X50299Y-25672D03*
X50299Y-26422D03*
X41874Y-23310D03*
X41874Y-24060D03*
G54D17*
X44803Y-29169D03*
G54D18*
X44803Y-30169D03*
X43803Y-29169D03*
X43803Y-30169D03*
X42803Y-29169D03*
X42803Y-30169D03*
G54D19*
X55200Y-26125D03*
X52051Y-26125D03*
X55200Y-25338D03*
X52051Y-25338D03*
X52051Y-24551D03*
X55200Y-24551D03*
X55200Y-26913D03*
X55200Y-27700D03*
X52051Y-27700D03*
X52051Y-26913D03*
G54D20*
X62188Y-27346D03*
X62188Y-24787D03*
G54D21*
X48566Y-24098D03*
X48566Y-27838D03*
G54D22*
X58784Y-25468D03*
X58034Y-25468D03*
X58784Y-26468D03*
X58409Y-25468D03*
X58034Y-26468D03*
G54D23*
X60555Y-23665D03*
X60555Y-28665D03*
G54D24*
X45669Y-26665D02*
X46154Y-26665D01*
X46304Y-26815D02*
X46304Y-27858D01*
X46154Y-26665D02*
X46304Y-26815D01*
X46834Y-25752D02*
X46834Y-26262D01*
G54D25*
X58034Y-26468D02*
X58034Y-27068D01*
X58034Y-27068D02*
X58094Y-27128D01*
X57149Y-26500D02*
X57149Y-27128D01*
X58034Y-26468D02*
X57182Y-26468D01*
X57182Y-26468D02*
X57149Y-26500D01*
G54D26*
X59551Y-26637D02*
X58953Y-26637D01*
X58953Y-26637D02*
X58784Y-26468D01*
X58784Y-25468D02*
X58784Y-25928D01*
X58784Y-25928D02*
X58763Y-25948D01*
X58763Y-25948D02*
X58094Y-25948D01*
X58094Y-25948D02*
X58034Y-25888D01*
X58034Y-25888D02*
X58034Y-25468D01*
X59866Y-25359D02*
X61617Y-25359D01*
X61617Y-25359D02*
X62188Y-24787D01*
X59866Y-25359D02*
X58893Y-25359D01*
X58893Y-25359D02*
X58784Y-25468D01*
X60555Y-28665D02*
X60870Y-28665D01*
X60870Y-28665D02*
X62188Y-27346D01*
G54D25*
X46834Y-25002D02*
X46768Y-25002D01*
X46208Y-26035D02*
X45669Y-26035D01*
X46299Y-25944D02*
X46208Y-26035D01*
X46299Y-25472D02*
X46299Y-25944D01*
X46768Y-25002D02*
X46299Y-25472D01*
X46834Y-25002D02*
X47662Y-25002D01*
X47662Y-25002D02*
X48566Y-24098D01*
X46834Y-27012D02*
X46834Y-26992D01*
X46188Y-26345D02*
X45669Y-26345D01*
X46834Y-26992D02*
X46188Y-26345D01*
X46834Y-27012D02*
X47741Y-27012D01*
X47741Y-27012D02*
X48566Y-27838D01*
G54D24*
X45929Y-30044D02*
X44928Y-30044D01*
X44928Y-30044D02*
X44803Y-30169D01*
X45669Y-26985D02*
X45669Y-27743D01*
X45669Y-27743D02*
X45554Y-27858D01*
G54D10*
G36*
X63635Y-24727D02*
X61577Y-26784D01*
X60231Y-26784D01*
X60231Y-26422D01*
X60506Y-26146D01*
X60506Y-25709D01*
X61617Y-25709D01*
X61751Y-25682D01*
X61751Y-25682D01*
X61864Y-25606D01*
X62188Y-25282D01*
X62287Y-25282D01*
X62469Y-25207D01*
X62608Y-25068D01*
X62684Y-24886D01*
X62684Y-24689D01*
X62609Y-24507D01*
X62469Y-24367D01*
X62287Y-24292D01*
X62090Y-24292D01*
X61908Y-24367D01*
X61769Y-24506D01*
X61693Y-24688D01*
X61693Y-24787D01*
X61472Y-25009D01*
X60506Y-25009D01*
X60506Y-24501D01*
X58556Y-24501D01*
X58556Y-25163D01*
X58514Y-25205D01*
X58484Y-25278D01*
X58484Y-25299D01*
X58484Y-25299D01*
X58465Y-25327D01*
X58353Y-25327D01*
X58334Y-25299D01*
X58334Y-25278D01*
X58304Y-25205D01*
X58262Y-25163D01*
X58262Y-25131D01*
X58204Y-25131D01*
X58174Y-25118D01*
X58094Y-25118D01*
X57894Y-25118D01*
X57864Y-25131D01*
X57837Y-25131D01*
X57404Y-25564D01*
X56766Y-25564D01*
X56766Y-24060D01*
X58154Y-22672D01*
X63635Y-22672D01*
X63635Y-24727D01*
X63635Y-24727D01*
G37*
G54D25*
X63635Y-24727D02*
X61577Y-26784D01*
X60231Y-26784D01*
X60231Y-26422D01*
X60506Y-26146D01*
X60506Y-25709D01*
X61617Y-25709D01*
X61751Y-25682D01*
X61751Y-25682D01*
X61864Y-25606D01*
X62188Y-25282D01*
X62287Y-25282D01*
X62469Y-25207D01*
X62608Y-25068D01*
X62684Y-24886D01*
X62684Y-24689D01*
X62609Y-24507D01*
X62469Y-24367D01*
X62287Y-24292D01*
X62090Y-24292D01*
X61908Y-24367D01*
X61769Y-24506D01*
X61693Y-24688D01*
X61693Y-24787D01*
X61472Y-25009D01*
X60506Y-25009D01*
X60506Y-24501D01*
X58556Y-24501D01*
X58556Y-25163D01*
X58514Y-25205D01*
X58484Y-25278D01*
X58484Y-25299D01*
X58484Y-25299D01*
X58465Y-25327D01*
X58353Y-25327D01*
X58334Y-25299D01*
X58334Y-25278D01*
X58304Y-25205D01*
X58262Y-25163D01*
X58262Y-25131D01*
X58204Y-25131D01*
X58174Y-25118D01*
X58094Y-25118D01*
X57894Y-25118D01*
X57864Y-25131D01*
X57837Y-25131D01*
X57404Y-25564D01*
X56766Y-25564D01*
X56766Y-24060D01*
X58154Y-22672D01*
X63635Y-22672D01*
X63635Y-24727D01*
G54D10*
G36*
X61371Y-30091D02*
X61165Y-30091D01*
X56175Y-30091D01*
X56175Y-28212D01*
X56175Y-27711D01*
X56677Y-27711D01*
X61258Y-27711D01*
X60911Y-28058D01*
X60694Y-27968D01*
X60417Y-27968D01*
X60160Y-28074D01*
X59964Y-28270D01*
X59858Y-28526D01*
X59858Y-28803D01*
X59964Y-29059D01*
X60159Y-29255D01*
X60415Y-29362D01*
X60693Y-29362D01*
X60949Y-29256D01*
X61145Y-29060D01*
X61220Y-28881D01*
X61371Y-28729D01*
X61371Y-30091D01*
X61371Y-30091D01*
G37*
G54D25*
X61371Y-30091D02*
X61165Y-30091D01*
X56175Y-30091D01*
X56175Y-28212D01*
X56175Y-27711D01*
X56677Y-27711D01*
X61258Y-27711D01*
X60911Y-28058D01*
X60694Y-27968D01*
X60417Y-27968D01*
X60160Y-28074D01*
X59964Y-28270D01*
X59858Y-28526D01*
X59858Y-28803D01*
X59964Y-29059D01*
X60159Y-29255D01*
X60415Y-29362D01*
X60693Y-29362D01*
X60949Y-29256D01*
X61145Y-29060D01*
X61220Y-28881D01*
X61371Y-28729D01*
X61371Y-30091D01*
M02*
