M48
;DRILL file {Pcbnew (2013-07-07 BZR 4022)-stable} date 30/01/2014 10:35:44 PM
;FORMAT={-:-/ absolute / metric / decimal}
FMAT,2
METRIC,TZ
T1C0.635
T2C0.700
T3C1.016
T4C1.270
T5C1.300
T6C2.370
%
G90
G05
M71
T1
X100.594Y-77.141
X103.793Y-72.028
X107.615Y-57.96
X110.497Y-68.826
X113.302Y-68.711
X113.321Y-67.53
X113.529Y-66.349
X114.114Y-64.596
X119.3Y-70.8
X120.3Y-67.1
X120.365Y-65.207
X121.508Y-72.046
X125.078Y-61.607
X129.773Y-69.147
X135.215Y-75.874
X138.002Y-64.36
X138.538Y-57.64
X142.6Y-68.8
T2
X158.Y-63.2
X158.Y-69.7
T3
X108.72Y-74.09
X108.72Y-76.63
X111.26Y-74.09
X111.26Y-76.63
X113.8Y-74.09
X113.8Y-76.63
T4
X153.81Y-60.11
X153.81Y-72.81
T5
X92.75Y-57.
X92.75Y-66.
X92.75Y-73.
X99.25Y-57.
X99.25Y-66.
X99.25Y-73.
T6
X129.96Y-57.695
X129.96Y-75.225
T0
M30
