G04 (created by PCBNEW (2013-07-07 BZR 4022)-stable) date 31/01/2014 10:37:56 PM*
%MOIN*%
G04 Gerber Fmt 3.4, Leading zero omitted, Abs format*
%FSLAX34Y34*%
G01*
G70*
G90*
G04 APERTURE LIST*
%ADD10C,0.00590551*%
%ADD11R,0.0177X0.0787*%
%ADD12R,0.0787X0.0177*%
%ADD13R,0.0629921X0.0472441*%
%ADD14R,0.055X0.035*%
%ADD15R,0.035X0.055*%
%ADD16R,0.06X0.06*%
%ADD17C,0.06*%
%ADD18R,0.11811X0.0393701*%
%ADD19C,0.0590551*%
%ADD20R,0.216535X0.0787402*%
%ADD21R,0.03X0.02*%
%ADD22C,0.0905512*%
%ADD23C,0.0933071*%
%ADD24C,0.0893701*%
G04 APERTURE END LIST*
G54D10*
G54D11*
X43730Y-28746D03*
X43415Y-28746D03*
X43100Y-28746D03*
X42785Y-28746D03*
X42470Y-28746D03*
X42155Y-28746D03*
X41840Y-28746D03*
X41525Y-28746D03*
X41527Y-24980D03*
X43737Y-24980D03*
X43417Y-24980D03*
X43097Y-24980D03*
X42787Y-24980D03*
X42467Y-24980D03*
X42157Y-24980D03*
X41837Y-24980D03*
G54D12*
X40737Y-27962D03*
X40737Y-27648D03*
X40737Y-27332D03*
X40737Y-27018D03*
X40737Y-26702D03*
X40737Y-26388D03*
X40737Y-26072D03*
X40737Y-25758D03*
X44517Y-27960D03*
X44517Y-27650D03*
X44517Y-27330D03*
X44517Y-27020D03*
X44517Y-26710D03*
X44517Y-26390D03*
X44517Y-26070D03*
X44517Y-25750D03*
G54D13*
X53937Y-26850D03*
X52913Y-26850D03*
G54D14*
X39448Y-28130D03*
X39448Y-27380D03*
G54D15*
X32855Y-24295D03*
X32105Y-24295D03*
X31182Y-22956D03*
X30432Y-22956D03*
X31182Y-24295D03*
X30432Y-24295D03*
G54D14*
X44645Y-29981D03*
X44645Y-29231D03*
G54D15*
X53721Y-24566D03*
X52971Y-24566D03*
X55256Y-24566D03*
X54506Y-24566D03*
X53721Y-25472D03*
X52971Y-25472D03*
X54272Y-27992D03*
X53522Y-27992D03*
X50294Y-29803D03*
X51044Y-29803D03*
G54D14*
X39448Y-29745D03*
X39448Y-28995D03*
X39448Y-25766D03*
X39448Y-26516D03*
G54D15*
X43091Y-29881D03*
X42341Y-29881D03*
X40099Y-24448D03*
X39349Y-24448D03*
G54D14*
X37874Y-23798D03*
X37874Y-24548D03*
G54D15*
X32855Y-22956D03*
X32105Y-22956D03*
X42382Y-23976D03*
X41632Y-23976D03*
X43128Y-23976D03*
X43878Y-23976D03*
G54D14*
X55708Y-26750D03*
X55708Y-27500D03*
X44724Y-23876D03*
X44724Y-24626D03*
G54D15*
X46278Y-29685D03*
X47028Y-29685D03*
G54D14*
X51535Y-22065D03*
X51535Y-22815D03*
X50354Y-22065D03*
X50354Y-22815D03*
X45944Y-28445D03*
X45944Y-27695D03*
X45944Y-26002D03*
X45944Y-26752D03*
X45944Y-24626D03*
X45944Y-23876D03*
G54D15*
X46593Y-22559D03*
X47343Y-22559D03*
G54D14*
X40708Y-28995D03*
X40708Y-29745D03*
G54D16*
X53960Y-23137D03*
G54D17*
X53960Y-22137D03*
X54960Y-23137D03*
X54960Y-22137D03*
X55960Y-23137D03*
X55960Y-22137D03*
G54D18*
X50590Y-26102D03*
X47440Y-26102D03*
X50590Y-25314D03*
X47440Y-25314D03*
X47440Y-24527D03*
X50590Y-24527D03*
X50590Y-26889D03*
X50590Y-27677D03*
X47440Y-27677D03*
X47440Y-26889D03*
G54D19*
X57322Y-24842D03*
X57322Y-27401D03*
G54D20*
X40767Y-22401D03*
X44507Y-22401D03*
G54D21*
X55456Y-26205D03*
X55456Y-25455D03*
X54456Y-26205D03*
X55456Y-25830D03*
X54456Y-25455D03*
G54D22*
X37893Y-22283D03*
X35334Y-22283D03*
X37893Y-25984D03*
X35334Y-25984D03*
X37893Y-28740D03*
X35334Y-28740D03*
G54D23*
X48503Y-29553D03*
X48503Y-22651D03*
G54D24*
X57893Y-28602D03*
X57893Y-23602D03*
M02*
