G04 (created by PCBNEW (2013-07-07 BZR 4022)-stable) date 26/01/2014 11:35:28 PM*
%MOIN*%
G04 Gerber Fmt 3.4, Leading zero omitted, Abs format*
%FSLAX34Y34*%
G01*
G70*
G90*
G04 APERTURE LIST*
%ADD10C,0.00590551*%
%ADD11C,0.011811*%
G04 APERTURE END LIST*
G54D10*
G54D11*
X55944Y-25261D02*
X56001Y-25233D01*
X56113Y-25233D01*
X56169Y-25261D01*
X56226Y-25317D01*
X56254Y-25374D01*
X56254Y-25486D01*
X56226Y-25542D01*
X56169Y-25598D01*
X56113Y-25627D01*
X56001Y-25627D01*
X55944Y-25598D01*
X56057Y-25036D02*
X56197Y-25064D01*
X56338Y-25149D01*
X56422Y-25289D01*
X56451Y-25430D01*
X56422Y-25570D01*
X56338Y-25711D01*
X56197Y-25795D01*
X56057Y-25823D01*
X55916Y-25795D01*
X55776Y-25711D01*
X55691Y-25570D01*
X55663Y-25430D01*
X55691Y-25289D01*
X55776Y-25149D01*
X55916Y-25064D01*
X56057Y-25036D01*
X54988Y-25177D02*
X54960Y-25149D01*
X54904Y-25120D01*
X54763Y-25120D01*
X54707Y-25149D01*
X54679Y-25177D01*
X54651Y-25233D01*
X54651Y-25289D01*
X54679Y-25374D01*
X55016Y-25711D01*
X54651Y-25711D01*
X54285Y-25120D02*
X54229Y-25120D01*
X54173Y-25149D01*
X54145Y-25177D01*
X54116Y-25233D01*
X54088Y-25345D01*
X54088Y-25486D01*
X54116Y-25598D01*
X54145Y-25655D01*
X54173Y-25683D01*
X54229Y-25711D01*
X54285Y-25711D01*
X54341Y-25683D01*
X54370Y-25655D01*
X54398Y-25598D01*
X54426Y-25486D01*
X54426Y-25345D01*
X54398Y-25233D01*
X54370Y-25177D01*
X54341Y-25149D01*
X54285Y-25120D01*
X53526Y-25711D02*
X53863Y-25711D01*
X53695Y-25711D02*
X53695Y-25120D01*
X53751Y-25205D01*
X53807Y-25261D01*
X53863Y-25289D01*
X53020Y-25317D02*
X53020Y-25711D01*
X53160Y-25092D02*
X53301Y-25514D01*
X52935Y-25514D01*
X52260Y-25711D02*
X52260Y-25120D01*
X51923Y-25711D01*
X51923Y-25120D01*
X51417Y-25683D02*
X51473Y-25711D01*
X51586Y-25711D01*
X51642Y-25683D01*
X51670Y-25627D01*
X51670Y-25402D01*
X51642Y-25345D01*
X51586Y-25317D01*
X51473Y-25317D01*
X51417Y-25345D01*
X51389Y-25402D01*
X51389Y-25458D01*
X51670Y-25514D01*
X51136Y-25711D02*
X51136Y-25317D01*
X51136Y-25120D02*
X51164Y-25149D01*
X51136Y-25177D01*
X51107Y-25149D01*
X51136Y-25120D01*
X51136Y-25177D01*
X50770Y-25711D02*
X50826Y-25683D01*
X50854Y-25627D01*
X50854Y-25120D01*
X50095Y-25711D02*
X50095Y-25120D01*
X49898Y-25542D01*
X49701Y-25120D01*
X49701Y-25711D01*
X49167Y-25711D02*
X49167Y-25402D01*
X49195Y-25345D01*
X49251Y-25317D01*
X49364Y-25317D01*
X49420Y-25345D01*
X49167Y-25683D02*
X49223Y-25711D01*
X49364Y-25711D01*
X49420Y-25683D01*
X49448Y-25627D01*
X49448Y-25570D01*
X49420Y-25514D01*
X49364Y-25486D01*
X49223Y-25486D01*
X49167Y-25458D01*
X48633Y-25683D02*
X48689Y-25711D01*
X48802Y-25711D01*
X48858Y-25683D01*
X48886Y-25655D01*
X48914Y-25598D01*
X48914Y-25430D01*
X48886Y-25374D01*
X48858Y-25345D01*
X48802Y-25317D01*
X48689Y-25317D01*
X48633Y-25345D01*
X48380Y-25711D02*
X48380Y-25120D01*
X48183Y-25542D01*
X47986Y-25120D01*
X47986Y-25711D01*
X47705Y-25711D02*
X47705Y-25317D01*
X47705Y-25120D02*
X47733Y-25149D01*
X47705Y-25177D01*
X47677Y-25149D01*
X47705Y-25120D01*
X47705Y-25177D01*
X47339Y-25711D02*
X47395Y-25683D01*
X47424Y-25627D01*
X47424Y-25120D01*
X47030Y-25711D02*
X47086Y-25683D01*
X47114Y-25627D01*
X47114Y-25120D01*
X46552Y-25711D02*
X46552Y-25402D01*
X46580Y-25345D01*
X46636Y-25317D01*
X46749Y-25317D01*
X46805Y-25345D01*
X46552Y-25683D02*
X46608Y-25711D01*
X46749Y-25711D01*
X46805Y-25683D01*
X46833Y-25627D01*
X46833Y-25570D01*
X46805Y-25514D01*
X46749Y-25486D01*
X46608Y-25486D01*
X46552Y-25458D01*
X46271Y-25317D02*
X46271Y-25711D01*
X46271Y-25374D02*
X46242Y-25345D01*
X46186Y-25317D01*
X46102Y-25317D01*
X46046Y-25345D01*
X46017Y-25402D01*
X46017Y-25711D01*
X54201Y-26093D02*
X54257Y-26065D01*
X54341Y-26065D01*
X54426Y-26093D01*
X54482Y-26150D01*
X54510Y-26206D01*
X54538Y-26318D01*
X54538Y-26403D01*
X54510Y-26515D01*
X54482Y-26571D01*
X54426Y-26628D01*
X54341Y-26656D01*
X54285Y-26656D01*
X54201Y-26628D01*
X54173Y-26600D01*
X54173Y-26403D01*
X54285Y-26403D01*
X53667Y-26262D02*
X53667Y-26656D01*
X53920Y-26262D02*
X53920Y-26571D01*
X53892Y-26628D01*
X53835Y-26656D01*
X53751Y-26656D01*
X53695Y-26628D01*
X53667Y-26600D01*
X53385Y-26656D02*
X53385Y-26262D01*
X53385Y-26065D02*
X53413Y-26093D01*
X53385Y-26122D01*
X53357Y-26093D01*
X53385Y-26065D01*
X53385Y-26122D01*
X53188Y-26262D02*
X52964Y-26262D01*
X53104Y-26065D02*
X53104Y-26571D01*
X53076Y-26628D01*
X53020Y-26656D01*
X52964Y-26656D01*
X52514Y-26656D02*
X52514Y-26347D01*
X52542Y-26290D01*
X52598Y-26262D01*
X52710Y-26262D01*
X52767Y-26290D01*
X52514Y-26628D02*
X52570Y-26656D01*
X52710Y-26656D01*
X52767Y-26628D01*
X52795Y-26571D01*
X52795Y-26515D01*
X52767Y-26459D01*
X52710Y-26431D01*
X52570Y-26431D01*
X52514Y-26403D01*
X52232Y-26656D02*
X52232Y-26262D01*
X52232Y-26375D02*
X52204Y-26318D01*
X52176Y-26290D01*
X52120Y-26262D01*
X52064Y-26262D01*
X51501Y-26065D02*
X51164Y-26065D01*
X51332Y-26656D02*
X51332Y-26065D01*
X50714Y-26262D02*
X50714Y-26656D01*
X50967Y-26262D02*
X50967Y-26571D01*
X50939Y-26628D01*
X50883Y-26656D01*
X50798Y-26656D01*
X50742Y-26628D01*
X50714Y-26600D01*
X50433Y-26262D02*
X50433Y-26656D01*
X50433Y-26318D02*
X50404Y-26290D01*
X50348Y-26262D01*
X50264Y-26262D01*
X50208Y-26290D01*
X50179Y-26347D01*
X50179Y-26656D01*
X49673Y-26628D02*
X49730Y-26656D01*
X49842Y-26656D01*
X49898Y-26628D01*
X49926Y-26571D01*
X49926Y-26347D01*
X49898Y-26290D01*
X49842Y-26262D01*
X49730Y-26262D01*
X49673Y-26290D01*
X49645Y-26347D01*
X49645Y-26403D01*
X49926Y-26459D01*
X49392Y-26656D02*
X49392Y-26262D01*
X49392Y-26375D02*
X49364Y-26318D01*
X49336Y-26290D01*
X49280Y-26262D01*
X49223Y-26262D01*
X48577Y-26656D02*
X48577Y-26262D01*
X48577Y-26375D02*
X48548Y-26318D01*
X48520Y-26290D01*
X48464Y-26262D01*
X48408Y-26262D01*
X48239Y-26122D02*
X48211Y-26093D01*
X48155Y-26065D01*
X48014Y-26065D01*
X47958Y-26093D01*
X47930Y-26122D01*
X47902Y-26178D01*
X47902Y-26234D01*
X47930Y-26318D01*
X48267Y-26656D01*
X47902Y-26656D01*
X54482Y-27601D02*
X54482Y-27010D01*
X54229Y-27601D02*
X54229Y-27291D01*
X54257Y-27235D01*
X54313Y-27207D01*
X54398Y-27207D01*
X54454Y-27235D01*
X54482Y-27263D01*
X54032Y-27207D02*
X53807Y-27207D01*
X53948Y-27010D02*
X53948Y-27516D01*
X53920Y-27573D01*
X53863Y-27601D01*
X53807Y-27601D01*
X53695Y-27207D02*
X53470Y-27207D01*
X53610Y-27010D02*
X53610Y-27516D01*
X53582Y-27573D01*
X53526Y-27601D01*
X53470Y-27601D01*
X53273Y-27207D02*
X53273Y-27798D01*
X53273Y-27235D02*
X53217Y-27207D01*
X53104Y-27207D01*
X53048Y-27235D01*
X53020Y-27263D01*
X52992Y-27320D01*
X52992Y-27488D01*
X53020Y-27544D01*
X53048Y-27573D01*
X53104Y-27601D01*
X53217Y-27601D01*
X53273Y-27573D01*
X52739Y-27544D02*
X52710Y-27573D01*
X52739Y-27601D01*
X52767Y-27573D01*
X52739Y-27544D01*
X52739Y-27601D01*
X52739Y-27235D02*
X52710Y-27263D01*
X52739Y-27291D01*
X52767Y-27263D01*
X52739Y-27235D01*
X52739Y-27291D01*
X52035Y-26982D02*
X52542Y-27741D01*
X51417Y-26982D02*
X51923Y-27741D01*
X51220Y-27207D02*
X51220Y-27601D01*
X51220Y-27263D02*
X51192Y-27235D01*
X51136Y-27207D01*
X51051Y-27207D01*
X50995Y-27235D01*
X50967Y-27291D01*
X50967Y-27601D01*
X50686Y-27601D02*
X50686Y-27207D01*
X50686Y-27320D02*
X50658Y-27263D01*
X50629Y-27235D01*
X50573Y-27207D01*
X50517Y-27207D01*
X50067Y-27207D02*
X50067Y-27798D01*
X50067Y-27573D02*
X50123Y-27601D01*
X50236Y-27601D01*
X50292Y-27573D01*
X50320Y-27544D01*
X50348Y-27488D01*
X50348Y-27320D01*
X50320Y-27263D01*
X50292Y-27235D01*
X50236Y-27207D01*
X50123Y-27207D01*
X50067Y-27235D01*
X49786Y-27601D02*
X49786Y-27207D01*
X49786Y-27263D02*
X49758Y-27235D01*
X49701Y-27207D01*
X49617Y-27207D01*
X49561Y-27235D01*
X49533Y-27291D01*
X49533Y-27601D01*
X49533Y-27291D02*
X49505Y-27235D01*
X49448Y-27207D01*
X49364Y-27207D01*
X49308Y-27235D01*
X49280Y-27291D01*
X49280Y-27601D01*
X48998Y-27544D02*
X48970Y-27573D01*
X48998Y-27601D01*
X49026Y-27573D01*
X48998Y-27544D01*
X48998Y-27601D01*
X48464Y-27573D02*
X48520Y-27601D01*
X48633Y-27601D01*
X48689Y-27573D01*
X48717Y-27544D01*
X48745Y-27488D01*
X48745Y-27320D01*
X48717Y-27263D01*
X48689Y-27235D01*
X48633Y-27207D01*
X48520Y-27207D01*
X48464Y-27235D01*
X47958Y-27601D02*
X47958Y-27291D01*
X47986Y-27235D01*
X48042Y-27207D01*
X48155Y-27207D01*
X48211Y-27235D01*
X47958Y-27573D02*
X48014Y-27601D01*
X48155Y-27601D01*
X48211Y-27573D01*
X48239Y-27516D01*
X48239Y-27460D01*
X48211Y-27404D01*
X48155Y-27376D01*
X48014Y-27376D01*
X47958Y-27348D01*
M02*
